G04*
G04 #@! TF.GenerationSoftware,Altium Limited,Altium Designer,25.1.2 (22)*
G04*
G04 Layer_Physical_Order=5*
G04 Layer_Color=8388736*
%FSLAX43Y43*%
%MOMM*%
G71*
G04*
G04 #@! TF.SameCoordinates,40D48374-329B-4D39-B51B-D84B34E4F720*
G04*
G04*
G04 #@! TF.FilePolarity,Negative*
G04*
G01*
G75*
%ADD184C,1.016*%
%ADD192C,2.000*%
%ADD193C,4.200*%
G04:AMPARAMS|DCode=195|XSize=3.124mm|YSize=3.124mm|CornerRadius=0mm|HoleSize=0mm|Usage=FLASHONLY|Rotation=0.000|XOffset=0mm|YOffset=0mm|HoleType=Round|Shape=Relief|Width=0.254mm|Gap=0.254mm|Entries=4|*
%AMTHD195*
7,0,0,3.124,2.616,0.254,45*
%
%ADD195THD195*%
%ADD196C,2.600*%
%ADD197C,2.300*%
%ADD198C,4.250*%
%ADD199C,2.650*%
%ADD200C,2.150*%
%ADD201O,2.600X1.600*%
%ADD202O,3.100X1.600*%
G04:AMPARAMS|DCode=203|XSize=2.624mm|YSize=2.624mm|CornerRadius=0mm|HoleSize=0mm|Usage=FLASHONLY|Rotation=0.000|XOffset=0mm|YOffset=0mm|HoleType=Round|Shape=Relief|Width=0.254mm|Gap=0.254mm|Entries=4|*
%AMTHD203*
7,0,0,2.624,2.116,0.254,45*
%
%ADD203THD203*%
%ADD204C,2.100*%
%ADD206C,1.910*%
%ADD207C,1.700*%
%ADD210C,1.800*%
%ADD215C,1.900*%
%ADD216C,1.300*%
%ADD217C,1.406*%
%ADD219C,1.457*%
%ADD220O,1.600X3.100*%
%ADD221O,1.600X2.600*%
%ADD222C,1.305*%
D184*
X242926Y67462D02*
X243205Y67183D01*
X242926Y67462D02*
Y84658D01*
X219151Y19228D02*
X230632D01*
X219151D02*
Y30480D01*
X238925Y97841D02*
X249276D01*
Y14935D02*
Y97841D01*
X211480Y14935D02*
X249276D01*
X211480D02*
Y68097D01*
X219075D01*
X224231Y55423D02*
X227965D01*
X230632Y19228D02*
X245821D01*
X245821Y60757D02*
X245821Y19228D01*
X226085Y55423D02*
X230632D01*
X224231Y30480D02*
Y55423D01*
X232105Y67208D02*
Y84658D01*
X219151Y30480D02*
X224231D01*
X219151Y106172D02*
X219151Y30480D01*
X219151Y106172D02*
X238862D01*
Y97841D02*
Y106172D01*
Y97841D02*
X238989D01*
X241529Y37871D02*
X242672D01*
X226873Y94285D02*
X226974Y94386D01*
X232562Y97841D02*
X238989D01*
Y95860D02*
Y97841D01*
X231165Y94386D02*
X231419D01*
X229921D02*
X231165D01*
X232562Y97841D02*
Y102108D01*
X232258Y102413D02*
X232562Y102108D01*
X227533Y102413D02*
X232258D01*
X232105Y84658D02*
X242926D01*
X232105D02*
Y87859D01*
X237084D01*
Y89814D01*
X232004D02*
X237084D01*
X232004D02*
Y94386D01*
X231419D02*
X232004D01*
X226822Y102464D02*
X227533D01*
X226822Y94386D02*
Y102464D01*
Y94386D02*
X229921D01*
X242926Y84658D02*
Y91440D01*
X238989D02*
X242926D01*
X238989D02*
Y95860D01*
X227965Y67208D02*
X245821D01*
Y60757D02*
Y67208D01*
X230632Y19228D02*
Y55423D01*
X227965D02*
Y67208D01*
X35865Y35585D02*
X36830D01*
X35865Y21717D02*
Y35585D01*
Y21717D02*
X45669D01*
Y1803D02*
Y21717D01*
Y1803D02*
X61214D01*
Y35535D01*
X36830D02*
X61214D01*
X121590Y35230D02*
Y38760D01*
Y20371D02*
Y35230D01*
X102514Y20371D02*
X121590D01*
X102514Y8636D02*
Y20371D01*
Y8636D02*
X137160D01*
Y38786D01*
X121590Y38786D02*
X137160Y38786D01*
X64592Y35382D02*
X64922D01*
X64592Y28397D02*
Y35382D01*
Y28397D02*
X78359D01*
Y21082D02*
Y28397D01*
Y21082D02*
X95885D01*
Y41758D01*
X81940D02*
X95885D01*
X81940Y35560D02*
Y41758D01*
X64592Y35560D02*
X81940D01*
X75819Y94310D02*
Y96088D01*
X73711Y92202D02*
X75819Y94310D01*
X10008Y92202D02*
X73711D01*
X73635Y98273D02*
X75819Y96088D01*
X20930Y98273D02*
X73635D01*
X16180Y103022D02*
X20930Y98273D01*
X10668Y103022D02*
X16180D01*
X10389Y102743D02*
X10668Y103022D01*
X10008Y102845D02*
X10389D01*
X10008Y92202D02*
Y102845D01*
X0Y0D02*
X250114D01*
Y116180D01*
X0D02*
X250114D01*
X0Y0D02*
Y116180D01*
D192*
X134878Y103530D02*
D03*
X132378D02*
D03*
X130378D02*
D03*
X127878D02*
D03*
X4597Y105080D02*
D03*
Y97080D02*
D03*
X22276Y21742D02*
D03*
X19736Y20726D02*
D03*
X22276Y19710D02*
D03*
X19736Y18694D02*
D03*
Y14630D02*
D03*
Y16662D02*
D03*
X22276Y13614D02*
D03*
Y15646D02*
D03*
X19736Y12598D02*
D03*
Y22758D02*
D03*
X22276Y11582D02*
D03*
Y23774D02*
D03*
X103367Y103581D02*
D03*
X105867D02*
D03*
X107867D02*
D03*
X110367D02*
D03*
D193*
X137948Y106240D02*
D03*
X124808D02*
D03*
X9347Y112370D02*
D03*
X245923Y3734D02*
D03*
X246431Y112446D02*
D03*
X3734Y3454D02*
D03*
X58801Y71628D02*
D03*
X145339Y77165D02*
D03*
X100297Y106291D02*
D03*
X113437D02*
D03*
D195*
X186157Y44653D02*
D03*
D196*
X171780Y96342D02*
D03*
X178105Y86258D02*
D03*
X149047Y29464D02*
D03*
X146787Y101270D02*
D03*
X13132Y8890D02*
D03*
Y26467D02*
D03*
X219202Y53010D02*
D03*
X201727Y93751D02*
D03*
D197*
X6782Y10160D02*
D03*
X4242D02*
D03*
X9322Y25197D02*
D03*
X6782D02*
D03*
X4242D02*
D03*
X153492Y16256D02*
D03*
X156032D02*
D03*
D198*
X13132Y12852D02*
D03*
Y22504D02*
D03*
D199*
X51093Y22527D02*
D03*
X103252Y9644D02*
D03*
D200*
X51093Y2527D02*
D03*
X123252Y9644D02*
D03*
D201*
X6907Y72755D02*
D03*
Y64115D02*
D03*
X6910Y39399D02*
D03*
Y48039D02*
D03*
D202*
X1547Y63815D02*
D03*
Y73055D02*
D03*
X1550Y48339D02*
D03*
Y39099D02*
D03*
D203*
X243789Y65126D02*
D03*
D204*
X229196Y57193D02*
D03*
X226656D02*
D03*
X224116D02*
D03*
X243611Y72212D02*
D03*
Y69672D02*
D03*
X243789Y62586D02*
D03*
X243992Y58699D02*
D03*
Y56159D02*
D03*
D206*
X244715Y42689D02*
D03*
Y45229D02*
D03*
D207*
X220616Y5682D02*
D03*
X219366D02*
D03*
X227793D02*
D03*
X229043D02*
D03*
X237558D02*
D03*
X236308D02*
D03*
X213021D02*
D03*
X211771D02*
D03*
D210*
X242722Y35059D02*
D03*
Y37059D02*
D03*
D215*
X33198Y3327D02*
D03*
X30658D02*
D03*
X28118D02*
D03*
D216*
X102235Y52324D02*
D03*
X132818Y48367D02*
D03*
X82499Y114071D02*
D03*
X97257Y114122D02*
D03*
X104667D02*
D03*
X112078D02*
D03*
X126900D02*
D03*
X134311D02*
D03*
X141722D02*
D03*
X213360Y102794D02*
D03*
X214706Y91923D02*
D03*
X206451Y70587D02*
D03*
X247523Y37363D02*
D03*
Y42799D02*
D03*
X247599Y48539D02*
D03*
X247548Y52603D02*
D03*
X247599Y57607D02*
D03*
X247193Y7544D02*
D03*
X231800Y3023D02*
D03*
X232689Y11278D02*
D03*
X216687Y10947D02*
D03*
X224231Y10439D02*
D03*
X224790Y3023D02*
D03*
X218262Y3073D02*
D03*
X212776Y3124D02*
D03*
X205918Y2972D02*
D03*
X200584Y2896D02*
D03*
X194843Y2794D02*
D03*
X189027Y3073D02*
D03*
X181458Y2642D02*
D03*
X175133D02*
D03*
X154661Y2692D02*
D03*
X167996Y2794D02*
D03*
X160934Y2642D02*
D03*
X148438Y4648D02*
D03*
X162662Y4699D02*
D03*
X143586Y2184D02*
D03*
X223241Y114122D02*
D03*
X215830D02*
D03*
X208419D02*
D03*
X201008D02*
D03*
X156543D02*
D03*
X163954D02*
D03*
X171365D02*
D03*
X178776D02*
D03*
X186186D02*
D03*
X193597D02*
D03*
X194564Y104292D02*
D03*
X194107Y99797D02*
D03*
X196291Y107696D02*
D03*
X192354Y104851D02*
D03*
X191745Y103632D02*
D03*
X190144Y106020D02*
D03*
X190246Y109144D02*
D03*
X68961Y23089D02*
D03*
X68859Y26109D02*
D03*
Y24543D02*
D03*
X108001Y19736D02*
D03*
X67202Y100457D02*
D03*
X66065Y102514D02*
D03*
X62484Y48133D02*
D03*
X64110Y51333D02*
D03*
X76911Y49657D02*
D03*
X70866Y109830D02*
D03*
X190246Y101092D02*
D03*
X18534Y99088D02*
D03*
X41885Y54559D02*
D03*
X40361Y49657D02*
D03*
X78080Y43663D02*
D03*
X48997Y27381D02*
D03*
X47803Y26568D02*
D03*
X27000Y48743D02*
D03*
X15875Y42266D02*
D03*
X29667Y45517D02*
D03*
X23299Y41808D02*
D03*
X65551Y42113D02*
D03*
X66453Y42107D02*
D03*
X74752Y47935D02*
D03*
X225196Y91999D02*
D03*
X220218Y30023D02*
D03*
X20422Y96622D02*
D03*
X40132Y47523D02*
D03*
X41300Y47777D02*
D03*
X40589Y43822D02*
D03*
X77597Y110719D02*
D03*
X170621Y69198D02*
D03*
X184455Y57836D02*
D03*
X188900Y51867D02*
D03*
X187782Y53670D02*
D03*
X62789Y100559D02*
D03*
X63881D02*
D03*
X66167Y100457D02*
D03*
X64973Y102514D02*
D03*
X64262Y110465D02*
D03*
X65354D02*
D03*
X12936Y66809D02*
D03*
X21488Y5766D02*
D03*
X26512Y67392D02*
D03*
X133732Y46030D02*
D03*
X167767Y48666D02*
D03*
X166522Y49555D02*
D03*
X170205Y50343D02*
D03*
X170764Y49149D02*
D03*
X6833Y68809D02*
D03*
X6858Y68098D02*
D03*
X6884Y44181D02*
D03*
X6857Y43470D02*
D03*
X42672Y44577D02*
D03*
X43612Y44653D02*
D03*
X58268Y43180D02*
D03*
X67564Y43637D02*
D03*
X68409Y43695D02*
D03*
X65938Y44374D02*
D03*
X66543Y43552D02*
D03*
X72451Y43688D02*
D03*
X74244Y43637D02*
D03*
X73416Y43620D02*
D03*
X71680Y43752D02*
D03*
X76109Y43544D02*
D03*
X76937Y43561D02*
D03*
X80239Y43713D02*
D03*
X79045Y43663D02*
D03*
X81280Y43688D02*
D03*
X83591Y43764D02*
D03*
X72492Y47752D02*
D03*
X71298Y47854D02*
D03*
X76556Y47549D02*
D03*
X77775Y47523D02*
D03*
X79478Y47930D02*
D03*
X80950Y50470D02*
D03*
X79172Y51968D02*
D03*
X78384Y50597D02*
D03*
X76479Y51181D02*
D03*
X196139Y102489D02*
D03*
X68403Y114071D02*
D03*
X88723Y113949D02*
D03*
X89230Y113157D02*
D03*
X27026Y10693D02*
D03*
X25298Y17958D02*
D03*
X44882Y46660D02*
D03*
X130049Y34955D02*
D03*
X83972Y4369D02*
D03*
X83007Y3759D02*
D03*
X2489Y32334D02*
D03*
X12827Y38049D02*
D03*
X12818Y38770D02*
D03*
Y40513D02*
D03*
Y39666D02*
D03*
X42013Y50089D02*
D03*
X47803Y57048D02*
D03*
X3937Y67818D02*
D03*
X21650Y61586D02*
D03*
X12878Y64381D02*
D03*
Y65227D02*
D03*
X12899Y66091D02*
D03*
X4265Y68568D02*
D03*
X6871Y42759D02*
D03*
X28169Y95047D02*
D03*
X67234Y110007D02*
D03*
X73101Y110236D02*
D03*
X69748Y43713D02*
D03*
X70587D02*
D03*
X109880Y6096D02*
D03*
X110515Y6682D02*
D03*
X111501Y6071D02*
D03*
X112192Y6680D02*
D03*
X113360Y6756D02*
D03*
X114122Y6731D02*
D03*
X114529Y5867D02*
D03*
X115443Y5918D02*
D03*
X116154Y6807D02*
D03*
X117111Y6962D02*
D03*
X117907Y6426D02*
D03*
X118872D02*
D03*
X119253Y7493D02*
D03*
X120269Y7468D02*
D03*
X120752Y6502D02*
D03*
X121742Y6452D02*
D03*
X70917Y10516D02*
D03*
X69799D02*
D03*
X64541Y4394D02*
D03*
X63640D02*
D03*
X66167Y12294D02*
D03*
X66929Y12319D02*
D03*
X68859Y29242D02*
D03*
X68859Y39370D02*
D03*
X96037Y11481D02*
D03*
X96675Y12118D02*
D03*
X115011Y9779D02*
D03*
X68656Y46965D02*
D03*
X69520Y47015D02*
D03*
X68910Y34823D02*
D03*
X68858Y37948D02*
D03*
X68859Y27675D02*
D03*
X50952Y14072D02*
D03*
X68858Y36271D02*
D03*
X63500Y42570D02*
D03*
X62255Y17221D02*
D03*
X63017Y17247D02*
D03*
X61544Y26314D02*
D03*
X56846Y11527D02*
D03*
X47803Y16295D02*
D03*
X48463Y16967D02*
D03*
X48133Y14681D02*
D03*
X47904Y15467D02*
D03*
X55194Y13411D02*
D03*
X56007Y10668D02*
D03*
X49909Y43305D02*
D03*
X50902Y5131D02*
D03*
X51740Y6223D02*
D03*
X44044Y6502D02*
D03*
X42266Y7264D02*
D03*
X51638Y47904D02*
D03*
X53087Y47376D02*
D03*
X47219Y47117D02*
D03*
X35484Y41046D02*
D03*
X41377Y10846D02*
D03*
X143003Y6939D02*
D03*
X143232Y3713D02*
D03*
X135739Y56698D02*
D03*
X70105Y80980D02*
D03*
X25438Y84878D02*
D03*
X76074Y97109D02*
D03*
X55613Y46919D02*
D03*
X105157Y44049D02*
D03*
X77243Y101575D02*
D03*
X45264Y54437D02*
D03*
X38384Y98836D02*
D03*
X81699Y46704D02*
D03*
X72261Y94036D02*
D03*
X75033Y99598D02*
D03*
X74499Y64749D02*
D03*
X74581Y109123D02*
D03*
X73687Y49789D02*
D03*
X75081Y106942D02*
D03*
X73315Y92537D02*
D03*
X71832Y50449D02*
D03*
X78513Y99725D02*
D03*
X38203Y33127D02*
D03*
X47626Y8819D02*
D03*
X55703Y8527D02*
D03*
X75312Y95738D02*
D03*
X81154Y97058D02*
D03*
X27586Y50297D02*
D03*
X74115Y94061D02*
D03*
X68251Y53904D02*
D03*
X71604Y93172D02*
D03*
X74915Y91369D02*
D03*
X54813Y47835D02*
D03*
X31878Y59746D02*
D03*
X80115Y87459D02*
D03*
X223013Y59695D02*
D03*
X212879Y61803D02*
D03*
X233707Y66502D02*
D03*
X45696Y37165D02*
D03*
X228853Y60255D02*
D03*
X73102Y61346D02*
D03*
X16688Y6325D02*
D03*
X155524Y52727D02*
D03*
X172772Y84079D02*
D03*
X198806Y111430D02*
D03*
X32564Y27564D02*
D03*
X17729Y54940D02*
D03*
X20989Y102713D02*
D03*
X43028Y50063D02*
D03*
X34696Y42672D02*
D03*
X58014Y50394D02*
D03*
X62649Y51968D02*
D03*
X63551D02*
D03*
X60223Y42443D02*
D03*
X63703Y50597D02*
D03*
X62560D02*
D03*
X42136Y14983D02*
D03*
X42774Y15621D02*
D03*
X53543Y43307D02*
D03*
X41986Y13665D02*
D03*
X41885Y12675D02*
D03*
X51384Y43332D02*
D03*
X52297Y43235D02*
D03*
X100127Y38710D02*
D03*
X152093Y63194D02*
D03*
X150662D02*
D03*
X146369D02*
D03*
X144938D02*
D03*
X159433Y68274D02*
D03*
X149231Y63194D02*
D03*
X147800D02*
D03*
X143508D02*
D03*
X227037Y26967D02*
D03*
X56388Y42850D02*
D03*
X57235Y43189D02*
D03*
X59322Y43072D02*
D03*
X226706Y22801D02*
D03*
X238455Y39421D02*
D03*
X187782Y32436D02*
D03*
X187477Y35662D02*
D03*
X187427Y37668D02*
D03*
X187198Y41732D02*
D03*
X188900Y49200D02*
D03*
X233006Y40454D02*
D03*
X21970Y108664D02*
D03*
X27651Y42427D02*
D03*
X60249Y5715D02*
D03*
X109804Y19761D02*
D03*
X111506D02*
D03*
X60249Y7442D02*
D03*
X238693Y94492D02*
D03*
X239593Y96532D02*
D03*
X239143Y95002D02*
D03*
Y96022D02*
D03*
X238693Y95512D02*
D03*
X239593Y94492D02*
D03*
Y95512D02*
D03*
X165329Y47371D02*
D03*
X162966Y49124D02*
D03*
X160205Y91115D02*
D03*
X125040Y24770D02*
D03*
X165227Y50343D02*
D03*
X164211Y48184D02*
D03*
X200990Y10312D02*
D03*
X32741Y68529D02*
D03*
X27380Y101369D02*
D03*
Y103285D02*
D03*
Y105200D02*
D03*
Y97539D02*
D03*
Y99454D02*
D03*
X33503Y7798D02*
D03*
X165608Y20879D02*
D03*
X167742Y23825D02*
D03*
X234406Y90533D02*
D03*
X230977Y90635D02*
D03*
X12850Y72531D02*
D03*
Y71718D02*
D03*
Y70092D02*
D03*
Y70905D02*
D03*
X233006Y38575D02*
D03*
X138227Y52603D02*
D03*
X54661Y43002D02*
D03*
X35535Y59792D02*
D03*
X34823Y60477D02*
D03*
X31140Y21946D02*
D03*
X31778Y21308D02*
D03*
X32261Y18946D02*
D03*
X32664Y16967D02*
D03*
X31121Y15389D02*
D03*
X32027Y17605D02*
D03*
X31750Y14180D02*
D03*
X31623Y19583D02*
D03*
X62306Y92837D02*
D03*
X63500Y92913D02*
D03*
X65380Y92939D02*
D03*
X64541D02*
D03*
X12878Y46990D02*
D03*
Y47803D02*
D03*
X63805Y96368D02*
D03*
X27553Y72676D02*
D03*
X22352Y65989D02*
D03*
X58572Y93294D02*
D03*
X57506Y93218D02*
D03*
X49505Y96317D02*
D03*
X48412Y96495D02*
D03*
X22400Y74156D02*
D03*
X50295Y100155D02*
D03*
X49047Y100711D02*
D03*
X48260Y99974D02*
D03*
X56439Y92354D02*
D03*
X55448Y92583D02*
D03*
X16434Y70231D02*
D03*
X22428Y49428D02*
D03*
X56058Y100203D02*
D03*
X54966D02*
D03*
X53238Y96114D02*
D03*
X21539Y37490D02*
D03*
X12818Y41986D02*
D03*
Y41275D02*
D03*
X54331Y96114D02*
D03*
X15494Y70942D02*
D03*
X51079Y100889D02*
D03*
X51994Y99619D02*
D03*
X53086D02*
D03*
X60884Y105105D02*
D03*
X59792D02*
D03*
X64897Y96368D02*
D03*
X79731Y100736D02*
D03*
X239254Y99281D02*
D03*
X242658Y96156D02*
D03*
X12878Y46177D02*
D03*
Y45364D02*
D03*
X9576Y41859D02*
D03*
X4293Y43840D02*
D03*
X12850Y63624D02*
D03*
X9398Y66802D02*
D03*
X15875Y45263D02*
D03*
X8865Y44069D02*
D03*
X8839Y43332D02*
D03*
X8837Y68797D02*
D03*
X8811Y68060D02*
D03*
X9906Y69723D02*
D03*
X9881Y44882D02*
D03*
X12850Y62777D02*
D03*
X209815Y60114D02*
D03*
X241337Y58920D02*
D03*
X222033Y67734D02*
D03*
X227494Y63568D02*
D03*
X231126Y73855D02*
D03*
X213041Y65499D02*
D03*
X217207Y73169D02*
D03*
X225360Y60266D02*
D03*
X237832Y92270D02*
D03*
X223912Y60266D02*
D03*
X240118Y92270D02*
D03*
X47981Y112725D02*
D03*
X82804Y93548D02*
D03*
X83109Y98958D02*
D03*
X91973Y113055D02*
D03*
X90576Y113081D02*
D03*
X230516Y21531D02*
D03*
X237260Y106545D02*
D03*
X236640Y112616D02*
D03*
X242658Y97731D02*
D03*
X238162Y106545D02*
D03*
X238087Y112590D02*
D03*
X242658Y99052D02*
D03*
X234608Y112793D02*
D03*
X239254Y105072D02*
D03*
X239508Y106545D02*
D03*
X242734Y101058D02*
D03*
X237668Y95172D02*
D03*
Y95852D02*
D03*
Y96532D02*
D03*
X236968Y94492D02*
D03*
X237668D02*
D03*
X236968Y95852D02*
D03*
Y96532D02*
D03*
Y95172D02*
D03*
X236268D02*
D03*
Y96532D02*
D03*
Y95852D02*
D03*
X235568D02*
D03*
Y95172D02*
D03*
Y96532D02*
D03*
X236268Y94492D02*
D03*
X235568D02*
D03*
X239143Y96022D02*
D03*
Y95002D02*
D03*
X239593Y95512D02*
D03*
X238693D02*
D03*
Y96532D02*
D03*
X239593D02*
D03*
X238693Y94492D02*
D03*
X239593D02*
D03*
D217*
X44120Y2184D02*
D03*
X14072Y76962D02*
D03*
X65202Y25305D02*
D03*
X74168Y47066D02*
D03*
X14503Y41935D02*
D03*
X80594Y44679D02*
D03*
X79756Y49809D02*
D03*
X43256Y46660D02*
D03*
X50724Y46482D02*
D03*
X56794Y47117D02*
D03*
X168656Y43459D02*
D03*
X124253Y26091D02*
D03*
X126361Y14737D02*
D03*
X135277Y27488D02*
D03*
X138350Y33711D02*
D03*
X135531Y36759D02*
D03*
X135331Y99111D02*
D03*
X120345Y97942D02*
D03*
X198069Y99593D02*
D03*
X39607Y38984D02*
D03*
X39548Y55250D02*
D03*
X9144Y64465D02*
D03*
X28981Y22454D02*
D03*
X28854Y12954D02*
D03*
X183177Y41948D02*
D03*
X236169Y99009D02*
D03*
X241376Y61976D02*
D03*
X233553Y49505D02*
D03*
X137998Y27508D02*
D03*
X12649Y109449D02*
D03*
X4699Y109601D02*
D03*
X18999Y90297D02*
D03*
X13564Y90475D02*
D03*
X8280Y90551D02*
D03*
X3352Y90605D02*
D03*
X15518Y109477D02*
D03*
X22402Y92332D02*
D03*
X158356Y94437D02*
D03*
X187808Y95988D02*
D03*
X191008Y76530D02*
D03*
X171785Y74956D02*
D03*
X178285Y72456D02*
D03*
X191785Y62456D02*
D03*
Y64456D02*
D03*
X177535Y60706D02*
D03*
X170285Y62206D02*
D03*
X180035Y60706D02*
D03*
X187376Y56439D02*
D03*
X168035Y71956D02*
D03*
X184480Y106832D02*
D03*
X201727Y101803D02*
D03*
X181840Y20173D02*
D03*
X39878Y2159D02*
D03*
X57122D02*
D03*
X62869D02*
D03*
X68617D02*
D03*
X74365D02*
D03*
X80113D02*
D03*
X85861D02*
D03*
X204013Y8204D02*
D03*
X238277Y2591D02*
D03*
X241402Y7417D02*
D03*
X223469Y23978D02*
D03*
X227330Y21184D02*
D03*
X226238Y38125D02*
D03*
X220751Y38024D02*
D03*
X247498Y78105D02*
D03*
Y83007D02*
D03*
Y87909D02*
D03*
X247599Y107518D02*
D03*
X186715Y93015D02*
D03*
X180950Y107874D02*
D03*
X133883Y107772D02*
D03*
X129007D02*
D03*
X108636Y108179D02*
D03*
X104750Y108153D02*
D03*
X145237Y97866D02*
D03*
X158775Y105943D02*
D03*
X78363Y37103D02*
D03*
X85954Y46787D02*
D03*
X217932Y46812D02*
D03*
X73254Y106934D02*
D03*
X83515Y32410D02*
D03*
X123876Y22860D02*
D03*
X150520Y16002D02*
D03*
X5442Y36113D02*
D03*
X9119Y36378D02*
D03*
X24613D02*
D03*
X6477Y33350D02*
D03*
X3124Y46558D02*
D03*
X3505Y40843D02*
D03*
X16789Y43790D02*
D03*
X16358Y66294D02*
D03*
X66015Y31064D02*
D03*
X100514Y24324D02*
D03*
X65202Y36576D02*
D03*
Y35433D02*
D03*
Y29758D02*
D03*
X88265Y41230D02*
D03*
X90373Y36074D02*
D03*
X95098Y31147D02*
D03*
X88015Y31820D02*
D03*
X78308Y31070D02*
D03*
X90094Y28784D02*
D03*
X78059Y23946D02*
D03*
X96520Y22485D02*
D03*
X55626Y7468D02*
D03*
X59436Y27381D02*
D03*
X43180Y41986D02*
D03*
X17475Y59639D02*
D03*
X38659Y36728D02*
D03*
X56032Y50292D02*
D03*
X45110Y39573D02*
D03*
X37998Y62687D02*
D03*
X27407Y107188D02*
D03*
X58952Y97814D02*
D03*
X37262Y63449D02*
D03*
X15113Y48362D02*
D03*
X19660Y48616D02*
D03*
X27635Y55067D02*
D03*
X27915Y59639D02*
D03*
X25324Y49352D02*
D03*
X17702Y62979D02*
D03*
X19603Y72585D02*
D03*
X46126Y96164D02*
D03*
X28826Y62335D02*
D03*
X16516Y73177D02*
D03*
X17729Y37465D02*
D03*
X16078Y80874D02*
D03*
X17856Y39752D02*
D03*
X51486Y96469D02*
D03*
X20275Y76386D02*
D03*
X20905Y79171D02*
D03*
X26875Y81939D02*
D03*
X25293Y74083D02*
D03*
X40056Y96520D02*
D03*
X201891Y53738D02*
D03*
X212305Y15080D02*
D03*
X221144Y46220D02*
D03*
X220382Y16451D02*
D03*
X221144Y45204D02*
D03*
Y44188D02*
D03*
X228586Y16451D02*
D03*
X221144Y43172D02*
D03*
X237197Y16451D02*
D03*
X221144Y42156D02*
D03*
X245121Y15105D02*
D03*
X158521Y37897D02*
D03*
X165684Y23495D02*
D03*
X15850Y53035D02*
D03*
X188180Y10414D02*
D03*
X161341Y10338D02*
D03*
X110668Y94539D02*
D03*
X110871Y98552D02*
D03*
X143478Y53359D02*
D03*
X135153Y94234D02*
D03*
X147267Y53288D02*
D03*
X187503Y50343D02*
D03*
X145491Y25552D02*
D03*
X149654Y53389D02*
D03*
X188468Y40361D02*
D03*
X159967Y53643D02*
D03*
X188620Y34417D02*
D03*
X207250Y31513D02*
D03*
X220737Y27678D02*
D03*
X19456Y6401D02*
D03*
X15951Y22936D02*
D03*
X8839Y39472D02*
D03*
X8763Y47574D02*
D03*
X103105Y2159D02*
D03*
X91609D02*
D03*
X97357D02*
D03*
X108852D02*
D03*
X114600D02*
D03*
X124511Y19787D02*
D03*
X64389Y47092D02*
D03*
X3962Y57150D02*
D03*
X8357Y55880D02*
D03*
X10135Y60173D02*
D03*
X17363Y56402D02*
D03*
X22276Y51537D02*
D03*
X22250Y53706D02*
D03*
X2334Y82284D02*
D03*
X8735Y72302D02*
D03*
X8255Y80696D02*
D03*
X10287Y84887D02*
D03*
X25324Y61062D02*
D03*
X125171Y53899D02*
D03*
X125425Y58014D02*
D03*
X39675Y109220D02*
D03*
X51816Y111404D02*
D03*
X60757Y110211D02*
D03*
X57887Y110287D02*
D03*
X83058Y108737D02*
D03*
X101727Y100965D02*
D03*
X118085Y102972D02*
D03*
X80035Y110185D02*
D03*
X84684Y108839D02*
D03*
X84760Y110642D02*
D03*
X137947Y13386D02*
D03*
X156048Y6745D02*
D03*
X153382Y9411D02*
D03*
X137795Y19228D02*
D03*
X141681Y23520D02*
D03*
X156261Y29921D02*
D03*
X159868Y4851D02*
D03*
X173126Y4674D02*
D03*
X169366Y6745D02*
D03*
X166700Y9411D02*
D03*
X180018D02*
D03*
X176479Y17501D02*
D03*
X160884Y26772D02*
D03*
X161595Y32360D02*
D03*
X180721Y31852D02*
D03*
X149428Y39192D02*
D03*
X140843Y49174D02*
D03*
X158767Y46825D02*
D03*
X161765Y39865D02*
D03*
X136144Y53975D02*
D03*
X127813Y62687D02*
D03*
X144727Y57936D02*
D03*
X150848Y58063D02*
D03*
X156741Y58520D02*
D03*
X173126Y33426D02*
D03*
X180746Y36373D02*
D03*
X169012Y55956D02*
D03*
X180696Y48108D02*
D03*
Y52527D02*
D03*
X186563Y4674D02*
D03*
X182474Y6909D02*
D03*
X195707Y7061D02*
D03*
X193336Y9411D02*
D03*
X199974Y4674D02*
D03*
X207504Y4894D02*
D03*
X206513Y20845D02*
D03*
X212700Y20828D02*
D03*
X216789Y20980D02*
D03*
X204888Y31386D02*
D03*
X227011Y30218D02*
D03*
X230542Y24274D02*
D03*
X233909Y27788D02*
D03*
X242418Y10871D02*
D03*
X242265Y13005D02*
D03*
X248107Y31471D02*
D03*
X237197Y32987D02*
D03*
X197623Y38651D02*
D03*
X221677Y39794D02*
D03*
X198741Y47134D02*
D03*
X199568Y53340D02*
D03*
X210628Y55262D02*
D03*
X220560Y59860D02*
D03*
X239116Y35128D02*
D03*
X240995Y41910D02*
D03*
X246329Y40132D02*
D03*
X223342Y53264D02*
D03*
X240462Y45415D02*
D03*
X237617Y63348D02*
D03*
X154393Y64668D02*
D03*
X162205Y80365D02*
D03*
X168705Y77615D02*
D03*
X201384Y22720D02*
D03*
X194539Y22784D02*
D03*
X213956Y67912D02*
D03*
X213803Y75786D02*
D03*
X202209Y106045D02*
D03*
X200965Y108941D02*
D03*
X149455Y89865D02*
D03*
X141300Y94209D02*
D03*
X126289Y100711D02*
D03*
X162705Y91865D02*
D03*
X166746Y100254D02*
D03*
X143027Y102464D02*
D03*
X153080Y105055D02*
D03*
X164485Y105969D02*
D03*
X194935Y50684D02*
D03*
X222606Y71044D02*
D03*
X223887Y64305D02*
D03*
X225298Y71374D02*
D03*
X184353Y99441D02*
D03*
X229235Y86385D02*
D03*
X235585Y75971D02*
D03*
X238187Y71823D02*
D03*
X241351Y68478D02*
D03*
X241148Y78715D02*
D03*
X241275Y93040D02*
D03*
X242073Y80993D02*
D03*
X247498Y92812D02*
D03*
Y97714D02*
D03*
X229591Y102845D02*
D03*
X228016Y107721D02*
D03*
X228146Y111915D02*
D03*
X233971Y107225D02*
D03*
X247523Y102616D02*
D03*
X241464Y104310D02*
D03*
X241681Y106959D02*
D03*
X174727Y10262D02*
D03*
X173455Y80615D02*
D03*
X17729Y86131D02*
D03*
X145870Y51865D02*
D03*
X152220Y51967D02*
D03*
X158062Y52043D02*
D03*
X84049Y101727D02*
D03*
X150744Y100533D02*
D03*
X92659Y101321D02*
D03*
X78080Y96444D02*
D03*
X61951Y96209D02*
D03*
D219*
X247498Y63398D02*
D03*
Y68301D02*
D03*
Y73203D02*
D03*
D220*
X241974Y114724D02*
D03*
X232734D02*
D03*
D221*
X241674Y109364D02*
D03*
X233034D02*
D03*
D222*
X1702Y47066D02*
D03*
Y40742D02*
D03*
X2337Y71120D02*
D03*
X1905Y58903D02*
D03*
X2235Y65888D02*
D03*
X6858Y62941D02*
D03*
X6299Y60147D02*
D03*
X49581Y2464D02*
D03*
X137592Y2159D02*
D03*
X120348D02*
D03*
X126096D02*
D03*
X119591Y114021D02*
D03*
X131844Y2159D02*
D03*
X149234Y114021D02*
D03*
M02*
