G04*
G04 #@! TF.GenerationSoftware,Altium Limited,Altium Designer,25.1.2 (22)*
G04*
G04 Layer_Physical_Order=6*
G04 Layer_Color=65535*
%FSLAX43Y43*%
%MOMM*%
G71*
G04*
G04 #@! TF.SameCoordinates,40D48374-329B-4D39-B51B-D84B34E4F720*
G04*
G04*
G04 #@! TF.FilePolarity,Positive*
G04*
G01*
G75*
%ADD10C,0.254*%
%ADD17C,0.152*%
%ADD139C,3.700*%
%ADD141C,2.400*%
%ADD151C,1.600*%
%ADD153C,1.416*%
%ADD155C,1.100*%
%ADD157C,1.300*%
%ADD161R,1.950X1.950*%
%ADD164C,0.457*%
%ADD165C,0.610*%
%ADD166C,0.813*%
%ADD167C,0.600*%
%ADD168C,0.165*%
%ADD188O,1.100X3.600*%
%ADD189O,1.100X2.100*%
%ADD190C,0.800*%
%ADD218C,0.199*%
%ADD223C,0.143*%
G36*
X248833Y1281D02*
X179724D01*
X179670Y1374D01*
X179650Y1481D01*
X187998Y9829D01*
X188059Y9804D01*
X188301D01*
X188525Y9897D01*
X188697Y10069D01*
X188790Y10293D01*
Y10535D01*
X188697Y10759D01*
X188525Y10931D01*
X188301Y11024D01*
X188059D01*
X187835Y10931D01*
X187663Y10759D01*
X187571Y10535D01*
Y10293D01*
X187596Y10232D01*
X179304Y1941D01*
X117975D01*
X116763Y3153D01*
X116671Y3215D01*
X116562Y3236D01*
X116562Y3236D01*
X84643D01*
X84567Y3421D01*
X105359Y24213D01*
X105359Y24213D01*
X105420Y24305D01*
X105442Y24414D01*
Y43723D01*
X105523Y43804D01*
X105589Y43963D01*
Y44134D01*
X105523Y44293D01*
X105402Y44415D01*
X105243Y44480D01*
X105071D01*
X104913Y44415D01*
X104791Y44293D01*
X104725Y44134D01*
Y43963D01*
X104791Y43804D01*
X104872Y43723D01*
Y24532D01*
X84591Y4251D01*
X84404Y4347D01*
Y4455D01*
X84338Y4613D01*
X84217Y4735D01*
X84058Y4801D01*
X83887D01*
X83728Y4735D01*
X83682Y4689D01*
X83656D01*
X83343Y5002D01*
X83243Y5069D01*
X83125Y5092D01*
X70877D01*
Y10040D01*
X70921Y10084D01*
X71003D01*
X71161Y10150D01*
X71283Y10271D01*
X71349Y10430D01*
Y10601D01*
X71283Y10760D01*
X71161Y10882D01*
X71003Y10947D01*
X70831D01*
X70672Y10882D01*
X70551Y10760D01*
X70501Y10639D01*
X70358Y10581D01*
X70215Y10639D01*
X70165Y10760D01*
X70044Y10882D01*
X69885Y10947D01*
X69713D01*
X69555Y10882D01*
X69433Y10760D01*
X69367Y10601D01*
Y10430D01*
X69433Y10271D01*
X69555Y10150D01*
X69713Y10084D01*
X69795D01*
X69839Y10040D01*
Y4725D01*
X69862Y4607D01*
X69929Y4507D01*
X70292Y4144D01*
X70393Y4077D01*
X70511Y4054D01*
X70511Y4054D01*
X82445D01*
X82579Y3854D01*
X82575Y3845D01*
Y3673D01*
X82501Y3561D01*
X56713D01*
X56673Y3761D01*
X56708Y3776D01*
X56879Y3947D01*
X56972Y4171D01*
Y4414D01*
X56879Y4638D01*
X56708Y4809D01*
X56484Y4902D01*
X56241D01*
X56017Y4809D01*
X55846Y4638D01*
X55753Y4414D01*
Y4171D01*
X55761Y4151D01*
X55592Y4038D01*
X55048Y4581D01*
Y12863D01*
X55165Y12979D01*
X55280D01*
X55392Y12905D01*
Y11092D01*
X55392Y11092D01*
X55414Y10983D01*
X55475Y10891D01*
X55586Y10780D01*
X55575Y10754D01*
Y10582D01*
X55641Y10423D01*
X55762Y10302D01*
X55921Y10236D01*
X56093D01*
X56252Y10302D01*
X56373Y10423D01*
X56439Y10582D01*
Y10754D01*
X56373Y10913D01*
X56252Y11034D01*
X56093Y11100D01*
X56072D01*
X55962Y11210D01*
Y22556D01*
X56162Y22596D01*
X56227Y22438D01*
X56398Y22267D01*
X56622Y22174D01*
X56865D01*
X57089Y22267D01*
X57260Y22438D01*
X57353Y22663D01*
Y22905D01*
X57260Y23129D01*
X57089Y23301D01*
X56865Y23393D01*
X56622D01*
X56398Y23301D01*
X56227Y23129D01*
X56162Y22972D01*
X55962Y23012D01*
Y30311D01*
X65175Y39524D01*
X65175Y39524D01*
X65236Y39617D01*
X65258Y39726D01*
X65258Y39726D01*
Y41402D01*
X65424Y41513D01*
X65431Y41510D01*
X65671D01*
X65893Y41602D01*
X65999Y41708D01*
X66111Y41596D01*
X66333Y41504D01*
X66573D01*
X66749Y41577D01*
X66894Y41435D01*
X66894Y41435D01*
X66873Y41326D01*
X66873Y41326D01*
Y33284D01*
X66673Y33244D01*
X66633Y33340D01*
X66462Y33511D01*
X66237Y33604D01*
X65995D01*
X65771Y33511D01*
X65599Y33340D01*
X65507Y33116D01*
Y32873D01*
X65599Y32649D01*
X65771Y32478D01*
X65995Y32385D01*
X66237D01*
X66462Y32478D01*
X66633Y32649D01*
X66673Y32745D01*
X66873Y32705D01*
Y18478D01*
X57207Y8812D01*
X56029D01*
X55948Y8893D01*
X55789Y8959D01*
X55618D01*
X55459Y8893D01*
X55337Y8771D01*
X55272Y8613D01*
Y8441D01*
X55337Y8282D01*
X55459Y8161D01*
X55618Y8095D01*
X55789D01*
X55948Y8161D01*
X56029Y8242D01*
X57325D01*
X57325Y8242D01*
X57434Y8264D01*
X57526Y8325D01*
X67359Y18158D01*
X67421Y18251D01*
X67442Y18360D01*
X67442Y18360D01*
Y41208D01*
X69155Y42921D01*
X72651D01*
X72651Y42921D01*
X72760Y42942D01*
X72853Y43004D01*
X72997Y43148D01*
X73172Y43254D01*
X73331Y43188D01*
X73502D01*
X73661Y43254D01*
X73708Y43301D01*
X73819Y43361D01*
X73969Y43302D01*
X74000Y43271D01*
X74158Y43205D01*
X74330D01*
X74489Y43271D01*
X74610Y43393D01*
X74676Y43551D01*
Y43723D01*
X74610Y43882D01*
X74489Y44003D01*
X74330Y44069D01*
X74158D01*
X74000Y44003D01*
X73952Y43956D01*
X73892Y43923D01*
X73693Y44006D01*
X73656Y44139D01*
X76072Y46556D01*
X76072Y46556D01*
X76134Y46648D01*
X76153Y46743D01*
X76527Y47117D01*
X76641D01*
X76800Y47183D01*
X76922Y47304D01*
X76987Y47463D01*
Y47625D01*
X77014Y47649D01*
X77164Y47732D01*
X77343Y47552D01*
Y47438D01*
X77409Y47279D01*
X77530Y47157D01*
X77689Y47092D01*
X77861D01*
X78019Y47157D01*
X78141Y47279D01*
X78207Y47438D01*
Y47580D01*
X78284Y47638D01*
X78391Y47679D01*
X80995Y45075D01*
Y44014D01*
X80914Y43933D01*
X80865Y43813D01*
X80748Y43805D01*
X80663Y43816D01*
X80605Y43958D01*
X80483Y44079D01*
X80324Y44145D01*
X80153D01*
X79994Y44079D01*
X79873Y43958D01*
X79807Y43799D01*
Y43628D01*
X79873Y43469D01*
X79994Y43347D01*
X80153Y43282D01*
X80324D01*
X80483Y43347D01*
X80605Y43469D01*
X80654Y43588D01*
X80771Y43596D01*
X80855Y43585D01*
X80914Y43443D01*
X81035Y43322D01*
X81194Y43256D01*
X81366D01*
X81525Y43322D01*
X81646Y43443D01*
X81712Y43602D01*
Y43774D01*
X81646Y43933D01*
X81565Y44014D01*
Y45193D01*
X81543Y45302D01*
X81481Y45394D01*
X81481Y45394D01*
X79574Y47302D01*
X79572Y47341D01*
X79632Y47526D01*
X79722Y47564D01*
X79844Y47685D01*
X79910Y47844D01*
Y48016D01*
X79844Y48174D01*
X79722Y48296D01*
X79564Y48362D01*
X79392D01*
X79233Y48296D01*
X79112Y48174D01*
X79074Y48084D01*
X78889Y48024D01*
X78850Y48026D01*
X77500Y49376D01*
X77407Y49438D01*
X77298Y49459D01*
X77298Y49459D01*
X74229D01*
X74100Y49659D01*
X74118Y49703D01*
Y49875D01*
X74053Y50034D01*
X73931Y50155D01*
X73772Y50221D01*
X73658D01*
X73565Y50313D01*
Y53955D01*
X73565Y53955D01*
X73543Y54064D01*
X73482Y54156D01*
X73482Y54156D01*
X72295Y55343D01*
Y80253D01*
X79483Y87440D01*
X79683Y87373D01*
X79749Y87214D01*
X79870Y87093D01*
X80029Y87027D01*
X80200D01*
X80359Y87093D01*
X80481Y87214D01*
X80546Y87373D01*
Y87545D01*
X80481Y87704D01*
X80359Y87825D01*
X80200Y87891D01*
X80133Y88091D01*
X84453Y92411D01*
X84453Y92411D01*
X84515Y92503D01*
X84537Y92612D01*
X84537Y92612D01*
Y96215D01*
X84537Y96215D01*
X84515Y96324D01*
X84453Y96417D01*
X82582Y98288D01*
Y98613D01*
X82598Y98623D01*
X82782Y98674D01*
X82864Y98592D01*
X83023Y98527D01*
X83195D01*
X83353Y98592D01*
X83475Y98714D01*
X83541Y98873D01*
Y99044D01*
X83475Y99203D01*
X83353Y99324D01*
X83195Y99390D01*
X83023D01*
X82864Y99324D01*
X82782Y99242D01*
X82598Y99294D01*
X82582Y99304D01*
Y99725D01*
X82582Y99725D01*
X82560Y99834D01*
X82499Y99927D01*
X75513Y106913D01*
Y107027D01*
X75447Y107186D01*
X75326Y107308D01*
X75167Y107373D01*
X74995D01*
X74836Y107308D01*
X74715Y107186D01*
X74649Y107027D01*
Y106856D01*
X74715Y106697D01*
X74836Y106576D01*
X74995Y106510D01*
X75110D01*
X82012Y99607D01*
Y98170D01*
X82012Y98170D01*
X82034Y98061D01*
X82096Y97968D01*
X83967Y96097D01*
Y92730D01*
X71809Y80572D01*
X71747Y80480D01*
X71725Y80371D01*
X71725Y80371D01*
Y55225D01*
X71725Y55225D01*
X71747Y55116D01*
X71809Y55023D01*
X72995Y53837D01*
Y52375D01*
X72795Y52302D01*
X67875Y57222D01*
Y92258D01*
X67875Y92258D01*
X67854Y92367D01*
X67792Y92459D01*
X66197Y94054D01*
X66104Y94116D01*
X65995Y94138D01*
X65995Y94138D01*
X60220D01*
X60220Y94138D01*
X60111Y94116D01*
X60018Y94054D01*
X59204Y93240D01*
X59004Y93323D01*
Y93380D01*
X58938Y93539D01*
X58817Y93660D01*
X58658Y93726D01*
X58486D01*
X58328Y93660D01*
X58206Y93539D01*
X58141Y93380D01*
Y93208D01*
X58206Y93050D01*
X58328Y92928D01*
X58486Y92862D01*
X58543D01*
X58626Y92662D01*
X34817Y68853D01*
X33028D01*
X32985Y68895D01*
X32826Y68961D01*
X32655D01*
X32496Y68895D01*
X32375Y68774D01*
X32309Y68615D01*
Y68443D01*
X32375Y68285D01*
X32496Y68163D01*
X32655Y68097D01*
X32826D01*
X32985Y68163D01*
X33105Y68283D01*
X34935D01*
X34935Y68283D01*
X35044Y68305D01*
X35136Y68367D01*
X60338Y93568D01*
X64450D01*
X64455Y93370D01*
X64297Y93305D01*
X64175Y93183D01*
X64117Y93041D01*
X64032Y93030D01*
X63915Y93039D01*
X63866Y93158D01*
X63745Y93279D01*
X63586Y93345D01*
X63414D01*
X63255Y93279D01*
X63134Y93158D01*
X63068Y92999D01*
Y92827D01*
X63134Y92669D01*
X63255Y92547D01*
X63414Y92481D01*
X63586D01*
X63745Y92547D01*
X63866Y92669D01*
X63925Y92810D01*
X64009Y92822D01*
X64126Y92813D01*
X64175Y92694D01*
X64205Y92665D01*
Y85153D01*
X27606Y48555D01*
X27451Y48646D01*
X27432Y48663D01*
Y48829D01*
X27366Y48987D01*
X27245Y49109D01*
X27086Y49174D01*
X26914D01*
X26756Y49109D01*
X26634Y48987D01*
X26568Y48829D01*
Y48657D01*
X26634Y48498D01*
X26756Y48377D01*
X26914Y48311D01*
X27079D01*
X27097Y48292D01*
X27188Y48137D01*
X20689Y41637D01*
X15969D01*
X15961Y41834D01*
X15983Y41843D01*
X16120Y41900D01*
X16241Y42021D01*
X16307Y42180D01*
Y42351D01*
X16241Y42510D01*
X16120Y42632D01*
X15961Y42697D01*
X15789D01*
X15630Y42632D01*
X15509Y42510D01*
X15443Y42351D01*
Y42180D01*
X15509Y42021D01*
X15630Y41900D01*
X15767Y41843D01*
X15789Y41834D01*
X15781Y41637D01*
X13686D01*
X13249Y42075D01*
X13184Y42231D01*
X13062Y42352D01*
X12904Y42418D01*
X12732D01*
X12573Y42352D01*
X12452Y42231D01*
X12386Y42072D01*
Y41900D01*
X12452Y41742D01*
X12563Y41631D01*
X12452Y41520D01*
X12386Y41361D01*
Y41189D01*
X12452Y41030D01*
X12458Y41025D01*
X12561Y40894D01*
X12458Y40763D01*
X12452Y40758D01*
X12386Y40599D01*
Y40427D01*
X12452Y40268D01*
X12501Y40219D01*
X12551Y40090D01*
X12501Y39960D01*
X12452Y39911D01*
X12386Y39752D01*
Y39580D01*
X12452Y39422D01*
X12536Y39337D01*
X12558Y39218D01*
X12536Y39099D01*
X12452Y39015D01*
X12386Y38856D01*
Y38684D01*
X12452Y38526D01*
X12572Y38405D01*
X12461Y38294D01*
X12395Y38135D01*
Y37963D01*
X12461Y37805D01*
X12582Y37683D01*
X12741Y37617D01*
X12913D01*
X13072Y37683D01*
X13193Y37805D01*
X13259Y37963D01*
Y38135D01*
X13193Y38294D01*
X13073Y38414D01*
X13184Y38526D01*
X13250Y38684D01*
Y38856D01*
X13184Y39015D01*
X13100Y39099D01*
X13078Y39218D01*
X13100Y39337D01*
X13184Y39422D01*
X13250Y39580D01*
Y39752D01*
X13184Y39911D01*
X13135Y39960D01*
X13085Y40090D01*
X13135Y40219D01*
X13184Y40268D01*
X13349Y40304D01*
X13478Y40278D01*
X23520D01*
X23649Y40304D01*
X23758Y40377D01*
X29051Y45669D01*
X29148Y45634D01*
X29235Y45571D01*
Y45431D01*
X29301Y45272D01*
X29423Y45151D01*
X29581Y45085D01*
X29753D01*
X29912Y45151D01*
X30033Y45272D01*
X30099Y45431D01*
Y45603D01*
X30033Y45761D01*
X29912Y45883D01*
X29753Y45949D01*
X29613D01*
X29550Y46036D01*
X29515Y46133D01*
X38738Y55356D01*
X38938Y55273D01*
Y55129D01*
X39031Y54905D01*
X39202Y54733D01*
X39427Y54640D01*
X39669D01*
X39893Y54733D01*
X40065Y54905D01*
X40157Y55129D01*
Y55371D01*
X40065Y55595D01*
X39893Y55767D01*
X39669Y55860D01*
X39524D01*
X39441Y56060D01*
X65618Y82236D01*
X65691Y82345D01*
X65716Y82474D01*
Y92665D01*
X65746Y92694D01*
X65811Y92853D01*
Y93025D01*
X65746Y93183D01*
X65624Y93305D01*
X65465Y93370D01*
X65471Y93568D01*
X65877D01*
X67306Y92140D01*
Y57104D01*
X67306Y57104D01*
X67327Y56995D01*
X67389Y56903D01*
X72360Y51932D01*
Y50793D01*
X72339Y50780D01*
X72160Y50732D01*
X72077Y50815D01*
X71918Y50881D01*
X71747D01*
X71588Y50815D01*
X71466Y50694D01*
X71401Y50535D01*
Y50364D01*
X71466Y50205D01*
X71588Y50083D01*
X71747Y50018D01*
X71918D01*
X72077Y50083D01*
X72160Y50167D01*
X72339Y50119D01*
X72360Y50105D01*
Y49713D01*
X72360Y49713D01*
X72382Y49604D01*
X72444Y49511D01*
X72777Y49178D01*
X72700Y48994D01*
X66891D01*
X66891Y48994D01*
X66782Y48972D01*
X66690Y48910D01*
X63934Y46154D01*
X63872Y46061D01*
X63850Y45952D01*
X63850Y45952D01*
Y43092D01*
X63650Y42976D01*
X63586Y43002D01*
X63414D01*
X63255Y42936D01*
X63134Y42815D01*
X63068Y42656D01*
Y42485D01*
X63134Y42326D01*
X63255Y42204D01*
X63414Y42139D01*
X63586D01*
X63650Y42165D01*
X63850Y42049D01*
Y41244D01*
X61507Y38901D01*
X61322Y38978D01*
Y50748D01*
X61322Y50748D01*
X61301Y50857D01*
X61239Y50949D01*
X60674Y51514D01*
X60581Y51576D01*
X60472Y51598D01*
X60472Y51598D01*
X57456D01*
X57456Y51598D01*
X57347Y51576D01*
X57255Y51514D01*
X56696Y50956D01*
X56634Y50863D01*
X56629Y50840D01*
X56430Y50767D01*
X56418Y50768D01*
X56378Y50809D01*
X56154Y50902D01*
X55911D01*
X55687Y50809D01*
X55516Y50637D01*
X55423Y50413D01*
Y50171D01*
X55516Y49947D01*
X55687Y49775D01*
X55911Y49682D01*
X56154D01*
X56378Y49775D01*
X56412Y49810D01*
X56612Y49727D01*
Y48321D01*
X55642Y47351D01*
X55527D01*
X55368Y47285D01*
X55247Y47163D01*
X55181Y47005D01*
Y46833D01*
X55247Y46674D01*
X55368Y46553D01*
X55527Y46487D01*
X55699D01*
X55858Y46553D01*
X55979Y46674D01*
X56045Y46833D01*
Y46948D01*
X57099Y48002D01*
X57099Y48002D01*
X57160Y48094D01*
X57182Y48203D01*
Y50636D01*
X57574Y51028D01*
X60354D01*
X60753Y50630D01*
Y42786D01*
X60726Y42770D01*
X60553Y42725D01*
X60468Y42809D01*
X60309Y42875D01*
X60137D01*
X59979Y42809D01*
X59896Y42827D01*
X59754Y42986D01*
Y43158D01*
X59688Y43317D01*
X59566Y43438D01*
X59408Y43504D01*
X59236D01*
X59077Y43438D01*
X58956Y43317D01*
X58926Y43245D01*
X58922Y43236D01*
X58709Y43244D01*
X58699Y43266D01*
X58692Y43284D01*
X58634Y43425D01*
X58559Y43499D01*
Y50019D01*
X58537Y50131D01*
X58474Y50225D01*
X58430Y50270D01*
X58445Y50308D01*
Y50480D01*
X58380Y50638D01*
X58258Y50760D01*
X58099Y50825D01*
X57928D01*
X57769Y50760D01*
X57648Y50638D01*
X57582Y50480D01*
Y50308D01*
X57648Y50149D01*
X57769Y50028D01*
X57903Y49972D01*
X57976Y49899D01*
Y43499D01*
X57902Y43425D01*
X57853Y43307D01*
X57835Y43304D01*
X57651Y43312D01*
X57601Y43433D01*
X57479Y43555D01*
X57321Y43620D01*
X57149D01*
X56990Y43555D01*
X56869Y43433D01*
X56819Y43313D01*
X56699Y43250D01*
X56603Y43228D01*
X56474Y43282D01*
X56302D01*
X56143Y43216D01*
X56022Y43094D01*
X55956Y42936D01*
Y42764D01*
X56022Y42605D01*
X56143Y42484D01*
X56206Y42458D01*
X56320Y42343D01*
Y41936D01*
X54506Y40122D01*
X54306Y40205D01*
Y42251D01*
X54625Y42570D01*
X54747D01*
X54905Y42636D01*
X55027Y42758D01*
X55093Y42916D01*
Y43088D01*
X55027Y43247D01*
X54905Y43368D01*
X54747Y43434D01*
X54575D01*
X54416Y43368D01*
X54295Y43247D01*
X54229Y43088D01*
Y42967D01*
X54103Y42840D01*
X53891Y42912D01*
X53876Y43029D01*
X53909Y43062D01*
X53975Y43221D01*
Y43393D01*
X53909Y43552D01*
X53788Y43673D01*
X53629Y43739D01*
X53457D01*
X53299Y43673D01*
X53177Y43552D01*
X53111Y43393D01*
Y43221D01*
X53177Y43062D01*
X53263Y42977D01*
Y40125D01*
X38670Y25532D01*
X38500Y25645D01*
X38506Y25660D01*
Y25902D01*
X38414Y26126D01*
X38242Y26298D01*
X38018Y26391D01*
X37776D01*
X37551Y26298D01*
X37380Y26126D01*
X37287Y25902D01*
Y25660D01*
X37380Y25436D01*
X37551Y25264D01*
X37776Y25171D01*
X38018D01*
X38033Y25177D01*
X38146Y25008D01*
X33002Y19864D01*
X31953D01*
X31868Y19949D01*
X31709Y20015D01*
X31537D01*
X31378Y19949D01*
X31257Y19828D01*
X31191Y19669D01*
Y19498D01*
X31257Y19339D01*
X31378Y19217D01*
X31537Y19152D01*
X31662D01*
X31759Y19082D01*
X31829Y18985D01*
Y18860D01*
X31894Y18701D01*
X32016Y18580D01*
X32175Y18514D01*
X32346D01*
X32505Y18580D01*
X32582Y18657D01*
X32779Y18637D01*
X32850Y18466D01*
X32314Y17930D01*
X32312D01*
X32271Y17971D01*
X32113Y18037D01*
X31941D01*
X31782Y17971D01*
X31661Y17849D01*
X31595Y17691D01*
Y17519D01*
X31661Y17360D01*
X31782Y17239D01*
X31941Y17173D01*
X32066D01*
X32163Y17103D01*
X32233Y17006D01*
Y16881D01*
X32298Y16723D01*
X32420Y16601D01*
X32578Y16535D01*
X32750D01*
X32909Y16601D01*
X33030Y16723D01*
X33096Y16881D01*
Y17053D01*
X33030Y17212D01*
X32990Y17253D01*
Y17254D01*
X57194Y41458D01*
X57194Y41458D01*
X57255Y41549D01*
X57276Y41657D01*
X57276Y41657D01*
Y42660D01*
X57409Y42793D01*
X57479Y42823D01*
X57601Y42944D01*
X57649Y43061D01*
X57667Y43064D01*
X57851Y43056D01*
X57902Y42935D01*
X58023Y42814D01*
X58182Y42748D01*
X58353D01*
X58512Y42814D01*
X58634Y42935D01*
X58663Y43007D01*
X58667Y43016D01*
X58880Y43008D01*
X58890Y42986D01*
X58897Y42968D01*
X58956Y42827D01*
X58937Y42564D01*
X58890Y42518D01*
X58830Y42427D01*
X58808Y42320D01*
X58808Y42320D01*
Y41933D01*
X52954Y36079D01*
X52954Y36079D01*
X32186Y15310D01*
X31753D01*
X31753Y15310D01*
X31719Y15304D01*
X31553Y15443D01*
Y15475D01*
X31487Y15634D01*
X31366Y15755D01*
X31207Y15821D01*
X31035D01*
X30877Y15755D01*
X30763Y15641D01*
X30723Y15643D01*
X30563Y15692D01*
Y21689D01*
X30763Y21729D01*
X30774Y21701D01*
X30896Y21580D01*
X31054Y21514D01*
X31179D01*
X31276Y21444D01*
X31346Y21347D01*
Y21222D01*
X31412Y21063D01*
X31533Y20942D01*
X31692Y20876D01*
X31864D01*
X32023Y20942D01*
X32144Y21063D01*
X32210Y21222D01*
Y21394D01*
X32171Y21489D01*
Y21663D01*
X52236Y41728D01*
X52236Y41728D01*
X52297Y41819D01*
X52318Y41926D01*
Y42707D01*
X52437Y42826D01*
X52541Y42869D01*
X52663Y42990D01*
X52728Y43149D01*
Y43321D01*
X52663Y43480D01*
X52541Y43601D01*
X52382Y43667D01*
X52211D01*
X52052Y43601D01*
X51985Y43534D01*
X51787Y43550D01*
X51755Y43565D01*
X51750Y43577D01*
X51629Y43698D01*
X51470Y43764D01*
X51298D01*
X51140Y43698D01*
X51018Y43577D01*
X50952Y43418D01*
Y43247D01*
X51018Y43088D01*
X51140Y42966D01*
X51243Y42923D01*
X51363Y42804D01*
Y42206D01*
X46328Y37171D01*
X46128Y37251D01*
X46062Y37410D01*
X45940Y37531D01*
X45782Y37597D01*
X45667D01*
X42296Y40967D01*
Y44065D01*
X42322Y44094D01*
X42496Y44182D01*
X42586Y44145D01*
X42758D01*
X42917Y44211D01*
X43038Y44332D01*
X43049Y44360D01*
X43130Y44380D01*
X43274Y44380D01*
X43367Y44287D01*
X43526Y44221D01*
X43698D01*
X43856Y44287D01*
X43978Y44409D01*
X44044Y44567D01*
Y44739D01*
X43978Y44898D01*
X43856Y45019D01*
X43698Y45085D01*
X43526D01*
X43367Y45019D01*
X43246Y44898D01*
X43234Y44870D01*
X43154Y44850D01*
X43010Y44850D01*
X42917Y44943D01*
X42758Y45009D01*
X42586D01*
X42496Y44972D01*
X42322Y45060D01*
X42296Y45089D01*
Y49762D01*
X42379Y49844D01*
X42411Y49922D01*
X42623Y49911D01*
X42662Y49819D01*
X42783Y49697D01*
X42942Y49632D01*
X43060D01*
X49481Y43210D01*
X49543Y43061D01*
X49665Y42939D01*
X49823Y42874D01*
X49995D01*
X50154Y42939D01*
X50275Y43061D01*
X50341Y43219D01*
Y43391D01*
X50275Y43550D01*
X50154Y43671D01*
X49995Y43737D01*
X49823D01*
X49792Y43724D01*
X46987Y46529D01*
X47100Y46699D01*
X47133Y46685D01*
X47304D01*
X47463Y46751D01*
X47585Y46872D01*
X47650Y47031D01*
Y47203D01*
X47585Y47362D01*
X47463Y47483D01*
X47304Y47549D01*
X47133D01*
X46974Y47483D01*
X46853Y47362D01*
X46787Y47203D01*
Y47031D01*
X46800Y46998D01*
X46631Y46885D01*
X43459Y50056D01*
Y50149D01*
X43394Y50308D01*
X43272Y50429D01*
X43113Y50495D01*
X42942D01*
X42783Y50429D01*
X42662Y50308D01*
X42629Y50230D01*
X42417Y50241D01*
X42379Y50333D01*
X42257Y50455D01*
X42099Y50521D01*
X41927D01*
X41768Y50455D01*
X41647Y50333D01*
X41581Y50175D01*
Y50003D01*
X41647Y49844D01*
X41727Y49764D01*
Y48245D01*
X41617Y48184D01*
X41527Y48151D01*
X41386Y48209D01*
X41215D01*
X41056Y48143D01*
X40934Y48022D01*
X40869Y47863D01*
Y47692D01*
X40934Y47533D01*
X41016Y47452D01*
Y45609D01*
X29618Y34212D01*
X29556Y34120D01*
X29535Y34011D01*
X29535Y34011D01*
Y8541D01*
X29535Y8541D01*
X29556Y8432D01*
X29618Y8339D01*
X30361Y7596D01*
X30361Y7596D01*
X30453Y7535D01*
X30562Y7513D01*
X33177D01*
X33258Y7432D01*
X33417Y7366D01*
X33588D01*
X33747Y7432D01*
X33869Y7553D01*
X33934Y7712D01*
Y7884D01*
X33931Y7891D01*
X34065Y8091D01*
X39392D01*
X45926Y1556D01*
X45926Y1556D01*
X46019Y1494D01*
X46086Y1481D01*
X46067Y1281D01*
X4507D01*
X4467Y1481D01*
X4730Y1590D01*
X5075Y1820D01*
X5368Y2113D01*
X5598Y2458D01*
X5757Y2841D01*
X5838Y3247D01*
Y3327D01*
X3734D01*
X1630D01*
Y3247D01*
X1711Y2841D01*
X1869Y2458D01*
X2100Y2113D01*
X2393Y1820D01*
X2737Y1590D01*
X3000Y1481D01*
X2960Y1281D01*
X1281D01*
Y7819D01*
X3099D01*
X3178Y7835D01*
X3245Y7880D01*
X3290Y7947D01*
X3306Y8026D01*
Y9179D01*
X3506Y9261D01*
X3532Y9235D01*
X3796Y9083D01*
X4090Y9004D01*
X4394D01*
X4688Y9083D01*
X4951Y9235D01*
X5167Y9450D01*
X5319Y9714D01*
X5398Y10008D01*
Y10312D01*
X5319Y10606D01*
X5167Y10870D01*
X4951Y11085D01*
X4688Y11237D01*
X4394Y11316D01*
X4090D01*
X3796Y11237D01*
X3532Y11085D01*
X3506Y11059D01*
X3306Y11141D01*
Y24215D01*
X3506Y24298D01*
X3532Y24272D01*
X3796Y24120D01*
X4090Y24041D01*
X4394D01*
X4688Y24120D01*
X4951Y24272D01*
X5167Y24487D01*
X5319Y24751D01*
X5398Y25045D01*
Y25349D01*
X5319Y25643D01*
X5167Y25906D01*
X4951Y26122D01*
X4688Y26274D01*
X4394Y26352D01*
X4090D01*
X3796Y26274D01*
X3532Y26122D01*
X3506Y26095D01*
X3306Y26178D01*
Y27330D01*
X3290Y27410D01*
X3245Y27477D01*
X3178Y27522D01*
X3099Y27538D01*
X1281D01*
Y38339D01*
X3300D01*
X3496Y38365D01*
X3680Y38441D01*
X3837Y38562D01*
X3958Y38719D01*
X4034Y38902D01*
X4059Y39099D01*
X4034Y39295D01*
X3958Y39479D01*
X3837Y39636D01*
X3680Y39757D01*
X3496Y39833D01*
X3300Y39859D01*
X1281D01*
Y47579D01*
X3300D01*
X3496Y47605D01*
X3680Y47681D01*
X3837Y47802D01*
X3958Y47959D01*
X4034Y48142D01*
X4059Y48339D01*
X4034Y48535D01*
X3958Y48719D01*
X3837Y48876D01*
X3680Y48997D01*
X3496Y49073D01*
X3300Y49099D01*
X1281D01*
Y63056D01*
X3297D01*
X3493Y63082D01*
X3677Y63157D01*
X3834Y63278D01*
X3955Y63436D01*
X4031Y63619D01*
X4056Y63815D01*
X4031Y64012D01*
X4008Y64067D01*
X4177Y64181D01*
X7010Y61348D01*
X7119Y61275D01*
X7248Y61249D01*
X21376D01*
X21405Y61220D01*
X21564Y61154D01*
X21736D01*
X21894Y61220D01*
X22016Y61342D01*
X22081Y61500D01*
Y61672D01*
X22016Y61831D01*
X21894Y61952D01*
X21736Y62018D01*
X21564D01*
X21405Y61952D01*
X21376Y61923D01*
X7387D01*
X6099Y63211D01*
X6210Y63382D01*
X6407Y63356D01*
X7407D01*
X7603Y63382D01*
X7787Y63458D01*
X7944Y63578D01*
X8065Y63736D01*
X8141Y63919D01*
X8167Y64115D01*
X8141Y64312D01*
X8065Y64495D01*
X7944Y64653D01*
X7787Y64773D01*
X7603Y64849D01*
X7407Y64875D01*
X6407D01*
X6210Y64849D01*
X6027Y64773D01*
X5870Y64653D01*
X5749Y64495D01*
X5673Y64312D01*
X5647Y64115D01*
X5673Y63919D01*
X5503Y63808D01*
X4274Y65036D01*
Y67544D01*
X4303Y67573D01*
X4369Y67732D01*
Y67904D01*
X4355Y67938D01*
X4351Y68100D01*
X4455Y68180D01*
X4509Y68202D01*
X4631Y68324D01*
X4696Y68482D01*
Y68654D01*
X4631Y68813D01*
X4509Y68934D01*
X4350Y69000D01*
X4179D01*
X4020Y68934D01*
X3899Y68813D01*
X3833Y68654D01*
Y68482D01*
X3847Y68448D01*
X3850Y68287D01*
X3747Y68207D01*
X3692Y68184D01*
X3571Y68063D01*
X3505Y67904D01*
Y67732D01*
X3571Y67573D01*
X3600Y67544D01*
Y64897D01*
X3626Y64768D01*
X3679Y64689D01*
X3635Y64599D01*
X3555Y64524D01*
X3493Y64549D01*
X3297Y64575D01*
X1281D01*
Y72296D01*
X3297D01*
X3493Y72322D01*
X3677Y72397D01*
X3834Y72518D01*
X3955Y72676D01*
X4031Y72859D01*
X4056Y73055D01*
X4031Y73252D01*
X3955Y73435D01*
X3834Y73593D01*
X3677Y73713D01*
X3493Y73789D01*
X3297Y73815D01*
X1281D01*
Y114899D01*
X46927D01*
X47007Y114699D01*
X38182Y105874D01*
X38121Y105781D01*
X38099Y105672D01*
X38099Y105672D01*
Y99162D01*
X38018Y99081D01*
X37952Y98922D01*
Y98751D01*
X38018Y98592D01*
X38139Y98470D01*
X38298Y98405D01*
X38470D01*
X38628Y98470D01*
X38750Y98592D01*
X38816Y98751D01*
Y98922D01*
X38750Y99081D01*
X38669Y99162D01*
Y105554D01*
X47384Y114269D01*
X67897D01*
X67972Y114157D01*
Y113986D01*
X68037Y113827D01*
X68159Y113705D01*
X68318Y113640D01*
X68489D01*
X68648Y113705D01*
X68769Y113827D01*
X68835Y113986D01*
Y114157D01*
X68910Y114269D01*
X88172D01*
X88306Y114069D01*
X88292Y114035D01*
Y113864D01*
X88357Y113705D01*
X88479Y113583D01*
X88638Y113518D01*
X88712D01*
X88724Y113508D01*
X88833Y113328D01*
X88798Y113243D01*
Y113071D01*
X88864Y112912D01*
X88986Y112791D01*
X89144Y112725D01*
X89316D01*
X89475Y112791D01*
X89596Y112912D01*
X89662Y113071D01*
Y113243D01*
X89596Y113402D01*
X89475Y113523D01*
X89316Y113589D01*
X89241D01*
X89229Y113598D01*
X89120Y113779D01*
X89155Y113864D01*
Y114035D01*
X89141Y114069D01*
X89275Y114269D01*
X90128D01*
X90700Y113697D01*
X90699Y113694D01*
X90602Y113513D01*
X90490D01*
X90332Y113447D01*
X90210Y113325D01*
X90145Y113167D01*
Y112995D01*
X90210Y112836D01*
X90240Y112807D01*
Y60439D01*
X82106Y52305D01*
X79446D01*
X79416Y52334D01*
X79258Y52400D01*
X79086D01*
X78927Y52334D01*
X78806Y52213D01*
X78740Y52054D01*
Y51883D01*
X78806Y51724D01*
X78864Y51666D01*
X78781Y51466D01*
X76805D01*
X76724Y51547D01*
X76565Y51613D01*
X76394D01*
X76235Y51547D01*
X76113Y51426D01*
X76048Y51267D01*
Y51095D01*
X76113Y50936D01*
X76235Y50815D01*
X76394Y50749D01*
X76565D01*
X76724Y50815D01*
X76805Y50896D01*
X77825D01*
X77958Y50696D01*
X77953Y50683D01*
Y50511D01*
X78018Y50352D01*
X78140Y50231D01*
X78299Y50165D01*
X78470D01*
X78629Y50231D01*
X78750Y50352D01*
X78816Y50511D01*
Y50683D01*
X78811Y50696D01*
X78944Y50896D01*
X80483D01*
X80544Y50786D01*
X80576Y50696D01*
X80518Y50556D01*
Y50384D01*
X80584Y50225D01*
X80705Y50104D01*
X80864Y50038D01*
X81036D01*
X81194Y50104D01*
X81316Y50225D01*
X81382Y50384D01*
Y50556D01*
X81323Y50696D01*
X81356Y50786D01*
X81417Y50896D01*
X102326D01*
X111221Y42001D01*
Y20087D01*
X111140Y20006D01*
X111074Y19847D01*
Y19675D01*
X111140Y19517D01*
X111261Y19395D01*
X111420Y19329D01*
X111592D01*
X111751Y19395D01*
X111872Y19517D01*
X111938Y19675D01*
Y19847D01*
X111872Y20006D01*
X111791Y20087D01*
Y42119D01*
X111791Y42119D01*
X111769Y42228D01*
X111707Y42321D01*
X102646Y51382D01*
X102553Y51444D01*
X102444Y51466D01*
X102444Y51466D01*
X82496D01*
X82385Y51651D01*
X82387Y51666D01*
X82483Y51730D01*
X90814Y60062D01*
X90887Y60171D01*
X90913Y60300D01*
Y92684D01*
X91113Y92767D01*
X138002Y45878D01*
X137889Y45708D01*
X137738Y45771D01*
X137496D01*
X137272Y45678D01*
X137100Y45507D01*
X137008Y45282D01*
Y45040D01*
X137100Y44816D01*
X137272Y44644D01*
X137496Y44552D01*
X137738D01*
X137962Y44644D01*
X138134Y44816D01*
X138227Y45040D01*
Y45282D01*
X138164Y45433D01*
X138334Y45546D01*
X161750Y22130D01*
X161750Y22130D01*
X161843Y22068D01*
X161952Y22047D01*
X161952Y22047D01*
X188853D01*
X200558Y10341D01*
Y10227D01*
X200624Y10068D01*
X200746Y9946D01*
X200904Y9881D01*
X201076D01*
X201235Y9946D01*
X201356Y10068D01*
X201422Y10227D01*
Y10398D01*
X201356Y10557D01*
X201235Y10678D01*
X201076Y10744D01*
X200961D01*
X189172Y22533D01*
X189080Y22595D01*
X188971Y22616D01*
X188971Y22616D01*
X162070D01*
X91497Y93189D01*
Y112638D01*
X91697Y112721D01*
X91729Y112689D01*
X91887Y112624D01*
X92059D01*
X92218Y112689D01*
X92339Y112811D01*
X92405Y112970D01*
Y113141D01*
X92339Y113300D01*
X92218Y113421D01*
X92059Y113487D01*
X91887D01*
X91729Y113421D01*
X91697Y113390D01*
X91497Y113473D01*
Y113588D01*
X91497Y113588D01*
X91476Y113697D01*
X91414Y113789D01*
X91414Y113789D01*
X90504Y114699D01*
X90585Y114899D01*
X231923D01*
Y114351D01*
X232734D01*
X233545D01*
Y114899D01*
X241163D01*
Y114351D01*
X241974D01*
X242785D01*
Y114899D01*
X248833D01*
Y1281D01*
D02*
G37*
G36*
X77822Y48248D02*
X77821Y48177D01*
X77751Y48036D01*
X77662Y48039D01*
X77240Y48461D01*
X77147Y48523D01*
X77038Y48545D01*
X77038Y48545D01*
X76454D01*
X76454Y48545D01*
X76345Y48523D01*
X76253Y48461D01*
X74456Y46665D01*
X70445D01*
X70336Y46644D01*
X70243Y46582D01*
X70243Y46582D01*
X70179Y46518D01*
X69916D01*
X69833Y46718D01*
X69886Y46771D01*
X69952Y46930D01*
Y47101D01*
X69886Y47260D01*
X69777Y47369D01*
X69783Y47430D01*
X69835Y47569D01*
X70972D01*
X71053Y47488D01*
X71212Y47422D01*
X71384D01*
X71542Y47488D01*
X71664Y47609D01*
X71730Y47768D01*
Y47939D01*
X71664Y48098D01*
X71542Y48220D01*
X71532Y48224D01*
X71572Y48424D01*
X73861D01*
X74320Y47964D01*
Y47849D01*
X74386Y47691D01*
X74508Y47569D01*
X74666Y47503D01*
X74838D01*
X74997Y47569D01*
X75118Y47691D01*
X75184Y47849D01*
Y48021D01*
X75118Y48180D01*
X74997Y48301D01*
X74838Y48367D01*
X74723D01*
X74386Y48705D01*
X74462Y48890D01*
X77180D01*
X77822Y48248D01*
D02*
G37*
G36*
X60726Y42117D02*
X60753Y42101D01*
Y38706D01*
X49713Y27666D01*
X49322D01*
X49241Y27747D01*
X49082Y27813D01*
X48911D01*
X48752Y27747D01*
X48631Y27626D01*
X48565Y27467D01*
Y27295D01*
X48631Y27137D01*
X48752Y27015D01*
X48911Y26949D01*
X49082D01*
X49241Y27015D01*
X49256Y27030D01*
X49341Y27018D01*
X49411Y26806D01*
X41175Y18569D01*
X41113Y18477D01*
X41092Y18368D01*
X41092Y18368D01*
Y11172D01*
X41011Y11090D01*
X40945Y10932D01*
Y10760D01*
X41011Y10601D01*
X41132Y10480D01*
X41291Y10414D01*
X41462D01*
X41621Y10480D01*
X41743Y10601D01*
X41808Y10760D01*
Y10932D01*
X41743Y11090D01*
X41661Y11172D01*
Y12151D01*
X41799Y12243D01*
X41970D01*
X42129Y12309D01*
X42251Y12430D01*
X42316Y12589D01*
Y12761D01*
X42251Y12919D01*
X42129Y13041D01*
X42110Y13049D01*
X42129Y13257D01*
X42231Y13299D01*
X42352Y13421D01*
X42418Y13579D01*
Y13751D01*
X42352Y13910D01*
X42231Y14031D01*
X42072Y14097D01*
X41900D01*
X41861Y14081D01*
X41661Y14212D01*
Y14565D01*
X41861Y14647D01*
X41891Y14617D01*
X42050Y14552D01*
X42222D01*
X42381Y14617D01*
X42502Y14739D01*
X42568Y14898D01*
Y15022D01*
X42638Y15119D01*
X42735Y15189D01*
X42859D01*
X43018Y15255D01*
X43140Y15376D01*
X43205Y15535D01*
Y15707D01*
X43140Y15866D01*
X43018Y15987D01*
X42859Y16053D01*
X42688D01*
X42529Y15987D01*
X42408Y15866D01*
X42342Y15707D01*
Y15582D01*
X42272Y15485D01*
X42175Y15415D01*
X42050D01*
X41891Y15350D01*
X41861Y15319D01*
X41661Y15402D01*
Y18250D01*
X64072Y40660D01*
X64257Y40584D01*
Y39925D01*
X49152Y24820D01*
X49090Y24728D01*
X49069Y24619D01*
X49069Y24619D01*
Y17157D01*
X48869Y17117D01*
X48829Y17212D01*
X48708Y17333D01*
X48549Y17399D01*
X48377D01*
X48219Y17333D01*
X48097Y17212D01*
X48031Y17053D01*
Y16881D01*
X47889Y16727D01*
X47717D01*
X47558Y16661D01*
X47437Y16540D01*
X47371Y16381D01*
Y16210D01*
X47437Y16051D01*
X47558Y15929D01*
X47545Y15718D01*
X47538Y15711D01*
X47473Y15553D01*
Y15381D01*
X47538Y15222D01*
X47660Y15101D01*
X47767Y14926D01*
X47701Y14767D01*
Y14595D01*
X47767Y14437D01*
X47888Y14315D01*
X48047Y14249D01*
X48219D01*
X48378Y14315D01*
X48499Y14437D01*
X48565Y14595D01*
Y14767D01*
X48499Y14926D01*
X48378Y15047D01*
X48270Y15222D01*
X48336Y15381D01*
Y15553D01*
X48270Y15711D01*
X48149Y15833D01*
X48162Y16044D01*
X48169Y16051D01*
X48235Y16210D01*
Y16381D01*
X48377Y16535D01*
X48549D01*
X48708Y16601D01*
X48829Y16723D01*
X48869Y16817D01*
X49069Y16778D01*
Y10664D01*
X47655Y9251D01*
X47540D01*
X47382Y9185D01*
X47260Y9063D01*
X47194Y8905D01*
Y8733D01*
X47260Y8574D01*
X47382Y8453D01*
X47540Y8387D01*
X47712D01*
X47871Y8453D01*
X47992Y8574D01*
X48058Y8733D01*
Y8848D01*
X49555Y10345D01*
X49555Y10345D01*
X49617Y10437D01*
X49638Y10546D01*
Y24501D01*
X55207Y30070D01*
X55392Y29993D01*
Y13918D01*
X55280Y13843D01*
X55108D01*
X54950Y13777D01*
X54828Y13656D01*
X54762Y13497D01*
Y13382D01*
X54562Y13182D01*
X54500Y13090D01*
X54479Y12981D01*
X54479Y12981D01*
Y4463D01*
X54479Y4463D01*
X54500Y4354D01*
X54562Y4262D01*
X55403Y3421D01*
X55326Y3236D01*
X53113D01*
X53004Y3215D01*
X52911Y3153D01*
X52911Y3153D01*
X52040Y2281D01*
X51860Y2385D01*
X51871Y2424D01*
Y2629D01*
X51818Y2827D01*
X51716Y3005D01*
X51571Y3150D01*
X51393Y3252D01*
X51195Y3305D01*
X50990D01*
X50792Y3252D01*
X50615Y3150D01*
X50470Y3005D01*
X50368Y2827D01*
X50315Y2629D01*
Y2424D01*
X50363Y2242D01*
X50362Y2218D01*
X50243Y2042D01*
X46246D01*
X39711Y8577D01*
X39619Y8639D01*
X39510Y8660D01*
X39510Y8660D01*
X30788D01*
X30563Y8886D01*
Y15087D01*
X30723Y15135D01*
X30763Y15137D01*
X30877Y15023D01*
X31035Y14957D01*
X31190D01*
X31334Y14814D01*
X31334Y14814D01*
X31425Y14753D01*
X31478Y14677D01*
X31494Y14600D01*
X31496Y14536D01*
X31384Y14424D01*
X31318Y14266D01*
Y14094D01*
X31384Y13935D01*
X31505Y13814D01*
X31664Y13748D01*
X31836D01*
X31995Y13814D01*
X32116Y13935D01*
X32182Y14094D01*
Y14266D01*
X32242Y14355D01*
X32466D01*
X32466Y14355D01*
X32573Y14376D01*
X32664Y14437D01*
X53746Y35519D01*
X53746Y35519D01*
X53746Y35519D01*
X59682Y41455D01*
X59682Y41455D01*
X59742Y41546D01*
X59764Y41653D01*
X59764Y41653D01*
Y42010D01*
X59818Y42049D01*
X59979Y42077D01*
X60137Y42012D01*
X60309D01*
X60468Y42077D01*
X60553Y42162D01*
X60726Y42117D01*
D02*
G37*
G36*
X41727Y45267D02*
Y40849D01*
X41727Y40849D01*
X41748Y40740D01*
X41810Y40648D01*
X45264Y37194D01*
Y37079D01*
X45330Y36921D01*
X45451Y36799D01*
X45610Y36733D01*
X45690Y36533D01*
X31495Y22338D01*
X31321D01*
X31226Y22377D01*
X31054D01*
X30896Y22312D01*
X30774Y22190D01*
X30763Y22163D01*
X30563Y22202D01*
Y33136D01*
X40360Y42933D01*
X40360Y42933D01*
X40422Y43025D01*
X40443Y43134D01*
X40443Y43134D01*
Y43272D01*
X40562Y43390D01*
X40675D01*
X40833Y43456D01*
X40955Y43577D01*
X41021Y43736D01*
Y43908D01*
X40955Y44066D01*
X40833Y44188D01*
X40727Y44232D01*
X40668Y44389D01*
X40665Y44453D01*
X41502Y45290D01*
X41502Y45290D01*
X41527Y45327D01*
X41727Y45267D01*
D02*
G37*
G36*
X117629Y1481D02*
X117609Y1374D01*
X117556Y1281D01*
X51980D01*
X51960Y1481D01*
X52028Y1494D01*
X52120Y1556D01*
X53231Y2667D01*
X116444D01*
X117629Y1481D01*
D02*
G37*
%LPC*%
G36*
X246638Y114550D02*
X246558D01*
Y112573D01*
X248535D01*
Y112653D01*
X248454Y113060D01*
X248295Y113442D01*
X248065Y113787D01*
X247772Y114080D01*
X247427Y114310D01*
X247045Y114469D01*
X246638Y114550D01*
D02*
G37*
G36*
X246304D02*
X246224D01*
X245817Y114469D01*
X245434Y114310D01*
X245090Y114080D01*
X244797Y113787D01*
X244566Y113442D01*
X244408Y113060D01*
X244327Y112653D01*
Y112573D01*
X246304D01*
Y114550D01*
D02*
G37*
G36*
X9554Y114474D02*
X9474D01*
Y112497D01*
X11451D01*
Y112577D01*
X11370Y112983D01*
X11212Y113366D01*
X10981Y113711D01*
X10688Y114004D01*
X10344Y114234D01*
X9961Y114393D01*
X9554Y114474D01*
D02*
G37*
G36*
X9220D02*
X9140D01*
X8733Y114393D01*
X8351Y114234D01*
X8006Y114004D01*
X7713Y113711D01*
X7483Y113366D01*
X7324Y112983D01*
X7243Y112577D01*
Y112497D01*
X9220D01*
Y114474D01*
D02*
G37*
G36*
X234694Y113225D02*
X234522D01*
X234363Y113159D01*
X234242Y113038D01*
X234176Y112879D01*
Y112708D01*
X234242Y112549D01*
X234363Y112427D01*
X234522Y112362D01*
X234694D01*
X234852Y112427D01*
X234974Y112549D01*
X235039Y112708D01*
Y112879D01*
X234974Y113038D01*
X234852Y113159D01*
X234694Y113225D01*
D02*
G37*
G36*
X236726Y113047D02*
X236554D01*
X236395Y112982D01*
X236274Y112860D01*
X236208Y112701D01*
Y112530D01*
X236274Y112371D01*
X236395Y112250D01*
X236554Y112184D01*
X236726D01*
X236884Y112250D01*
X237006Y112371D01*
X237071Y112530D01*
Y112701D01*
X237006Y112860D01*
X236884Y112982D01*
X236726Y113047D01*
D02*
G37*
G36*
X233545Y114097D02*
X232861D01*
Y112180D01*
X232944Y112191D01*
X233139Y112272D01*
X233307Y112400D01*
X233436Y112568D01*
X233517Y112764D01*
X233545Y112974D01*
Y114097D01*
D02*
G37*
G36*
X241847Y114097D02*
X241163D01*
Y112974D01*
X241190Y112764D01*
X241271Y112568D01*
X241400Y112400D01*
X241568Y112272D01*
X241764Y112191D01*
X241847Y112180D01*
Y114097D01*
D02*
G37*
G36*
X242785D02*
X242101D01*
Y112180D01*
X242184Y112191D01*
X242379Y112272D01*
X242547Y112400D01*
X242676Y112568D01*
X242757Y112764D01*
X242785Y112974D01*
Y114097D01*
D02*
G37*
G36*
X232607Y114097D02*
X231923D01*
Y112974D01*
X231950Y112764D01*
X232031Y112568D01*
X232160Y112400D01*
X232328Y112272D01*
X232524Y112191D01*
X232607Y112180D01*
Y114097D01*
D02*
G37*
G36*
X238173Y113022D02*
X238002D01*
X237843Y112956D01*
X237721Y112835D01*
X237656Y112676D01*
Y112504D01*
X237721Y112346D01*
X237843Y112224D01*
X238002Y112158D01*
X238173D01*
X238332Y112224D01*
X238454Y112346D01*
X238519Y112504D01*
Y112676D01*
X238454Y112835D01*
X238332Y112956D01*
X238173Y113022D01*
D02*
G37*
G36*
X248535Y112319D02*
X246558D01*
Y110342D01*
X246638D01*
X247045Y110423D01*
X247427Y110581D01*
X247772Y110812D01*
X248065Y111105D01*
X248295Y111449D01*
X248454Y111832D01*
X248535Y112239D01*
Y112319D01*
D02*
G37*
G36*
X246304D02*
X244327D01*
Y112239D01*
X244408Y111832D01*
X244566Y111449D01*
X244797Y111105D01*
X245090Y110812D01*
X245434Y110581D01*
X245817Y110423D01*
X246224Y110342D01*
X246304D01*
Y112319D01*
D02*
G37*
G36*
X77683Y111150D02*
X77511D01*
X77352Y111085D01*
X77231Y110963D01*
X77165Y110804D01*
Y110633D01*
X77231Y110474D01*
X77352Y110353D01*
X77511Y110287D01*
X77683D01*
X77842Y110353D01*
X77963Y110474D01*
X78029Y110633D01*
Y110804D01*
X77963Y110963D01*
X77842Y111085D01*
X77683Y111150D01*
D02*
G37*
G36*
X11451Y112243D02*
X9474D01*
Y110266D01*
X9554D01*
X9961Y110346D01*
X10344Y110505D01*
X10688Y110735D01*
X10981Y111028D01*
X11212Y111373D01*
X11370Y111756D01*
X11451Y112162D01*
Y112243D01*
D02*
G37*
G36*
X9220D02*
X7243D01*
Y112162D01*
X7324Y111756D01*
X7483Y111373D01*
X7713Y111028D01*
X8006Y110735D01*
X8351Y110505D01*
X8733Y110346D01*
X9140Y110266D01*
X9220D01*
Y112243D01*
D02*
G37*
G36*
X65440Y110896D02*
X65268D01*
X65110Y110831D01*
X64988Y110709D01*
X64922Y110550D01*
Y110379D01*
X64988Y110220D01*
X65110Y110099D01*
X65268Y110033D01*
X65440D01*
X65599Y110099D01*
X65720Y110220D01*
X65786Y110379D01*
Y110550D01*
X65720Y110709D01*
X65599Y110831D01*
X65440Y110896D01*
D02*
G37*
G36*
X64348D02*
X64176D01*
X64017Y110831D01*
X63896Y110709D01*
X63830Y110550D01*
Y110379D01*
X63896Y110220D01*
X64017Y110099D01*
X64176Y110033D01*
X64348D01*
X64507Y110099D01*
X64628Y110220D01*
X64694Y110379D01*
Y110550D01*
X64628Y110709D01*
X64507Y110831D01*
X64348Y110896D01*
D02*
G37*
G36*
X241801Y110658D02*
Y109491D01*
X242485D01*
Y109864D01*
X242457Y110074D01*
X242376Y110269D01*
X242247Y110437D01*
X242079Y110566D01*
X241884Y110647D01*
X241801Y110658D01*
D02*
G37*
G36*
X241547D02*
X241464Y110647D01*
X241268Y110566D01*
X241100Y110437D01*
X240971Y110269D01*
X240890Y110074D01*
X240863Y109864D01*
Y109491D01*
X241547D01*
Y110658D01*
D02*
G37*
G36*
X233161Y110658D02*
Y109491D01*
X233845D01*
Y109864D01*
X233817Y110074D01*
X233736Y110269D01*
X233607Y110437D01*
X233439Y110566D01*
X233244Y110647D01*
X233161Y110658D01*
D02*
G37*
G36*
X232907Y110658D02*
X232824Y110647D01*
X232628Y110566D01*
X232460Y110437D01*
X232331Y110269D01*
X232250Y110074D01*
X232223Y109864D01*
Y109491D01*
X232907D01*
Y110658D01*
D02*
G37*
G36*
X22056Y109096D02*
X21884D01*
X21725Y109030D01*
X21604Y108909D01*
X21538Y108750D01*
Y108578D01*
X21604Y108420D01*
X21725Y108298D01*
X21884Y108232D01*
X22056D01*
X22214Y108298D01*
X22336Y108420D01*
X22402Y108578D01*
Y108750D01*
X22336Y108909D01*
X22214Y109030D01*
X22056Y109096D01*
D02*
G37*
G36*
X232907Y109237D02*
X232223D01*
Y108864D01*
X232250Y108654D01*
X232331Y108458D01*
X232460Y108290D01*
X232628Y108162D01*
X232824Y108081D01*
X232907Y108070D01*
Y109237D01*
D02*
G37*
G36*
X242485Y109237D02*
X241801D01*
Y108070D01*
X241884Y108081D01*
X242079Y108162D01*
X242247Y108290D01*
X242376Y108458D01*
X242457Y108654D01*
X242485Y108864D01*
Y109237D01*
D02*
G37*
G36*
X241547D02*
X240863D01*
Y108864D01*
X240890Y108654D01*
X240971Y108458D01*
X241100Y108290D01*
X241268Y108162D01*
X241464Y108081D01*
X241547Y108070D01*
Y109237D01*
D02*
G37*
G36*
X233845Y109237D02*
X233161D01*
Y108070D01*
X233244Y108081D01*
X233439Y108162D01*
X233607Y108290D01*
X233736Y108458D01*
X233817Y108654D01*
X233845Y108864D01*
Y109237D01*
D02*
G37*
G36*
X51539Y109000D02*
X51297D01*
X51072Y108907D01*
X50901Y108735D01*
X50808Y108511D01*
Y108269D01*
X50901Y108045D01*
X51072Y107873D01*
X51297Y107780D01*
X51539D01*
X51763Y107873D01*
X51935Y108045D01*
X52027Y108269D01*
Y108511D01*
X51935Y108735D01*
X51763Y108907D01*
X51539Y109000D01*
D02*
G37*
G36*
X238248Y106977D02*
X238076D01*
X237917Y106911D01*
X237829Y106823D01*
X237711Y106803D01*
X237593Y106823D01*
X237505Y106911D01*
X237346Y106977D01*
X237174D01*
X237016Y106911D01*
X236894Y106790D01*
X236828Y106631D01*
Y106459D01*
X236894Y106300D01*
X237016Y106179D01*
X237174Y106113D01*
X237346D01*
X237505Y106179D01*
X237593Y106267D01*
X237711Y106287D01*
X237829Y106267D01*
X237917Y106179D01*
X238076Y106113D01*
X238248D01*
X238406Y106179D01*
X238528Y106300D01*
X238594Y106459D01*
Y106631D01*
X238528Y106790D01*
X238406Y106911D01*
X238248Y106977D01*
D02*
G37*
G36*
X27528Y107798D02*
X27285D01*
X27061Y107705D01*
X26890Y107533D01*
X26797Y107309D01*
Y107067D01*
X26890Y106843D01*
X27061Y106671D01*
X27285Y106578D01*
X27528D01*
X27752Y106671D01*
X27923Y106843D01*
X28016Y107067D01*
Y107309D01*
X27923Y107533D01*
X27752Y107705D01*
X27528Y107798D01*
D02*
G37*
G36*
X184601Y107442D02*
X184359D01*
X184135Y107349D01*
X183963Y107178D01*
X183871Y106954D01*
Y106711D01*
X183963Y106487D01*
X184135Y106316D01*
X184359Y106223D01*
X184601D01*
X184826Y106316D01*
X184997Y106487D01*
X185090Y106711D01*
Y106954D01*
X184997Y107178D01*
X184826Y107349D01*
X184601Y107442D01*
D02*
G37*
G36*
X239594Y106977D02*
X239422D01*
X239263Y106911D01*
X239142Y106790D01*
X239076Y106631D01*
Y106459D01*
X239142Y106300D01*
X239263Y106179D01*
X239422Y106113D01*
X239594D01*
X239753Y106179D01*
X239874Y106300D01*
X239940Y106459D01*
Y106631D01*
X239874Y106790D01*
X239753Y106911D01*
X239594Y106977D01*
D02*
G37*
G36*
X27466Y105631D02*
X27294D01*
X27135Y105566D01*
X27014Y105444D01*
X26948Y105286D01*
Y105114D01*
X27014Y104955D01*
X27135Y104834D01*
X27294Y104768D01*
X27466D01*
X27625Y104834D01*
X27746Y104955D01*
X27812Y105114D01*
Y105286D01*
X27746Y105444D01*
X27625Y105566D01*
X27466Y105631D01*
D02*
G37*
G36*
X60970Y105537D02*
X60798D01*
X60639Y105471D01*
X60518Y105350D01*
X60452Y105191D01*
Y105019D01*
X60518Y104861D01*
X60639Y104739D01*
X60798Y104673D01*
X60970D01*
X61128Y104739D01*
X61250Y104861D01*
X61316Y105019D01*
Y105191D01*
X61250Y105350D01*
X61128Y105471D01*
X60970Y105537D01*
D02*
G37*
G36*
X59877D02*
X59706D01*
X59547Y105471D01*
X59426Y105350D01*
X59360Y105191D01*
Y105019D01*
X59426Y104861D01*
X59547Y104739D01*
X59706Y104673D01*
X59877D01*
X60036Y104739D01*
X60158Y104861D01*
X60223Y105019D01*
Y105191D01*
X60158Y105350D01*
X60036Y105471D01*
X59877Y105537D01*
D02*
G37*
G36*
X239340Y105504D02*
X239168D01*
X239009Y105438D01*
X238888Y105316D01*
X238822Y105158D01*
Y104986D01*
X238888Y104827D01*
X239009Y104706D01*
X239168Y104640D01*
X239340D01*
X239499Y104706D01*
X239620Y104827D01*
X239686Y104986D01*
Y105158D01*
X239620Y105316D01*
X239499Y105438D01*
X239340Y105504D01*
D02*
G37*
G36*
X4690Y105783D02*
X4505D01*
X4326Y105735D01*
X4166Y105643D01*
X4035Y105512D01*
X3942Y105351D01*
X3894Y105172D01*
Y104987D01*
X3942Y104808D01*
X4035Y104648D01*
X4166Y104517D01*
X4326Y104425D01*
X4505Y104377D01*
X4690D01*
X4869Y104425D01*
X5029Y104517D01*
X5160Y104648D01*
X5253Y104808D01*
X5301Y104987D01*
Y105172D01*
X5253Y105351D01*
X5160Y105512D01*
X5029Y105643D01*
X4869Y105735D01*
X4690Y105783D01*
D02*
G37*
G36*
X107993Y104534D02*
X107742D01*
X107499Y104469D01*
X107282Y104344D01*
X107104Y104166D01*
X106979Y103949D01*
X106971Y103918D01*
X106764D01*
X106755Y103949D01*
X106630Y104166D01*
X106452Y104344D01*
X106235Y104469D01*
X105993Y104534D01*
X105742D01*
X105499Y104469D01*
X105282Y104344D01*
X105104Y104166D01*
X104979Y103949D01*
X104914Y103707D01*
Y103456D01*
X104979Y103213D01*
X105104Y102996D01*
X105282Y102818D01*
X105499Y102693D01*
X105742Y102628D01*
X105993D01*
X106235Y102693D01*
X106452Y102818D01*
X106630Y102996D01*
X106755Y103213D01*
X106764Y103244D01*
X106971D01*
X106979Y103213D01*
X107104Y102996D01*
X107282Y102818D01*
X107499Y102693D01*
X107742Y102628D01*
X107993D01*
X108235Y102693D01*
X108452Y102818D01*
X108630Y102996D01*
X108755Y103213D01*
X108820Y103456D01*
Y103707D01*
X108755Y103949D01*
X108630Y104166D01*
X108452Y104344D01*
X108235Y104469D01*
X107993Y104534D01*
D02*
G37*
G36*
X132504Y104484D02*
X132253D01*
X132010Y104419D01*
X131793Y104293D01*
X131615Y104116D01*
X131490Y103898D01*
X131482Y103868D01*
X131275D01*
X131266Y103898D01*
X131141Y104116D01*
X130963Y104293D01*
X130746Y104419D01*
X130504Y104484D01*
X130253D01*
X130010Y104419D01*
X129793Y104293D01*
X129615Y104116D01*
X129490Y103898D01*
X129425Y103656D01*
Y103405D01*
X129490Y103162D01*
X129615Y102945D01*
X129793Y102768D01*
X130010Y102642D01*
X130253Y102577D01*
X130504D01*
X130746Y102642D01*
X130963Y102768D01*
X131141Y102945D01*
X131266Y103162D01*
X131275Y103193D01*
X131482D01*
X131490Y103162D01*
X131615Y102945D01*
X131793Y102768D01*
X132010Y102642D01*
X132253Y102577D01*
X132504D01*
X132746Y102642D01*
X132964Y102768D01*
X133141Y102945D01*
X133266Y103162D01*
X133331Y103405D01*
Y103656D01*
X133266Y103898D01*
X133141Y104116D01*
X132964Y104293D01*
X132746Y104419D01*
X132504Y104484D01*
D02*
G37*
G36*
X113679Y108744D02*
X113196D01*
X112722Y108650D01*
X112275Y108465D01*
X111873Y108197D01*
X111532Y107855D01*
X111263Y107453D01*
X111078Y107007D01*
X110984Y106533D01*
Y106050D01*
X111078Y105576D01*
X111263Y105129D01*
X111532Y104727D01*
X111873Y104386D01*
X112275Y104117D01*
X112722Y103932D01*
X113196Y103838D01*
X113679D01*
X114153Y103932D01*
X114599Y104117D01*
X115001Y104386D01*
X115343Y104727D01*
X115611Y105129D01*
X115796Y105576D01*
X115890Y106050D01*
Y106533D01*
X115796Y107007D01*
X115611Y107453D01*
X115343Y107855D01*
X115001Y108197D01*
X114599Y108465D01*
X114153Y108650D01*
X113679Y108744D01*
D02*
G37*
G36*
X100539D02*
X100056D01*
X99582Y108650D01*
X99135Y108465D01*
X98733Y108197D01*
X98392Y107855D01*
X98123Y107453D01*
X97938Y107007D01*
X97844Y106533D01*
Y106050D01*
X97938Y105576D01*
X98123Y105129D01*
X98392Y104727D01*
X98733Y104386D01*
X99135Y104117D01*
X99582Y103932D01*
X100056Y103838D01*
X100539D01*
X101013Y103932D01*
X101459Y104117D01*
X101861Y104386D01*
X102203Y104727D01*
X102471Y105129D01*
X102656Y105576D01*
X102750Y106050D01*
Y106533D01*
X102656Y107007D01*
X102471Y107453D01*
X102203Y107855D01*
X101861Y108197D01*
X101459Y108465D01*
X101013Y108650D01*
X100539Y108744D01*
D02*
G37*
G36*
X138190Y108694D02*
X137707D01*
X137233Y108599D01*
X136786Y108414D01*
X136384Y108146D01*
X136043Y107804D01*
X135774Y107402D01*
X135589Y106956D01*
X135495Y106482D01*
Y105999D01*
X135589Y105525D01*
X135774Y105078D01*
X136043Y104677D01*
X136384Y104335D01*
X136786Y104066D01*
X137233Y103882D01*
X137707Y103787D01*
X138190D01*
X138664Y103882D01*
X139110Y104066D01*
X139512Y104335D01*
X139854Y104677D01*
X140122Y105078D01*
X140307Y105525D01*
X140401Y105999D01*
Y106482D01*
X140307Y106956D01*
X140122Y107402D01*
X139854Y107804D01*
X139512Y108146D01*
X139110Y108414D01*
X138664Y108599D01*
X138190Y108694D01*
D02*
G37*
G36*
X125050D02*
X124567D01*
X124093Y108599D01*
X123646Y108414D01*
X123244Y108146D01*
X122903Y107804D01*
X122634Y107402D01*
X122449Y106956D01*
X122355Y106482D01*
Y105999D01*
X122449Y105525D01*
X122634Y105078D01*
X122903Y104677D01*
X123244Y104335D01*
X123646Y104066D01*
X124093Y103882D01*
X124567Y103787D01*
X125050D01*
X125524Y103882D01*
X125970Y104066D01*
X126372Y104335D01*
X126714Y104677D01*
X126982Y105078D01*
X127167Y105525D01*
X127261Y105999D01*
Y106482D01*
X127167Y106956D01*
X126982Y107402D01*
X126714Y107804D01*
X126372Y108146D01*
X125970Y108414D01*
X125524Y108599D01*
X125050Y108694D01*
D02*
G37*
G36*
X27466Y103716D02*
X27294D01*
X27135Y103651D01*
X27014Y103529D01*
X26948Y103370D01*
Y103199D01*
X27014Y103040D01*
X27135Y102918D01*
X27294Y102853D01*
X27466D01*
X27625Y102918D01*
X27746Y103040D01*
X27812Y103199D01*
Y103370D01*
X27746Y103529D01*
X27625Y103651D01*
X27466Y103716D01*
D02*
G37*
G36*
X110493Y104534D02*
X110242D01*
X109999Y104469D01*
X109782Y104344D01*
X109604Y104166D01*
X109479Y103949D01*
X109414Y103707D01*
Y103456D01*
X109479Y103213D01*
X109604Y102996D01*
X109782Y102818D01*
X109999Y102693D01*
X110242Y102628D01*
X110493D01*
X110735Y102693D01*
X110952Y102818D01*
X111130Y102996D01*
X111255Y103213D01*
X111320Y103456D01*
Y103707D01*
X111255Y103949D01*
X111130Y104166D01*
X110952Y104344D01*
X110735Y104469D01*
X110493Y104534D01*
D02*
G37*
G36*
X103493D02*
X103242D01*
X102999Y104469D01*
X102782Y104344D01*
X102604Y104166D01*
X102479Y103949D01*
X102414Y103707D01*
Y103456D01*
X102479Y103213D01*
X102604Y102996D01*
X102782Y102818D01*
X102999Y102693D01*
X103242Y102628D01*
X103493D01*
X103735Y102693D01*
X103952Y102818D01*
X104130Y102996D01*
X104255Y103213D01*
X104320Y103456D01*
Y103707D01*
X104255Y103949D01*
X104130Y104166D01*
X103952Y104344D01*
X103735Y104469D01*
X103493Y104534D01*
D02*
G37*
G36*
X135004Y104484D02*
X134753D01*
X134510Y104419D01*
X134293Y104293D01*
X134115Y104116D01*
X133990Y103898D01*
X133925Y103656D01*
Y103405D01*
X133990Y103162D01*
X134115Y102945D01*
X134293Y102768D01*
X134510Y102642D01*
X134753Y102577D01*
X135004D01*
X135246Y102642D01*
X135463Y102768D01*
X135641Y102945D01*
X135766Y103162D01*
X135831Y103405D01*
Y103656D01*
X135766Y103898D01*
X135641Y104116D01*
X135463Y104293D01*
X135246Y104419D01*
X135004Y104484D01*
D02*
G37*
G36*
X128004D02*
X127753D01*
X127510Y104419D01*
X127293Y104293D01*
X127115Y104116D01*
X126990Y103898D01*
X126925Y103656D01*
Y103405D01*
X126990Y103162D01*
X127115Y102945D01*
X127293Y102768D01*
X127510Y102642D01*
X127753Y102577D01*
X128004D01*
X128246Y102642D01*
X128463Y102768D01*
X128641Y102945D01*
X128766Y103162D01*
X128831Y103405D01*
Y103656D01*
X128766Y103898D01*
X128641Y104116D01*
X128463Y104293D01*
X128246Y104419D01*
X128004Y104484D01*
D02*
G37*
G36*
X201848Y102413D02*
X201606D01*
X201381Y102320D01*
X201210Y102149D01*
X201117Y101924D01*
Y101682D01*
X201210Y101458D01*
X201381Y101286D01*
X201606Y101194D01*
X201848D01*
X202072Y101286D01*
X202244Y101458D01*
X202336Y101682D01*
Y101924D01*
X202244Y102149D01*
X202072Y102320D01*
X201848Y102413D01*
D02*
G37*
G36*
X77328Y102007D02*
X77157D01*
X76998Y101941D01*
X76877Y101820D01*
X76811Y101661D01*
Y101489D01*
X76877Y101331D01*
X76998Y101209D01*
X77157Y101143D01*
X77328D01*
X77487Y101209D01*
X77609Y101331D01*
X77674Y101489D01*
Y101661D01*
X77609Y101820D01*
X77487Y101941D01*
X77328Y102007D01*
D02*
G37*
G36*
X84170Y102337D02*
X83927D01*
X83703Y102244D01*
X83532Y102072D01*
X83439Y101848D01*
Y101606D01*
X83532Y101382D01*
X83703Y101210D01*
X83927Y101117D01*
X84170D01*
X84394Y101210D01*
X84565Y101382D01*
X84658Y101606D01*
Y101848D01*
X84565Y102072D01*
X84394Y102244D01*
X84170Y102337D01*
D02*
G37*
G36*
X27466Y101801D02*
X27294D01*
X27135Y101735D01*
X27014Y101614D01*
X26948Y101455D01*
Y101283D01*
X27014Y101125D01*
X27135Y101003D01*
X27294Y100938D01*
X27466D01*
X27625Y101003D01*
X27746Y101125D01*
X27812Y101283D01*
Y101455D01*
X27746Y101614D01*
X27625Y101735D01*
X27466Y101801D01*
D02*
G37*
G36*
X92780Y101930D02*
X92538D01*
X92314Y101837D01*
X92142Y101666D01*
X92050Y101442D01*
Y101199D01*
X92142Y100975D01*
X92314Y100804D01*
X92538Y100711D01*
X92780D01*
X93004Y100804D01*
X93176Y100975D01*
X93269Y101199D01*
Y101442D01*
X93176Y101666D01*
X93004Y101837D01*
X92780Y101930D01*
D02*
G37*
G36*
X242820Y101490D02*
X242648D01*
X242489Y101424D01*
X242368Y101303D01*
X242302Y101144D01*
Y100972D01*
X242368Y100814D01*
X242489Y100692D01*
X242648Y100626D01*
X242820D01*
X242978Y100692D01*
X243100Y100814D01*
X243166Y100972D01*
Y101144D01*
X243100Y101303D01*
X242978Y101424D01*
X242820Y101490D01*
D02*
G37*
G36*
X67288Y100889D02*
X67116D01*
X66958Y100823D01*
X66836Y100702D01*
X66785Y100577D01*
X66772Y100575D01*
X66597D01*
X66585Y100577D01*
X66533Y100702D01*
X66412Y100823D01*
X66253Y100889D01*
X66081D01*
X65922Y100823D01*
X65801Y100702D01*
X65735Y100543D01*
Y100371D01*
X65801Y100212D01*
X65922Y100091D01*
X66081Y100025D01*
X66253D01*
X66412Y100091D01*
X66533Y100212D01*
X66585Y100337D01*
X66597Y100339D01*
X66772D01*
X66785Y100337D01*
X66836Y100212D01*
X66958Y100091D01*
X67116Y100025D01*
X67288D01*
X67447Y100091D01*
X67568Y100212D01*
X67634Y100371D01*
Y100543D01*
X67568Y100702D01*
X67447Y100823D01*
X67288Y100889D01*
D02*
G37*
G36*
X51165Y101321D02*
X50993D01*
X50835Y101255D01*
X50713Y101133D01*
X50648Y100975D01*
Y100803D01*
X50713Y100644D01*
X50835Y100523D01*
X50993Y100457D01*
X51165D01*
X51324Y100523D01*
X51445Y100644D01*
X51511Y100803D01*
Y100975D01*
X51445Y101133D01*
X51324Y101255D01*
X51165Y101321D01*
D02*
G37*
G36*
X79816Y101168D02*
X79645D01*
X79486Y101102D01*
X79365Y100981D01*
X79299Y100822D01*
Y100651D01*
X79365Y100492D01*
X79486Y100370D01*
X79645Y100305D01*
X79816D01*
X79975Y100370D01*
X80097Y100492D01*
X80162Y100651D01*
Y100822D01*
X80097Y100981D01*
X79975Y101102D01*
X79816Y101168D01*
D02*
G37*
G36*
X49133Y101143D02*
X48961D01*
X48803Y101077D01*
X48681Y100956D01*
X48616Y100797D01*
Y100625D01*
X48681Y100466D01*
X48803Y100345D01*
X48961Y100279D01*
X49133D01*
X49292Y100345D01*
X49413Y100466D01*
X49479Y100625D01*
Y100797D01*
X49413Y100956D01*
X49292Y101077D01*
X49133Y101143D01*
D02*
G37*
G36*
X63967Y100990D02*
X63795D01*
X63636Y100925D01*
X63515Y100803D01*
X63449Y100645D01*
Y100473D01*
X63515Y100314D01*
X63636Y100193D01*
X63795Y100127D01*
X63967D01*
X64126Y100193D01*
X64247Y100314D01*
X64313Y100473D01*
Y100645D01*
X64247Y100803D01*
X64126Y100925D01*
X63967Y100990D01*
D02*
G37*
G36*
X62875D02*
X62703D01*
X62544Y100925D01*
X62423Y100803D01*
X62357Y100645D01*
Y100473D01*
X62423Y100314D01*
X62544Y100193D01*
X62703Y100127D01*
X62875D01*
X63033Y100193D01*
X63155Y100314D01*
X63221Y100473D01*
Y100645D01*
X63155Y100803D01*
X63033Y100925D01*
X62875Y100990D01*
D02*
G37*
G36*
X150865Y101143D02*
X150622D01*
X150398Y101050D01*
X150227Y100879D01*
X150134Y100655D01*
Y100412D01*
X150227Y100188D01*
X150398Y100017D01*
X150622Y99924D01*
X150865D01*
X151089Y100017D01*
X151260Y100188D01*
X151353Y100412D01*
Y100655D01*
X151260Y100879D01*
X151089Y101050D01*
X150865Y101143D01*
D02*
G37*
G36*
X146971Y102673D02*
X146602D01*
X146245Y102577D01*
X145925Y102393D01*
X145664Y102131D01*
X145479Y101811D01*
X145383Y101455D01*
Y101085D01*
X145479Y100728D01*
X145664Y100408D01*
X145925Y100147D01*
X146245Y99962D01*
X146602Y99867D01*
X146971D01*
X147328Y99962D01*
X147648Y100147D01*
X147909Y100408D01*
X148094Y100728D01*
X148190Y101085D01*
Y101455D01*
X148094Y101811D01*
X147909Y102131D01*
X147648Y102393D01*
X147328Y102577D01*
X146971Y102673D01*
D02*
G37*
G36*
X56144Y100635D02*
X55972D01*
X55813Y100569D01*
X55692Y100448D01*
X55626Y100289D01*
Y100117D01*
X55692Y99958D01*
X55813Y99837D01*
X55972Y99771D01*
X56144D01*
X56302Y99837D01*
X56424Y99958D01*
X56490Y100117D01*
Y100289D01*
X56424Y100448D01*
X56302Y100569D01*
X56144Y100635D01*
D02*
G37*
G36*
X55051D02*
X54880D01*
X54721Y100569D01*
X54600Y100448D01*
X54534Y100289D01*
Y100117D01*
X54600Y99958D01*
X54721Y99837D01*
X54880Y99771D01*
X55051D01*
X55210Y99837D01*
X55332Y99958D01*
X55397Y100117D01*
Y100289D01*
X55332Y100448D01*
X55210Y100569D01*
X55051Y100635D01*
D02*
G37*
G36*
X50381Y100587D02*
X50209D01*
X50050Y100521D01*
X49929Y100400D01*
X49863Y100241D01*
Y100069D01*
X49929Y99910D01*
X50050Y99789D01*
X50209Y99723D01*
X50381D01*
X50539Y99789D01*
X50661Y99910D01*
X50727Y100069D01*
Y100241D01*
X50661Y100400D01*
X50539Y100521D01*
X50381Y100587D01*
D02*
G37*
G36*
X48346Y100406D02*
X48174D01*
X48015Y100340D01*
X47894Y100219D01*
X47828Y100060D01*
Y99889D01*
X47894Y99730D01*
X48015Y99608D01*
X48174Y99543D01*
X48346D01*
X48505Y99608D01*
X48626Y99730D01*
X48692Y99889D01*
Y100060D01*
X48626Y100219D01*
X48505Y100340D01*
X48346Y100406D01*
D02*
G37*
G36*
X78598Y100157D02*
X78427D01*
X78268Y100091D01*
X78147Y99970D01*
X78081Y99811D01*
Y99640D01*
X78147Y99481D01*
X78268Y99359D01*
X78427Y99294D01*
X78598D01*
X78757Y99359D01*
X78879Y99481D01*
X78944Y99640D01*
Y99811D01*
X78879Y99970D01*
X78757Y100091D01*
X78598Y100157D01*
D02*
G37*
G36*
X53172Y100051D02*
X53000D01*
X52841Y99985D01*
X52720Y99863D01*
X52654Y99705D01*
Y99533D01*
X52720Y99374D01*
X52841Y99253D01*
X53000Y99187D01*
X53172D01*
X53331Y99253D01*
X53452Y99374D01*
X53518Y99533D01*
Y99705D01*
X53452Y99863D01*
X53331Y99985D01*
X53172Y100051D01*
D02*
G37*
G36*
X52080D02*
X51908D01*
X51749Y99985D01*
X51628Y99863D01*
X51562Y99705D01*
Y99533D01*
X51628Y99374D01*
X51749Y99253D01*
X51908Y99187D01*
X52080D01*
X52238Y99253D01*
X52360Y99374D01*
X52426Y99533D01*
Y99705D01*
X52360Y99863D01*
X52238Y99985D01*
X52080Y100051D01*
D02*
G37*
G36*
X75119Y100030D02*
X74947D01*
X74788Y99964D01*
X74667Y99843D01*
X74601Y99684D01*
Y99513D01*
X74667Y99354D01*
X74788Y99232D01*
X74947Y99167D01*
X75119D01*
X75277Y99232D01*
X75399Y99354D01*
X75465Y99513D01*
Y99684D01*
X75399Y99843D01*
X75277Y99964D01*
X75119Y100030D01*
D02*
G37*
G36*
X27466Y99886D02*
X27294D01*
X27135Y99820D01*
X27014Y99699D01*
X26948Y99540D01*
Y99368D01*
X27014Y99210D01*
X27135Y99088D01*
X27294Y99022D01*
X27466D01*
X27625Y99088D01*
X27746Y99210D01*
X27812Y99368D01*
Y99540D01*
X27746Y99699D01*
X27625Y99820D01*
X27466Y99886D01*
D02*
G37*
G36*
X239340Y99712D02*
X239168D01*
X239009Y99647D01*
X238888Y99525D01*
X238822Y99366D01*
Y99195D01*
X238888Y99036D01*
X239009Y98915D01*
X239168Y98849D01*
X239340D01*
X239499Y98915D01*
X239620Y99036D01*
X239686Y99195D01*
Y99366D01*
X239620Y99525D01*
X239499Y99647D01*
X239340Y99712D01*
D02*
G37*
G36*
X242743Y99484D02*
X242572D01*
X242413Y99418D01*
X242292Y99297D01*
X242226Y99138D01*
Y98966D01*
X242292Y98807D01*
X242413Y98686D01*
X242572Y98620D01*
X242743D01*
X242902Y98686D01*
X243024Y98807D01*
X243089Y98966D01*
Y99138D01*
X243024Y99297D01*
X242902Y99418D01*
X242743Y99484D01*
D02*
G37*
G36*
X135452Y99720D02*
X135210D01*
X134986Y99628D01*
X134814Y99456D01*
X134722Y99232D01*
Y98990D01*
X134814Y98765D01*
X134986Y98594D01*
X135210Y98501D01*
X135452D01*
X135676Y98594D01*
X135848Y98765D01*
X135941Y98990D01*
Y99232D01*
X135848Y99456D01*
X135676Y99628D01*
X135452Y99720D01*
D02*
G37*
G36*
X236290Y99619D02*
X236048D01*
X235824Y99526D01*
X235652Y99355D01*
X235560Y99130D01*
Y98888D01*
X235652Y98664D01*
X235824Y98492D01*
X236048Y98400D01*
X236290D01*
X236515Y98492D01*
X236686Y98664D01*
X236779Y98888D01*
Y99130D01*
X236686Y99355D01*
X236515Y99526D01*
X236290Y99619D01*
D02*
G37*
G36*
X233979Y99543D02*
X233737D01*
X233512Y99450D01*
X233341Y99278D01*
X233248Y99054D01*
Y98812D01*
X233341Y98588D01*
X233512Y98416D01*
X233737Y98323D01*
X233979D01*
X234203Y98416D01*
X234375Y98588D01*
X234467Y98812D01*
Y99054D01*
X234375Y99278D01*
X234203Y99450D01*
X233979Y99543D01*
D02*
G37*
G36*
X110992Y99162D02*
X110750D01*
X110526Y99069D01*
X110354Y98897D01*
X110261Y98673D01*
Y98431D01*
X110354Y98207D01*
X110526Y98035D01*
X110750Y97942D01*
X110992D01*
X111216Y98035D01*
X111388Y98207D01*
X111481Y98431D01*
Y98673D01*
X111388Y98897D01*
X111216Y99069D01*
X110992Y99162D01*
D02*
G37*
G36*
X242743Y98163D02*
X242572D01*
X242413Y98097D01*
X242292Y97976D01*
X242226Y97817D01*
Y97645D01*
X242292Y97487D01*
X242413Y97365D01*
X242572Y97299D01*
X242743D01*
X242902Y97365D01*
X243024Y97487D01*
X243089Y97645D01*
Y97817D01*
X243024Y97976D01*
X242902Y98097D01*
X242743Y98163D01*
D02*
G37*
G36*
X27466Y97971D02*
X27294D01*
X27135Y97905D01*
X27014Y97784D01*
X26948Y97625D01*
Y97453D01*
X27014Y97294D01*
X27135Y97173D01*
X27294Y97107D01*
X27466D01*
X27625Y97173D01*
X27746Y97294D01*
X27812Y97453D01*
Y97625D01*
X27746Y97784D01*
X27625Y97905D01*
X27466Y97971D01*
D02*
G37*
G36*
X229088Y98315D02*
X228846D01*
X228622Y98223D01*
X228450Y98051D01*
X228357Y97827D01*
Y97585D01*
X228450Y97360D01*
X228622Y97189D01*
X228846Y97096D01*
X229088D01*
X229312Y97189D01*
X229484Y97360D01*
X229577Y97585D01*
Y97827D01*
X229484Y98051D01*
X229312Y98223D01*
X229088Y98315D01*
D02*
G37*
G36*
X239693Y97035D02*
X239493D01*
X239308Y96958D01*
X239274Y96924D01*
X239143Y96833D01*
X239012Y96924D01*
X238978Y96958D01*
X238793Y97035D01*
X238593D01*
X238408Y96958D01*
X238266Y96817D01*
X238190Y96632D01*
Y96432D01*
X238266Y96247D01*
X238373Y96140D01*
X238393Y96022D01*
X238373Y95903D01*
X238266Y95797D01*
X238190Y95612D01*
Y95412D01*
X238266Y95227D01*
X238373Y95120D01*
X238393Y95002D01*
X238373Y94883D01*
X238266Y94777D01*
X238190Y94592D01*
Y94392D01*
X238266Y94207D01*
X238408Y94065D01*
X238593Y93988D01*
X238793D01*
X238978Y94065D01*
X239012Y94099D01*
X239143Y94190D01*
X239274Y94099D01*
X239308Y94065D01*
X239493Y93988D01*
X239693D01*
X239878Y94065D01*
X240020Y94207D01*
X240096Y94392D01*
Y94592D01*
X240020Y94777D01*
X239913Y94883D01*
X239893Y95002D01*
X239913Y95120D01*
X240020Y95227D01*
X240096Y95412D01*
Y95612D01*
X240020Y95797D01*
X239913Y95903D01*
X239893Y96022D01*
X239913Y96140D01*
X240020Y96247D01*
X240096Y96432D01*
Y96632D01*
X240020Y96817D01*
X239878Y96958D01*
X239693Y97035D01*
D02*
G37*
G36*
X76160Y97541D02*
X75988D01*
X75830Y97475D01*
X75708Y97354D01*
X75642Y97195D01*
Y97023D01*
X75708Y96865D01*
X75830Y96743D01*
X75988Y96677D01*
X76160D01*
X76319Y96743D01*
X76440Y96865D01*
X76506Y97023D01*
Y97195D01*
X76440Y97354D01*
X76319Y97475D01*
X76160Y97541D01*
D02*
G37*
G36*
X81240Y97490D02*
X81068D01*
X80910Y97424D01*
X80788Y97303D01*
X80722Y97144D01*
Y96973D01*
X80788Y96814D01*
X80910Y96692D01*
X81068Y96627D01*
X81240D01*
X81399Y96692D01*
X81520Y96814D01*
X81586Y96973D01*
Y97144D01*
X81520Y97303D01*
X81399Y97424D01*
X81240Y97490D01*
D02*
G37*
G36*
X171972Y97796D02*
X171907D01*
Y96469D01*
X173234D01*
Y96534D01*
X173135Y96903D01*
X172944Y97235D01*
X172673Y97506D01*
X172341Y97697D01*
X171972Y97796D01*
D02*
G37*
G36*
X171653D02*
X171589D01*
X171219Y97697D01*
X170887Y97506D01*
X170617Y97235D01*
X170425Y96903D01*
X170326Y96534D01*
Y96469D01*
X171653D01*
Y97796D01*
D02*
G37*
G36*
X4690Y97783D02*
X4505D01*
X4326Y97735D01*
X4166Y97642D01*
X4035Y97512D01*
X3942Y97351D01*
X3894Y97172D01*
Y96987D01*
X3942Y96808D01*
X4035Y96648D01*
X4166Y96517D01*
X4326Y96425D01*
X4505Y96377D01*
X4690D01*
X4869Y96425D01*
X5029Y96517D01*
X5160Y96648D01*
X5253Y96808D01*
X5301Y96987D01*
Y97172D01*
X5253Y97351D01*
X5160Y97512D01*
X5029Y97642D01*
X4869Y97735D01*
X4690Y97783D01*
D02*
G37*
G36*
X48498Y96926D02*
X48326D01*
X48168Y96861D01*
X48046Y96739D01*
X47981Y96581D01*
Y96409D01*
X48046Y96250D01*
X48168Y96129D01*
X48326Y96063D01*
X48498D01*
X48657Y96129D01*
X48778Y96250D01*
X48844Y96409D01*
Y96581D01*
X48778Y96739D01*
X48657Y96861D01*
X48498Y96926D01*
D02*
G37*
G36*
X64983Y96799D02*
X64811D01*
X64652Y96734D01*
X64531Y96612D01*
X64465Y96454D01*
Y96282D01*
X64531Y96123D01*
X64652Y96002D01*
X64811Y95936D01*
X64983D01*
X65142Y96002D01*
X65263Y96123D01*
X65329Y96282D01*
Y96454D01*
X65263Y96612D01*
X65142Y96734D01*
X64983Y96799D01*
D02*
G37*
G36*
X63891D02*
X63719D01*
X63560Y96734D01*
X63439Y96612D01*
X63373Y96454D01*
Y96282D01*
X63439Y96123D01*
X63560Y96002D01*
X63719Y95936D01*
X63891D01*
X64049Y96002D01*
X64171Y96123D01*
X64237Y96282D01*
Y96454D01*
X64171Y96612D01*
X64049Y96734D01*
X63891Y96799D01*
D02*
G37*
G36*
X49590Y96749D02*
X49419D01*
X49260Y96683D01*
X49139Y96561D01*
X49073Y96403D01*
Y96231D01*
X49139Y96072D01*
X49260Y95951D01*
X49419Y95885D01*
X49590D01*
X49749Y95951D01*
X49871Y96072D01*
X49936Y96231D01*
Y96403D01*
X49871Y96561D01*
X49749Y96683D01*
X49590Y96749D01*
D02*
G37*
G36*
X242743Y96588D02*
X242572D01*
X242413Y96522D01*
X242292Y96401D01*
X242226Y96242D01*
Y96071D01*
X242292Y95912D01*
X242413Y95790D01*
X242572Y95725D01*
X242743D01*
X242902Y95790D01*
X243024Y95912D01*
X243089Y96071D01*
Y96242D01*
X243024Y96401D01*
X242902Y96522D01*
X242743Y96588D01*
D02*
G37*
G36*
X54416Y96545D02*
X54245D01*
X54086Y96480D01*
X53965Y96358D01*
X53899Y96200D01*
Y96028D01*
X53965Y95869D01*
X54086Y95748D01*
X54245Y95682D01*
X54416D01*
X54575Y95748D01*
X54697Y95869D01*
X54762Y96028D01*
Y96200D01*
X54697Y96358D01*
X54575Y96480D01*
X54416Y96545D01*
D02*
G37*
G36*
X53324D02*
X53152D01*
X52994Y96480D01*
X52872Y96358D01*
X52807Y96200D01*
Y96028D01*
X52872Y95869D01*
X52994Y95748D01*
X53152Y95682D01*
X53324D01*
X53483Y95748D01*
X53604Y95869D01*
X53670Y96028D01*
Y96200D01*
X53604Y96358D01*
X53483Y96480D01*
X53324Y96545D01*
D02*
G37*
G36*
X73720Y96495D02*
X73549D01*
X73390Y96429D01*
X73269Y96307D01*
X73203Y96149D01*
Y95977D01*
X73269Y95818D01*
X73390Y95697D01*
X73549Y95631D01*
X73720D01*
X73879Y95697D01*
X74001Y95818D01*
X74066Y95977D01*
Y96149D01*
X74001Y96307D01*
X73879Y96429D01*
X73720Y96495D01*
D02*
G37*
G36*
X75398Y96169D02*
X75226D01*
X75068Y96104D01*
X74946Y95982D01*
X74880Y95823D01*
Y95652D01*
X74946Y95493D01*
X75068Y95372D01*
X75226Y95306D01*
X75398D01*
X75557Y95372D01*
X75678Y95493D01*
X75744Y95652D01*
Y95823D01*
X75678Y95982D01*
X75557Y96104D01*
X75398Y96169D01*
D02*
G37*
G36*
X173234Y96215D02*
X171907D01*
Y94888D01*
X171972D01*
X172341Y94987D01*
X172673Y95179D01*
X172944Y95449D01*
X173135Y95781D01*
X173234Y96151D01*
Y96215D01*
D02*
G37*
G36*
X171653D02*
X170326D01*
Y96151D01*
X170425Y95781D01*
X170617Y95449D01*
X170887Y95179D01*
X171219Y94987D01*
X171589Y94888D01*
X171653D01*
Y96215D01*
D02*
G37*
G36*
X28254Y95479D02*
X28083D01*
X27924Y95413D01*
X27803Y95291D01*
X27737Y95133D01*
Y94961D01*
X27803Y94802D01*
X27924Y94681D01*
X28083Y94615D01*
X28254D01*
X28413Y94681D01*
X28535Y94802D01*
X28600Y94961D01*
Y95133D01*
X28535Y95291D01*
X28413Y95413D01*
X28254Y95479D01*
D02*
G37*
G36*
X163235Y95784D02*
X162992D01*
X162768Y95691D01*
X162597Y95519D01*
X162504Y95295D01*
Y95053D01*
X162597Y94829D01*
X162768Y94657D01*
X162992Y94564D01*
X163235D01*
X163459Y94657D01*
X163630Y94829D01*
X163723Y95053D01*
Y95295D01*
X163630Y95519D01*
X163459Y95691D01*
X163235Y95784D01*
D02*
G37*
G36*
X110789Y95148D02*
X110547D01*
X110322Y95056D01*
X110151Y94884D01*
X110058Y94660D01*
Y94418D01*
X110151Y94194D01*
X110322Y94022D01*
X110547Y93929D01*
X110789D01*
X111013Y94022D01*
X111185Y94194D01*
X111277Y94418D01*
Y94660D01*
X111185Y94884D01*
X111013Y95056D01*
X110789Y95148D01*
D02*
G37*
G36*
X150121Y94996D02*
X149879D01*
X149654Y94903D01*
X149483Y94732D01*
X149390Y94508D01*
Y94265D01*
X149483Y94041D01*
X149654Y93870D01*
X149879Y93777D01*
X150121D01*
X150345Y93870D01*
X150517Y94041D01*
X150609Y94265D01*
Y94508D01*
X150517Y94732D01*
X150345Y94903D01*
X150121Y94996D01*
D02*
G37*
G36*
X22396Y94872D02*
X22153D01*
X21929Y94779D01*
X21758Y94608D01*
X21665Y94384D01*
Y94141D01*
X21758Y93917D01*
X21929Y93746D01*
X22153Y93653D01*
X22396D01*
X22620Y93746D01*
X22791Y93917D01*
X22884Y94141D01*
Y94384D01*
X22791Y94608D01*
X22620Y94779D01*
X22396Y94872D01*
D02*
G37*
G36*
X74200Y94493D02*
X74029D01*
X73870Y94427D01*
X73749Y94306D01*
X73683Y94147D01*
Y93975D01*
X73749Y93817D01*
X73870Y93695D01*
X74029Y93629D01*
X74200D01*
X74359Y93695D01*
X74481Y93817D01*
X74546Y93975D01*
Y94147D01*
X74481Y94306D01*
X74359Y94427D01*
X74200Y94493D01*
D02*
G37*
G36*
X135275Y94844D02*
X135032D01*
X134808Y94751D01*
X134637Y94579D01*
X134544Y94355D01*
Y94113D01*
X134637Y93889D01*
X134808Y93717D01*
X135032Y93624D01*
X135275D01*
X135499Y93717D01*
X135670Y93889D01*
X135763Y94113D01*
Y94355D01*
X135670Y94579D01*
X135499Y94751D01*
X135275Y94844D01*
D02*
G37*
G36*
X72346Y94468D02*
X72175D01*
X72016Y94402D01*
X71895Y94280D01*
X71829Y94122D01*
Y93950D01*
X71895Y93791D01*
X72016Y93670D01*
X72175Y93604D01*
X72346D01*
X72505Y93670D01*
X72627Y93791D01*
X72692Y93950D01*
Y94122D01*
X72627Y94280D01*
X72505Y94402D01*
X72346Y94468D01*
D02*
G37*
G36*
X48066Y113157D02*
X47895D01*
X47736Y113091D01*
X47615Y112970D01*
X47549Y112811D01*
Y112639D01*
X47615Y112481D01*
X47736Y112359D01*
X47895Y112293D01*
X48066D01*
X48225Y112359D01*
X48255Y112389D01*
X48730D01*
X58309Y102810D01*
X58418Y102737D01*
X58547Y102711D01*
X64467D01*
X64541Y102600D01*
Y102429D01*
X64607Y102270D01*
X64729Y102148D01*
X64887Y102083D01*
X65059D01*
X65218Y102148D01*
X65339Y102270D01*
X65405Y102429D01*
Y102600D01*
X65634D01*
Y102429D01*
X65699Y102270D01*
X65821Y102148D01*
X65980Y102083D01*
X66151D01*
X66310Y102148D01*
X66431Y102270D01*
X66497Y102429D01*
Y102600D01*
X66571Y102711D01*
X73546D01*
X82427Y93830D01*
Y93766D01*
X82372Y93634D01*
Y93462D01*
X82438Y93304D01*
X82559Y93182D01*
X82718Y93116D01*
X82890D01*
X83049Y93182D01*
X83170Y93304D01*
X83236Y93462D01*
Y93634D01*
X83170Y93793D01*
X83100Y93863D01*
Y93970D01*
X83075Y94099D01*
X83002Y94208D01*
X73923Y103286D01*
X73814Y103359D01*
X73685Y103384D01*
X58686D01*
X49108Y112963D01*
X48998Y113036D01*
X48870Y113062D01*
X48255D01*
X48225Y113091D01*
X48066Y113157D01*
D02*
G37*
G36*
X57591Y93650D02*
X57420D01*
X57261Y93584D01*
X57140Y93463D01*
X57074Y93304D01*
Y93132D01*
X57140Y92973D01*
X57261Y92852D01*
X57420Y92786D01*
X57591D01*
X57750Y92852D01*
X57872Y92973D01*
X57937Y93132D01*
Y93304D01*
X57872Y93463D01*
X57750Y93584D01*
X57591Y93650D01*
D02*
G37*
G36*
X71690Y93604D02*
X71518D01*
X71359Y93538D01*
X71238Y93417D01*
X71172Y93258D01*
Y93086D01*
X71238Y92928D01*
X71359Y92806D01*
X71518Y92740D01*
X71690D01*
X71848Y92806D01*
X71970Y92928D01*
X72036Y93086D01*
Y93258D01*
X71970Y93417D01*
X71848Y93538D01*
X71690Y93604D01*
D02*
G37*
G36*
X62392Y93269D02*
X62220D01*
X62062Y93203D01*
X61940Y93082D01*
X61874Y92923D01*
Y92751D01*
X61940Y92592D01*
X62062Y92471D01*
X62220Y92405D01*
X62392D01*
X62551Y92471D01*
X62672Y92592D01*
X62738Y92751D01*
Y92923D01*
X62672Y93082D01*
X62551Y93203D01*
X62392Y93269D01*
D02*
G37*
G36*
X201912Y95155D02*
X201542D01*
X201185Y95059D01*
X200865Y94874D01*
X200604Y94613D01*
X200419Y94293D01*
X200324Y93936D01*
Y93567D01*
X200419Y93210D01*
X200604Y92890D01*
X200865Y92629D01*
X201185Y92444D01*
X201542Y92348D01*
X201912D01*
X202268Y92444D01*
X202588Y92629D01*
X202850Y92890D01*
X203034Y93210D01*
X203130Y93567D01*
Y93936D01*
X203034Y94293D01*
X202850Y94613D01*
X202588Y94874D01*
X202268Y95059D01*
X201912Y95155D01*
D02*
G37*
G36*
X73400Y92969D02*
X73229D01*
X73070Y92903D01*
X72949Y92782D01*
X72883Y92623D01*
Y92451D01*
X72949Y92293D01*
X73070Y92171D01*
X73229Y92105D01*
X73400D01*
X73559Y92171D01*
X73681Y92293D01*
X73746Y92451D01*
Y92623D01*
X73681Y92782D01*
X73559Y92903D01*
X73400Y92969D01*
D02*
G37*
G36*
X240204Y92702D02*
X240032D01*
X239873Y92636D01*
X239752Y92515D01*
X239686Y92356D01*
Y92184D01*
X239752Y92026D01*
X239873Y91904D01*
X240032Y91838D01*
X240204D01*
X240362Y91904D01*
X240484Y92026D01*
X240549Y92184D01*
Y92356D01*
X240484Y92515D01*
X240362Y92636D01*
X240204Y92702D01*
D02*
G37*
G36*
X237917D02*
X237746D01*
X237587Y92636D01*
X237466Y92515D01*
X237400Y92356D01*
Y92184D01*
X237466Y92026D01*
X237587Y91904D01*
X237746Y91838D01*
X237917D01*
X238076Y91904D01*
X238198Y92026D01*
X238263Y92184D01*
Y92356D01*
X238198Y92515D01*
X238076Y92636D01*
X237917Y92702D01*
D02*
G37*
G36*
X225282Y92431D02*
X225111D01*
X224952Y92365D01*
X224830Y92243D01*
X224765Y92085D01*
Y91913D01*
X224830Y91754D01*
X224952Y91633D01*
X225111Y91567D01*
X225282D01*
X225441Y91633D01*
X225562Y91754D01*
X225628Y91913D01*
Y92085D01*
X225562Y92243D01*
X225441Y92365D01*
X225282Y92431D01*
D02*
G37*
G36*
X75000Y91801D02*
X74829D01*
X74670Y91735D01*
X74549Y91613D01*
X74483Y91455D01*
Y91283D01*
X74549Y91124D01*
X74670Y91003D01*
X74829Y90937D01*
X75000D01*
X75159Y91003D01*
X75281Y91124D01*
X75346Y91283D01*
Y91455D01*
X75281Y91613D01*
X75159Y91735D01*
X75000Y91801D01*
D02*
G37*
G36*
X231063Y91067D02*
X230891D01*
X230733Y91001D01*
X230611Y90879D01*
X230545Y90721D01*
Y90549D01*
X230611Y90390D01*
X230733Y90269D01*
X230891Y90203D01*
X231063D01*
X231222Y90269D01*
X231343Y90390D01*
X231409Y90549D01*
Y90721D01*
X231343Y90879D01*
X231222Y91001D01*
X231063Y91067D01*
D02*
G37*
G36*
X234492Y90965D02*
X234320D01*
X234162Y90899D01*
X234040Y90778D01*
X233974Y90619D01*
Y90447D01*
X234040Y90289D01*
X234162Y90167D01*
X234320Y90101D01*
X234492D01*
X234651Y90167D01*
X234772Y90289D01*
X234838Y90447D01*
Y90619D01*
X234772Y90778D01*
X234651Y90899D01*
X234492Y90965D01*
D02*
G37*
G36*
X170327Y90475D02*
X170084D01*
X169860Y90382D01*
X169689Y90211D01*
X169596Y89986D01*
Y89744D01*
X169689Y89520D01*
X169860Y89348D01*
X170084Y89256D01*
X170327D01*
X170551Y89348D01*
X170722Y89520D01*
X170815Y89744D01*
Y89986D01*
X170722Y90211D01*
X170551Y90382D01*
X170327Y90475D01*
D02*
G37*
G36*
X230779Y89052D02*
X230536D01*
X230312Y88960D01*
X230141Y88788D01*
X230048Y88564D01*
Y88322D01*
X230141Y88097D01*
X230312Y87926D01*
X230536Y87833D01*
X230779D01*
X231003Y87926D01*
X231174Y88097D01*
X231267Y88322D01*
Y88564D01*
X231174Y88788D01*
X231003Y88960D01*
X230779Y89052D01*
D02*
G37*
G36*
X241712Y88511D02*
X241470D01*
X241245Y88418D01*
X241074Y88247D01*
X240981Y88023D01*
Y87780D01*
X241074Y87556D01*
X241245Y87385D01*
X241470Y87292D01*
X241712D01*
X241936Y87385D01*
X242108Y87556D01*
X242200Y87780D01*
Y88023D01*
X242108Y88247D01*
X241936Y88418D01*
X241712Y88511D01*
D02*
G37*
G36*
X149577Y88475D02*
X149334D01*
X149110Y88382D01*
X148939Y88211D01*
X148846Y87986D01*
Y87744D01*
X148939Y87520D01*
X149110Y87348D01*
X149334Y87256D01*
X149577D01*
X149801Y87348D01*
X149972Y87520D01*
X150065Y87744D01*
Y87986D01*
X149972Y88211D01*
X149801Y88382D01*
X149577Y88475D01*
D02*
G37*
G36*
X244342Y87325D02*
X244100D01*
X243876Y87232D01*
X243704Y87061D01*
X243611Y86837D01*
Y86594D01*
X243704Y86370D01*
X243876Y86199D01*
X244100Y86106D01*
X244342D01*
X244566Y86199D01*
X244738Y86370D01*
X244831Y86594D01*
Y86837D01*
X244738Y87061D01*
X244566Y87232D01*
X244342Y87325D01*
D02*
G37*
G36*
X233686Y86854D02*
X233443D01*
X233219Y86761D01*
X233048Y86590D01*
X232955Y86366D01*
Y86123D01*
X233048Y85899D01*
X233219Y85728D01*
X233443Y85635D01*
X233686D01*
X233910Y85728D01*
X234081Y85899D01*
X234174Y86123D01*
Y86366D01*
X234081Y86590D01*
X233910Y86761D01*
X233686Y86854D01*
D02*
G37*
G36*
X17850Y86741D02*
X17608D01*
X17384Y86648D01*
X17212Y86477D01*
X17120Y86253D01*
Y86010D01*
X17212Y85786D01*
X17384Y85615D01*
X17608Y85522D01*
X17850D01*
X18074Y85615D01*
X18246Y85786D01*
X18339Y86010D01*
Y86253D01*
X18246Y86477D01*
X18074Y86648D01*
X17850Y86741D01*
D02*
G37*
G36*
X178290Y87662D02*
X177920D01*
X177563Y87566D01*
X177243Y87381D01*
X176982Y87120D01*
X176797Y86800D01*
X176702Y86443D01*
Y86074D01*
X176797Y85717D01*
X176982Y85397D01*
X177243Y85136D01*
X177563Y84951D01*
X177920Y84855D01*
X178290D01*
X178646Y84951D01*
X178966Y85136D01*
X179228Y85397D01*
X179412Y85717D01*
X179508Y86074D01*
Y86443D01*
X179412Y86800D01*
X179228Y87120D01*
X178966Y87381D01*
X178646Y87566D01*
X178290Y87662D01*
D02*
G37*
G36*
X25524Y85310D02*
X25352D01*
X25193Y85244D01*
X25072Y85122D01*
X25006Y84964D01*
Y84792D01*
X25072Y84633D01*
X25193Y84512D01*
X25352Y84446D01*
X25524D01*
X25683Y84512D01*
X25804Y84633D01*
X25870Y84792D01*
Y84964D01*
X25804Y85122D01*
X25683Y85244D01*
X25524Y85310D01*
D02*
G37*
G36*
X172858Y84511D02*
X172686D01*
X172527Y84445D01*
X172406Y84324D01*
X172340Y84165D01*
Y83993D01*
X172406Y83834D01*
X172527Y83713D01*
X172686Y83647D01*
X172858D01*
X173017Y83713D01*
X173138Y83834D01*
X173204Y83993D01*
Y84165D01*
X173138Y84324D01*
X173017Y84445D01*
X172858Y84511D01*
D02*
G37*
G36*
X156562Y86368D02*
X155262D01*
X155183Y86352D01*
X155116Y86307D01*
X155071Y86240D01*
X155055Y86160D01*
Y81685D01*
X155071Y81606D01*
X155116Y81539D01*
X155183Y81494D01*
X155262Y81478D01*
X156562D01*
X156641Y81494D01*
X156709Y81539D01*
X156754Y81606D01*
X156769Y81685D01*
Y86160D01*
X156754Y86240D01*
X156709Y86307D01*
X156641Y86352D01*
X156562Y86368D01*
D02*
G37*
G36*
X70191Y81412D02*
X70019D01*
X69861Y81346D01*
X69739Y81225D01*
X69673Y81066D01*
Y80894D01*
X69739Y80736D01*
X69861Y80614D01*
X70019Y80548D01*
X70191D01*
X70350Y80614D01*
X70471Y80736D01*
X70537Y80894D01*
Y81066D01*
X70471Y81225D01*
X70350Y81346D01*
X70191Y81412D01*
D02*
G37*
G36*
X173577Y81225D02*
X173334D01*
X173110Y81132D01*
X172939Y80961D01*
X172846Y80737D01*
Y80494D01*
X172939Y80270D01*
X173110Y80098D01*
X173334Y80006D01*
X173577D01*
X173801Y80098D01*
X173972Y80270D01*
X174065Y80494D01*
Y80737D01*
X173972Y80961D01*
X173801Y81132D01*
X173577Y81225D01*
D02*
G37*
G36*
X145546Y79269D02*
X145466D01*
Y77292D01*
X147443D01*
Y77372D01*
X147362Y77779D01*
X147203Y78162D01*
X146973Y78506D01*
X146680Y78799D01*
X146335Y79030D01*
X145953Y79188D01*
X145546Y79269D01*
D02*
G37*
G36*
X145212D02*
X145132D01*
X144725Y79188D01*
X144342Y79030D01*
X143998Y78799D01*
X143705Y78506D01*
X143474Y78162D01*
X143316Y77779D01*
X143235Y77372D01*
Y77292D01*
X145212D01*
Y79269D01*
D02*
G37*
G36*
X198190Y100203D02*
X197948D01*
X197724Y100110D01*
X197552Y99939D01*
X197460Y99715D01*
Y99472D01*
X197552Y99248D01*
X197724Y99077D01*
X197733Y99073D01*
Y83731D01*
X191138Y77136D01*
X191129Y77140D01*
X190887D01*
X190663Y77047D01*
X190491Y76876D01*
X190398Y76651D01*
Y76409D01*
X190491Y76185D01*
X190663Y76013D01*
X190887Y75921D01*
X191129D01*
X191353Y76013D01*
X191525Y76185D01*
X191618Y76409D01*
Y76651D01*
X191614Y76660D01*
X198307Y83353D01*
X198380Y83463D01*
X198406Y83591D01*
Y99073D01*
X198415Y99077D01*
X198586Y99248D01*
X198679Y99472D01*
Y99715D01*
X198586Y99939D01*
X198415Y100110D01*
X198190Y100203D01*
D02*
G37*
G36*
X14193Y77572D02*
X13950D01*
X13726Y77479D01*
X13555Y77307D01*
X13462Y77083D01*
Y76841D01*
X13555Y76617D01*
X13726Y76445D01*
X13950Y76352D01*
X14193D01*
X14417Y76445D01*
X14588Y76617D01*
X14681Y76841D01*
Y77083D01*
X14588Y77307D01*
X14417Y77479D01*
X14193Y77572D01*
D02*
G37*
G36*
X147443Y77038D02*
X145466D01*
Y75061D01*
X145546D01*
X145953Y75142D01*
X146335Y75301D01*
X146680Y75531D01*
X146973Y75824D01*
X147203Y76169D01*
X147362Y76551D01*
X147443Y76958D01*
Y77038D01*
D02*
G37*
G36*
X145212D02*
X143235D01*
Y76958D01*
X143316Y76551D01*
X143474Y76169D01*
X143705Y75824D01*
X143998Y75531D01*
X144342Y75301D01*
X144725Y75142D01*
X145132Y75061D01*
X145212D01*
Y77038D01*
D02*
G37*
G36*
X22486Y74588D02*
X22314D01*
X22156Y74522D01*
X22126Y74493D01*
X12866D01*
X12737Y74467D01*
X12628Y74394D01*
X11014Y72780D01*
X11014Y72780D01*
X10941Y72671D01*
X10916Y72542D01*
Y71209D01*
X9862Y70155D01*
X9820D01*
X9661Y70089D01*
X9540Y69968D01*
X9474Y69809D01*
Y69637D01*
X9540Y69478D01*
X9661Y69357D01*
X9820Y69291D01*
X9992D01*
X10151Y69357D01*
X10272Y69478D01*
X10338Y69637D01*
Y69679D01*
X11490Y70831D01*
X11563Y70940D01*
X11589Y71069D01*
Y72403D01*
X13006Y73820D01*
X22126D01*
X22156Y73790D01*
X22314Y73725D01*
X22486D01*
X22645Y73790D01*
X22766Y73912D01*
X22832Y74071D01*
Y74242D01*
X22766Y74401D01*
X22645Y74522D01*
X22486Y74588D01*
D02*
G37*
G36*
X231212Y74287D02*
X231040D01*
X230881Y74221D01*
X230760Y74100D01*
X230694Y73941D01*
Y73769D01*
X230760Y73611D01*
X230881Y73489D01*
X231040Y73423D01*
X231212D01*
X231371Y73489D01*
X231492Y73611D01*
X231558Y73769D01*
Y73941D01*
X231492Y74100D01*
X231371Y74221D01*
X231212Y74287D01*
D02*
G37*
G36*
X217293Y73601D02*
X217121D01*
X216962Y73535D01*
X216841Y73414D01*
X216775Y73255D01*
Y73084D01*
X216841Y72925D01*
X216962Y72803D01*
X217121Y72738D01*
X217293D01*
X217451Y72803D01*
X217573Y72925D01*
X217639Y73084D01*
Y73255D01*
X217573Y73414D01*
X217451Y73535D01*
X217293Y73601D01*
D02*
G37*
G36*
X27638Y73108D02*
X27467D01*
X27308Y73042D01*
X27187Y72920D01*
X27121Y72762D01*
Y72590D01*
X27187Y72431D01*
X27308Y72310D01*
X27467Y72244D01*
X27638D01*
X27797Y72310D01*
X27919Y72431D01*
X27984Y72590D01*
Y72762D01*
X27919Y72920D01*
X27797Y73042D01*
X27638Y73108D01*
D02*
G37*
G36*
X7407Y73515D02*
X6407D01*
X6210Y73489D01*
X6027Y73413D01*
X5870Y73293D01*
X5749Y73135D01*
X5673Y72952D01*
X5647Y72755D01*
X5673Y72559D01*
X5749Y72376D01*
X5870Y72218D01*
X6027Y72098D01*
X6210Y72022D01*
X6407Y71996D01*
X7407D01*
X7603Y72022D01*
X7787Y72098D01*
X7944Y72218D01*
X8065Y72376D01*
X8141Y72559D01*
X8167Y72755D01*
X8141Y72952D01*
X8065Y73135D01*
X7944Y73293D01*
X7787Y73413D01*
X7603Y73489D01*
X7407Y73515D01*
D02*
G37*
G36*
X55534Y93015D02*
X55362D01*
X55204Y92949D01*
X55082Y92828D01*
X55016Y92669D01*
Y92497D01*
X55082Y92338D01*
X55204Y92217D01*
X55212Y92213D01*
X55244Y92156D01*
X55259Y91978D01*
X53815Y90533D01*
X53815Y90533D01*
X35259Y71978D01*
X20141D01*
X20059Y72178D01*
X20120Y72239D01*
X20213Y72463D01*
Y72706D01*
X20120Y72930D01*
X19948Y73101D01*
X19724Y73194D01*
X19482D01*
X19258Y73101D01*
X19086Y72930D01*
X18994Y72706D01*
Y72463D01*
X19086Y72239D01*
X19148Y72178D01*
X19065Y71978D01*
X16666D01*
X16548Y71954D01*
X16448Y71888D01*
X15869Y71308D01*
X15739D01*
X15739Y71308D01*
X15580Y71374D01*
X15408D01*
X15249Y71308D01*
X15128Y71187D01*
X15062Y71028D01*
Y70856D01*
X15128Y70698D01*
X15249Y70576D01*
X15408Y70510D01*
X15580D01*
X15739Y70576D01*
X15849Y70687D01*
X16035Y70647D01*
X16068Y70476D01*
X16002Y70317D01*
Y70145D01*
X16068Y69986D01*
X16189Y69865D01*
X16348Y69799D01*
X16520D01*
X16678Y69865D01*
X16800Y69986D01*
X16866Y70145D01*
Y70317D01*
X16800Y70476D01*
X16780Y70495D01*
Y70751D01*
X16969Y70939D01*
X35562D01*
X35680Y70963D01*
X35780Y71030D01*
X56343Y91592D01*
X56343Y91592D01*
X56410Y91693D01*
X56433Y91811D01*
X56525Y91923D01*
X56683Y91988D01*
X56805Y92110D01*
X56871Y92269D01*
Y92440D01*
X56805Y92599D01*
X56683Y92720D01*
X56525Y92786D01*
X56353D01*
X56194Y92720D01*
X56080Y92606D01*
X56042Y92608D01*
X55880Y92656D01*
Y92669D01*
X55814Y92828D01*
X55693Y92949D01*
X55534Y93015D01*
D02*
G37*
G36*
X59008Y73732D02*
X58928D01*
Y71755D01*
X60905D01*
Y71835D01*
X60824Y72242D01*
X60666Y72625D01*
X60435Y72969D01*
X60142Y73262D01*
X59798Y73493D01*
X59415Y73651D01*
X59008Y73732D01*
D02*
G37*
G36*
X58674D02*
X58594D01*
X58187Y73651D01*
X57804Y73493D01*
X57460Y73262D01*
X57167Y72969D01*
X56936Y72625D01*
X56778Y72242D01*
X56697Y71835D01*
Y71755D01*
X58674D01*
Y73732D01*
D02*
G37*
G36*
X168156Y72566D02*
X167914D01*
X167690Y72473D01*
X167518Y72301D01*
X167426Y72077D01*
Y71835D01*
X167518Y71611D01*
X167690Y71439D01*
X167914Y71346D01*
X168156D01*
X168381Y71439D01*
X168552Y71611D01*
X168645Y71835D01*
Y72077D01*
X168552Y72301D01*
X168381Y72473D01*
X168156Y72566D01*
D02*
G37*
G36*
X244011Y73227D02*
X243211D01*
X242976Y73180D01*
X242776Y73047D01*
X242643Y72848D01*
X242596Y72612D01*
Y71812D01*
X242643Y71577D01*
X242776Y71377D01*
X242976Y71244D01*
X243211Y71197D01*
X244011D01*
X244247Y71244D01*
X244446Y71377D01*
X244580Y71577D01*
X244626Y71812D01*
Y72612D01*
X244580Y72848D01*
X244446Y73047D01*
X244247Y73180D01*
X244011Y73227D01*
D02*
G37*
G36*
X243750Y70726D02*
X243738D01*
Y69799D01*
X244665D01*
Y69811D01*
X244594Y70079D01*
X244455Y70319D01*
X244259Y70516D01*
X244018Y70654D01*
X243750Y70726D01*
D02*
G37*
G36*
X243484D02*
X243473D01*
X243205Y70654D01*
X242964Y70516D01*
X242768Y70319D01*
X242629Y70079D01*
X242557Y69811D01*
Y69799D01*
X243484D01*
Y70726D01*
D02*
G37*
G36*
X12936Y72963D02*
X12764D01*
X12605Y72897D01*
X12484Y72775D01*
X12418Y72617D01*
Y72445D01*
X12484Y72286D01*
X12515Y72255D01*
X12584Y72124D01*
X12515Y71994D01*
X12484Y71963D01*
X12418Y71804D01*
Y71632D01*
X12484Y71473D01*
X12515Y71442D01*
X12584Y71312D01*
X12515Y71181D01*
X12484Y71150D01*
X12418Y70991D01*
Y70819D01*
X12484Y70661D01*
X12515Y70629D01*
X12584Y70499D01*
X12515Y70368D01*
X12484Y70337D01*
X12418Y70178D01*
Y70007D01*
X12484Y69848D01*
X12605Y69726D01*
X12764Y69661D01*
X12936D01*
X13094Y69726D01*
X13216Y69848D01*
X13282Y70007D01*
Y70178D01*
X13216Y70337D01*
X13185Y70368D01*
X13116Y70499D01*
X13185Y70629D01*
X13216Y70661D01*
X13282Y70819D01*
Y70991D01*
X13216Y71150D01*
X13185Y71181D01*
X13116Y71312D01*
X13185Y71442D01*
X13216Y71473D01*
X13282Y71632D01*
Y71804D01*
X13216Y71963D01*
X13185Y71994D01*
X13116Y72124D01*
X13185Y72255D01*
X13216Y72286D01*
X13282Y72445D01*
Y72617D01*
X13216Y72775D01*
X13094Y72897D01*
X12936Y72963D01*
D02*
G37*
G36*
X60905Y71501D02*
X58928D01*
Y69524D01*
X59008D01*
X59415Y69605D01*
X59798Y69763D01*
X60142Y69994D01*
X60435Y70287D01*
X60666Y70631D01*
X60824Y71014D01*
X60905Y71421D01*
Y71501D01*
D02*
G37*
G36*
X58674D02*
X56697D01*
Y71421D01*
X56778Y71014D01*
X56936Y70631D01*
X57167Y70287D01*
X57460Y69994D01*
X57804Y69763D01*
X58187Y69605D01*
X58594Y69524D01*
X58674D01*
Y71501D01*
D02*
G37*
G36*
X170707Y69630D02*
X170535D01*
X170377Y69564D01*
X170255Y69443D01*
X170189Y69284D01*
Y69112D01*
X170255Y68953D01*
X170377Y68832D01*
X170535Y68766D01*
X170707D01*
X170866Y68832D01*
X170987Y68953D01*
X171053Y69112D01*
Y69284D01*
X170987Y69443D01*
X170866Y69564D01*
X170707Y69630D01*
D02*
G37*
G36*
X244665Y69545D02*
X243738D01*
Y68618D01*
X243750D01*
X244018Y68690D01*
X244259Y68829D01*
X244455Y69025D01*
X244594Y69265D01*
X244665Y69533D01*
Y69545D01*
D02*
G37*
G36*
X243484D02*
X242557D01*
Y69533D01*
X242629Y69265D01*
X242768Y69025D01*
X242964Y68829D01*
X243205Y68690D01*
X243473Y68618D01*
X243484D01*
Y69545D01*
D02*
G37*
G36*
X29280Y69723D02*
X29038D01*
X28814Y69630D01*
X28642Y69459D01*
X28550Y69235D01*
Y68992D01*
X28642Y68768D01*
X28814Y68597D01*
X29038Y68504D01*
X29280D01*
X29504Y68597D01*
X29676Y68768D01*
X29769Y68992D01*
Y69235D01*
X29676Y69459D01*
X29504Y69630D01*
X29280Y69723D01*
D02*
G37*
G36*
X159519Y68706D02*
X159348D01*
X159189Y68640D01*
X159067Y68518D01*
X159002Y68360D01*
Y68188D01*
X159067Y68029D01*
X159189Y67908D01*
X159348Y67842D01*
X159519D01*
X159678Y67908D01*
X159799Y68029D01*
X159865Y68188D01*
Y68360D01*
X159799Y68518D01*
X159678Y68640D01*
X159519Y68706D01*
D02*
G37*
G36*
X6919Y69240D02*
X6747D01*
X6588Y69175D01*
X6467Y69053D01*
X6401Y68894D01*
Y68723D01*
X6467Y68564D01*
X6492Y68342D01*
X6473Y68297D01*
X6426Y68184D01*
Y68012D01*
X6492Y67853D01*
X6613Y67732D01*
X6772Y67666D01*
X6944D01*
X7102Y67732D01*
X7224Y67853D01*
X7289Y68012D01*
Y68184D01*
X7224Y68342D01*
X7199Y68564D01*
X7218Y68610D01*
X7264Y68723D01*
Y68894D01*
X7199Y69053D01*
X7077Y69175D01*
X6919Y69240D01*
D02*
G37*
G36*
X8922Y69229D02*
X8751D01*
X8592Y69163D01*
X8471Y69042D01*
X8405Y68883D01*
Y68711D01*
X8471Y68552D01*
X8475Y68335D01*
X8445Y68305D01*
X8379Y68146D01*
Y67975D01*
X8445Y67816D01*
X8567Y67694D01*
X8725Y67629D01*
X8897D01*
X9056Y67694D01*
X9177Y67816D01*
X9243Y67975D01*
Y68146D01*
X9177Y68305D01*
X9173Y68522D01*
X9203Y68552D01*
X9268Y68711D01*
Y68883D01*
X9203Y69042D01*
X9081Y69163D01*
X8922Y69229D01*
D02*
G37*
G36*
X222119Y68166D02*
X221947D01*
X221788Y68100D01*
X221667Y67978D01*
X221601Y67820D01*
Y67648D01*
X221667Y67489D01*
X221788Y67368D01*
X221947Y67302D01*
X222119D01*
X222277Y67368D01*
X222399Y67489D01*
X222465Y67648D01*
Y67820D01*
X222399Y67978D01*
X222277Y68100D01*
X222119Y68166D01*
D02*
G37*
G36*
X9484Y67234D02*
X9312D01*
X9153Y67168D01*
X9032Y67047D01*
X8966Y66888D01*
Y66716D01*
X9032Y66557D01*
X9153Y66436D01*
X9312Y66370D01*
X9484D01*
X9643Y66436D01*
X9764Y66557D01*
X9830Y66716D01*
Y66888D01*
X9764Y67047D01*
X9643Y67168D01*
X9484Y67234D01*
D02*
G37*
G36*
X28008Y66906D02*
X27765D01*
X27541Y66814D01*
X27370Y66642D01*
X27277Y66418D01*
Y66176D01*
X27370Y65952D01*
X27541Y65780D01*
X27765Y65687D01*
X28008D01*
X28232Y65780D01*
X28403Y65952D01*
X28496Y66176D01*
Y66418D01*
X28403Y66642D01*
X28232Y66814D01*
X28008Y66906D01*
D02*
G37*
G36*
X22438Y66421D02*
X22266D01*
X22107Y66355D01*
X21986Y66234D01*
X21920Y66075D01*
Y65903D01*
X21986Y65745D01*
X22107Y65623D01*
X22266Y65557D01*
X22438D01*
X22597Y65623D01*
X22718Y65745D01*
X22784Y65903D01*
Y66075D01*
X22718Y66234D01*
X22597Y66355D01*
X22438Y66421D01*
D02*
G37*
G36*
X213127Y65930D02*
X212955D01*
X212797Y65865D01*
X212675Y65743D01*
X212609Y65584D01*
Y65413D01*
X212675Y65254D01*
X212797Y65133D01*
X212955Y65067D01*
X213127D01*
X213286Y65133D01*
X213407Y65254D01*
X213473Y65413D01*
Y65584D01*
X213407Y65743D01*
X213286Y65865D01*
X213127Y65930D01*
D02*
G37*
G36*
X241142Y65710D02*
X240899D01*
X240675Y65617D01*
X240504Y65446D01*
X240411Y65221D01*
Y64979D01*
X240504Y64755D01*
X240675Y64583D01*
X240899Y64491D01*
X241142D01*
X241366Y64583D01*
X241537Y64755D01*
X241630Y64979D01*
Y65221D01*
X241537Y65446D01*
X241366Y65617D01*
X241142Y65710D01*
D02*
G37*
G36*
X74667Y109555D02*
X74495D01*
X74336Y109489D01*
X74215Y109368D01*
X74149Y109209D01*
Y109038D01*
X74215Y108879D01*
X74336Y108757D01*
X74495Y108692D01*
X74610D01*
X85034Y98268D01*
Y90771D01*
X74298Y80034D01*
X74236Y79942D01*
X74214Y79833D01*
X74214Y79833D01*
Y65075D01*
X74133Y64994D01*
X74067Y64835D01*
Y64663D01*
X74133Y64505D01*
X74254Y64383D01*
X74413Y64317D01*
X74585D01*
X74744Y64383D01*
X74865Y64505D01*
X74931Y64663D01*
Y64835D01*
X74865Y64994D01*
X74784Y65075D01*
Y79715D01*
X85520Y90451D01*
X85520Y90451D01*
X85582Y90544D01*
X85603Y90653D01*
X85603Y90653D01*
Y98386D01*
X85603Y98386D01*
X85582Y98495D01*
X85520Y98587D01*
X85520Y98587D01*
X75013Y109094D01*
Y109209D01*
X74947Y109368D01*
X74826Y109489D01*
X74667Y109555D01*
D02*
G37*
G36*
X214458Y65473D02*
X214215D01*
X213991Y65380D01*
X213820Y65209D01*
X213727Y64985D01*
Y64742D01*
X213820Y64518D01*
X213991Y64347D01*
X214215Y64254D01*
X214458D01*
X214682Y64347D01*
X214853Y64518D01*
X214946Y64742D01*
Y64985D01*
X214853Y65209D01*
X214682Y65380D01*
X214458Y65473D01*
D02*
G37*
G36*
X244189Y66141D02*
X243389D01*
X243154Y66094D01*
X242954Y65961D01*
X242821Y65761D01*
X242774Y65526D01*
Y64726D01*
X242821Y64490D01*
X242954Y64291D01*
X243154Y64157D01*
X243389Y64111D01*
X244189D01*
X244425Y64157D01*
X244624Y64291D01*
X244757Y64490D01*
X244804Y64726D01*
Y65526D01*
X244757Y65761D01*
X244624Y65961D01*
X244425Y66094D01*
X244189Y66141D01*
D02*
G37*
G36*
X191906Y65066D02*
X191664D01*
X191440Y64973D01*
X191268Y64801D01*
X191176Y64577D01*
Y64335D01*
X191268Y64111D01*
X191440Y63939D01*
X191664Y63846D01*
X191906D01*
X192130Y63939D01*
X192302Y64111D01*
X192395Y64335D01*
Y64577D01*
X192302Y64801D01*
X192130Y64973D01*
X191906Y65066D01*
D02*
G37*
G36*
X227580Y64000D02*
X227408D01*
X227249Y63934D01*
X227128Y63813D01*
X227062Y63654D01*
Y63482D01*
X227128Y63324D01*
X227249Y63202D01*
X227408Y63136D01*
X227580D01*
X227738Y63202D01*
X227860Y63324D01*
X227926Y63482D01*
Y63654D01*
X227860Y63813D01*
X227738Y63934D01*
X227580Y64000D01*
D02*
G37*
G36*
X163495Y64102D02*
X163253D01*
X163029Y64009D01*
X162857Y63838D01*
X162764Y63614D01*
Y63371D01*
X162857Y63147D01*
X163029Y62976D01*
X163253Y62883D01*
X163495D01*
X163719Y62976D01*
X163891Y63147D01*
X163984Y63371D01*
Y63614D01*
X163891Y63838D01*
X163719Y64009D01*
X163495Y64102D01*
D02*
G37*
G36*
X152179Y63626D02*
X152007D01*
X151848Y63560D01*
X151727Y63438D01*
X151661Y63280D01*
Y63108D01*
X151727Y62949D01*
X151848Y62828D01*
X152007Y62762D01*
X152179D01*
X152337Y62828D01*
X152459Y62949D01*
X152525Y63108D01*
Y63280D01*
X152459Y63438D01*
X152337Y63560D01*
X152179Y63626D01*
D02*
G37*
G36*
X150748D02*
X150576D01*
X150417Y63560D01*
X150296Y63438D01*
X150230Y63280D01*
Y63108D01*
X150296Y62949D01*
X150417Y62828D01*
X150576Y62762D01*
X150748D01*
X150907Y62828D01*
X151028Y62949D01*
X151094Y63108D01*
Y63280D01*
X151028Y63438D01*
X150907Y63560D01*
X150748Y63626D01*
D02*
G37*
G36*
X149317D02*
X149145D01*
X148986Y63560D01*
X148865Y63438D01*
X148799Y63280D01*
Y63108D01*
X148865Y62949D01*
X148986Y62828D01*
X149145Y62762D01*
X149317D01*
X149476Y62828D01*
X149597Y62949D01*
X149663Y63108D01*
Y63280D01*
X149597Y63438D01*
X149476Y63560D01*
X149317Y63626D01*
D02*
G37*
G36*
X147886D02*
X147714D01*
X147556Y63560D01*
X147434Y63438D01*
X147368Y63280D01*
Y63108D01*
X147434Y62949D01*
X147556Y62828D01*
X147714Y62762D01*
X147886D01*
X148045Y62828D01*
X148166Y62949D01*
X148232Y63108D01*
Y63280D01*
X148166Y63438D01*
X148045Y63560D01*
X147886Y63626D01*
D02*
G37*
G36*
X146455D02*
X146283D01*
X146125Y63560D01*
X146003Y63438D01*
X145938Y63280D01*
Y63108D01*
X146003Y62949D01*
X146125Y62828D01*
X146283Y62762D01*
X146455D01*
X146614Y62828D01*
X146735Y62949D01*
X146801Y63108D01*
Y63280D01*
X146735Y63438D01*
X146614Y63560D01*
X146455Y63626D01*
D02*
G37*
G36*
X145024D02*
X144853D01*
X144694Y63560D01*
X144572Y63438D01*
X144507Y63280D01*
Y63108D01*
X144572Y62949D01*
X144694Y62828D01*
X144853Y62762D01*
X145024D01*
X145183Y62828D01*
X145305Y62949D01*
X145370Y63108D01*
Y63280D01*
X145305Y63438D01*
X145183Y63560D01*
X145024Y63626D01*
D02*
G37*
G36*
X143593D02*
X143422D01*
X143263Y63560D01*
X143142Y63438D01*
X143076Y63280D01*
Y63108D01*
X143142Y62949D01*
X143263Y62828D01*
X143422Y62762D01*
X143593D01*
X143752Y62828D01*
X143874Y62949D01*
X143939Y63108D01*
Y63280D01*
X143874Y63438D01*
X143752Y63560D01*
X143593Y63626D01*
D02*
G37*
G36*
X243928Y63640D02*
X243916D01*
Y62713D01*
X244843D01*
Y62724D01*
X244771Y62992D01*
X244633Y63233D01*
X244436Y63429D01*
X244196Y63568D01*
X243928Y63640D01*
D02*
G37*
G36*
X243662D02*
X243650D01*
X243382Y63568D01*
X243142Y63429D01*
X242946Y63233D01*
X242807Y62992D01*
X242735Y62724D01*
Y62713D01*
X243662D01*
Y63640D01*
D02*
G37*
G36*
X13022Y67241D02*
X12850D01*
X12691Y67175D01*
X12570Y67054D01*
X12504Y66895D01*
Y66723D01*
X12570Y66564D01*
X12609Y66525D01*
X12654Y66457D01*
X12533Y66336D01*
X12467Y66177D01*
Y66006D01*
X12533Y65847D01*
X12589Y65791D01*
X12622Y65644D01*
X12580Y65540D01*
X12512Y65472D01*
X12446Y65313D01*
Y65141D01*
X12512Y64983D01*
X12561Y64933D01*
X12611Y64804D01*
X12561Y64675D01*
X12512Y64625D01*
X12446Y64466D01*
Y64295D01*
X12512Y64136D01*
X12605Y63990D01*
X12484Y63868D01*
X12418Y63710D01*
Y63538D01*
X12484Y63379D01*
X12533Y63330D01*
X12583Y63201D01*
X12533Y63071D01*
X12484Y63022D01*
X12418Y62863D01*
Y62691D01*
X12484Y62533D01*
X12605Y62411D01*
X12764Y62345D01*
X12936D01*
X13094Y62411D01*
X13216Y62533D01*
X13282Y62691D01*
Y62863D01*
X13216Y63022D01*
X13166Y63071D01*
X13116Y63201D01*
X13166Y63330D01*
X13216Y63379D01*
X13282Y63538D01*
Y63710D01*
X13216Y63868D01*
X13122Y64015D01*
X13244Y64136D01*
X13310Y64295D01*
Y64466D01*
X13244Y64625D01*
X13194Y64675D01*
X13145Y64804D01*
X13194Y64933D01*
X13244Y64983D01*
X13310Y65141D01*
Y65313D01*
X13244Y65472D01*
X13188Y65527D01*
X13155Y65674D01*
X13197Y65779D01*
X13265Y65847D01*
X13331Y66006D01*
Y66177D01*
X13265Y66336D01*
X13226Y66375D01*
X13180Y66443D01*
X13302Y66564D01*
X13367Y66723D01*
Y66895D01*
X13302Y67054D01*
X13180Y67175D01*
X13022Y67241D01*
D02*
G37*
G36*
X37383Y64059D02*
X37141D01*
X36916Y63966D01*
X36745Y63795D01*
X36652Y63570D01*
Y63328D01*
X36745Y63104D01*
X36916Y62932D01*
X37141Y62840D01*
X37204D01*
X37384Y62809D01*
X37389Y62655D01*
Y62566D01*
X37482Y62342D01*
X37653Y62170D01*
X37877Y62078D01*
X38120D01*
X38344Y62170D01*
X38515Y62342D01*
X38608Y62566D01*
Y62808D01*
X38515Y63033D01*
X38344Y63204D01*
X38120Y63297D01*
X38056D01*
X37876Y63327D01*
X37871Y63482D01*
Y63570D01*
X37779Y63795D01*
X37607Y63966D01*
X37383Y64059D01*
D02*
G37*
G36*
X170406Y62816D02*
X170164D01*
X169940Y62723D01*
X169768Y62551D01*
X169676Y62327D01*
Y62085D01*
X169768Y61861D01*
X169940Y61689D01*
X170164Y61596D01*
X170406D01*
X170630Y61689D01*
X170802Y61861D01*
X170895Y62085D01*
Y62327D01*
X170802Y62551D01*
X170630Y62723D01*
X170406Y62816D01*
D02*
G37*
G36*
X244843Y62459D02*
X243916D01*
Y61532D01*
X243928D01*
X244196Y61603D01*
X244436Y61742D01*
X244633Y61938D01*
X244771Y62179D01*
X244843Y62447D01*
Y62459D01*
D02*
G37*
G36*
X243662D02*
X242735D01*
Y62447D01*
X242807Y62179D01*
X242946Y61938D01*
X243142Y61742D01*
X243382Y61603D01*
X243650Y61532D01*
X243662D01*
Y62459D01*
D02*
G37*
G36*
X212964Y62235D02*
X212793D01*
X212634Y62169D01*
X212513Y62048D01*
X212447Y61889D01*
Y61717D01*
X212513Y61559D01*
X212634Y61437D01*
X212793Y61371D01*
X212964D01*
X213123Y61437D01*
X213245Y61559D01*
X213310Y61717D01*
Y61889D01*
X213245Y62048D01*
X213123Y62169D01*
X212964Y62235D01*
D02*
G37*
G36*
X73188Y61778D02*
X73017D01*
X72858Y61712D01*
X72736Y61591D01*
X72671Y61432D01*
Y61260D01*
X72736Y61101D01*
X72858Y60980D01*
X73017Y60914D01*
X73188D01*
X73347Y60980D01*
X73468Y61101D01*
X73534Y61260D01*
Y61432D01*
X73468Y61591D01*
X73347Y61712D01*
X73188Y61778D01*
D02*
G37*
G36*
X223998Y60698D02*
X223827D01*
X223668Y60632D01*
X223546Y60511D01*
X223481Y60352D01*
Y60197D01*
X223481Y60180D01*
X223481Y60173D01*
X223482Y60134D01*
X223478Y60117D01*
X223288Y60036D01*
X223277Y60042D01*
X223258Y60061D01*
X223099Y60127D01*
X222927D01*
X222769Y60061D01*
X222647Y59940D01*
X222581Y59781D01*
Y59609D01*
X222647Y59450D01*
X222769Y59329D01*
X222927Y59263D01*
X223099D01*
X223258Y59329D01*
X223379Y59450D01*
X223445Y59609D01*
Y59764D01*
X223445Y59781D01*
X223445Y59788D01*
X223444Y59827D01*
X223447Y59844D01*
X223637Y59926D01*
X223649Y59919D01*
X223668Y59900D01*
X223827Y59834D01*
X223998D01*
X224157Y59900D01*
X224278Y60022D01*
X224344Y60180D01*
Y60352D01*
X224278Y60511D01*
X224157Y60632D01*
X223998Y60698D01*
D02*
G37*
G36*
X225446D02*
X225274D01*
X225116Y60632D01*
X224994Y60511D01*
X224928Y60352D01*
Y60180D01*
X224994Y60022D01*
X225116Y59900D01*
X225274Y59834D01*
X225446D01*
X225605Y59900D01*
X225726Y60022D01*
X225792Y60180D01*
Y60352D01*
X225726Y60511D01*
X225605Y60632D01*
X225446Y60698D01*
D02*
G37*
G36*
X233792Y66934D02*
X233621D01*
X233462Y66868D01*
X233341Y66747D01*
X233275Y66588D01*
Y66416D01*
X233341Y66258D01*
X233422Y66176D01*
Y65227D01*
X228882Y60687D01*
X228767D01*
X228608Y60621D01*
X228487Y60500D01*
X228421Y60341D01*
Y60169D01*
X228487Y60011D01*
X228608Y59889D01*
X228767Y59823D01*
X228939D01*
X229097Y59889D01*
X229219Y60011D01*
X229285Y60169D01*
Y60284D01*
X233908Y64908D01*
X233908Y64908D01*
X233970Y65000D01*
X233991Y65109D01*
X233991Y65109D01*
Y66176D01*
X234073Y66258D01*
X234138Y66416D01*
Y66588D01*
X234073Y66747D01*
X233951Y66868D01*
X233792Y66934D01*
D02*
G37*
G36*
X209901Y60546D02*
X209730D01*
X209571Y60480D01*
X209449Y60358D01*
X209384Y60200D01*
Y60028D01*
X209449Y59869D01*
X209571Y59748D01*
X209730Y59682D01*
X209901D01*
X210060Y59748D01*
X210181Y59869D01*
X210247Y60028D01*
Y60200D01*
X210181Y60358D01*
X210060Y60480D01*
X209901Y60546D01*
D02*
G37*
G36*
X34909Y60909D02*
X34737D01*
X34579Y60843D01*
X34457Y60722D01*
X34392Y60563D01*
Y60392D01*
X34457Y60233D01*
X34579Y60111D01*
X34737Y60046D01*
X34909D01*
X34966Y60069D01*
X35119Y59916D01*
X35103Y59878D01*
Y59706D01*
X35169Y59547D01*
X35290Y59426D01*
X35449Y59360D01*
X35620D01*
X35779Y59426D01*
X35901Y59547D01*
X35966Y59706D01*
Y59878D01*
X35901Y60036D01*
X35779Y60158D01*
X35620Y60223D01*
X35449D01*
X35392Y60200D01*
X35239Y60353D01*
X35255Y60392D01*
Y60563D01*
X35189Y60722D01*
X35068Y60843D01*
X34909Y60909D01*
D02*
G37*
G36*
X26598Y67823D02*
X26427D01*
X26268Y67758D01*
X26146Y67636D01*
X26081Y67477D01*
Y67306D01*
X26146Y67147D01*
X26228Y67066D01*
Y61581D01*
X26228Y61581D01*
X26249Y61472D01*
X26311Y61380D01*
X27054Y60637D01*
X27054Y60637D01*
X27146Y60575D01*
X27255Y60553D01*
X30668D01*
X31446Y59775D01*
Y59660D01*
X31512Y59501D01*
X31634Y59380D01*
X31792Y59314D01*
X31964D01*
X32123Y59380D01*
X32244Y59501D01*
X32310Y59660D01*
Y59832D01*
X32244Y59990D01*
X32123Y60112D01*
X31964Y60178D01*
X31849D01*
X30987Y61039D01*
X30895Y61101D01*
X30786Y61123D01*
X30786Y61123D01*
X27373D01*
X26797Y61699D01*
Y67066D01*
X26879Y67147D01*
X26944Y67306D01*
Y67477D01*
X26879Y67636D01*
X26757Y67758D01*
X26598Y67823D01*
D02*
G37*
G36*
X28036Y60249D02*
X27793D01*
X27569Y60156D01*
X27398Y59985D01*
X27305Y59760D01*
Y59518D01*
X27398Y59294D01*
X27569Y59122D01*
X27793Y59030D01*
X28036D01*
X28260Y59122D01*
X28431Y59294D01*
X28524Y59518D01*
Y59760D01*
X28431Y59985D01*
X28260Y60156D01*
X28036Y60249D01*
D02*
G37*
G36*
X17596Y60249D02*
X17354D01*
X17130Y60156D01*
X16958Y59985D01*
X16866Y59760D01*
Y59518D01*
X16958Y59294D01*
X17130Y59122D01*
X17354Y59030D01*
X17596D01*
X17821Y59122D01*
X17992Y59294D01*
X18085Y59518D01*
Y59760D01*
X17992Y59985D01*
X17821Y60156D01*
X17596Y60249D01*
D02*
G37*
G36*
X241423Y59352D02*
X241251D01*
X241092Y59286D01*
X240971Y59165D01*
X240905Y59006D01*
Y58834D01*
X240971Y58675D01*
X241092Y58554D01*
X241251Y58488D01*
X241423D01*
X241581Y58554D01*
X241703Y58675D01*
X241769Y58834D01*
Y59006D01*
X241703Y59165D01*
X241581Y59286D01*
X241423Y59352D01*
D02*
G37*
G36*
X244392Y59714D02*
X243592D01*
X243357Y59668D01*
X243157Y59534D01*
X243024Y59335D01*
X242977Y59099D01*
Y58299D01*
X243024Y58064D01*
X243157Y57865D01*
X243357Y57731D01*
X243592Y57684D01*
X244392D01*
X244628Y57731D01*
X244827Y57865D01*
X244961Y58064D01*
X245007Y58299D01*
Y59099D01*
X244961Y59335D01*
X244827Y59534D01*
X244628Y59668D01*
X244392Y59714D01*
D02*
G37*
G36*
X184541Y58268D02*
X184369D01*
X184210Y58202D01*
X184089Y58080D01*
X184023Y57922D01*
Y57750D01*
X184089Y57591D01*
X184210Y57470D01*
X184369Y57404D01*
X184541D01*
X184699Y57470D01*
X184821Y57591D01*
X184887Y57750D01*
Y57922D01*
X184821Y58080D01*
X184699Y58202D01*
X184541Y58268D01*
D02*
G37*
G36*
X229334Y58247D02*
X229323D01*
Y57320D01*
X230250D01*
Y57332D01*
X230178Y57600D01*
X230039Y57840D01*
X229843Y58036D01*
X229602Y58175D01*
X229334Y58247D01*
D02*
G37*
G36*
X229069D02*
X229057D01*
X228789Y58175D01*
X228548Y58036D01*
X228352Y57840D01*
X228213Y57600D01*
X228142Y57332D01*
Y57320D01*
X229069D01*
Y58247D01*
D02*
G37*
G36*
X135825Y57130D02*
X135653D01*
X135494Y57064D01*
X135373Y56942D01*
X135307Y56784D01*
Y56612D01*
X135373Y56453D01*
X135494Y56332D01*
X135653Y56266D01*
X135825D01*
X135983Y56332D01*
X136105Y56453D01*
X136171Y56612D01*
Y56784D01*
X136105Y56942D01*
X135983Y57064D01*
X135825Y57130D01*
D02*
G37*
G36*
X226788Y58196D02*
X226524D01*
X226268Y58128D01*
X226040Y57996D01*
X225853Y57809D01*
X225721Y57580D01*
X225652Y57325D01*
Y57061D01*
X225721Y56806D01*
X225853Y56577D01*
X226040Y56390D01*
X226268Y56258D01*
X226524Y56190D01*
X226788D01*
X227043Y56258D01*
X227272Y56390D01*
X227458Y56577D01*
X227590Y56806D01*
X227659Y57061D01*
Y57325D01*
X227590Y57580D01*
X227458Y57809D01*
X227272Y57996D01*
X227043Y58128D01*
X226788Y58196D01*
D02*
G37*
G36*
X224516Y58208D02*
X223716D01*
X223480Y58161D01*
X223281Y58028D01*
X223147Y57828D01*
X223101Y57593D01*
Y56793D01*
X223147Y56557D01*
X223281Y56358D01*
X223480Y56225D01*
X223716Y56178D01*
X224516D01*
X224751Y56225D01*
X224950Y56358D01*
X225084Y56557D01*
X225131Y56793D01*
Y57593D01*
X225084Y57828D01*
X224950Y58028D01*
X224751Y58161D01*
X224516Y58208D01*
D02*
G37*
G36*
X230250Y57066D02*
X229323D01*
Y56139D01*
X229334D01*
X229602Y56211D01*
X229843Y56349D01*
X230039Y56546D01*
X230178Y56786D01*
X230250Y57054D01*
Y57066D01*
D02*
G37*
G36*
X229069D02*
X228142D01*
Y57054D01*
X228213Y56786D01*
X228352Y56546D01*
X228548Y56349D01*
X228789Y56211D01*
X229057Y56139D01*
X229069D01*
Y57066D01*
D02*
G37*
G36*
X160291Y91547D02*
X160120D01*
X159961Y91481D01*
X159839Y91360D01*
X159774Y91201D01*
Y91029D01*
X159839Y90871D01*
X159921Y90789D01*
Y78002D01*
X159921Y78002D01*
X159942Y77893D01*
X160004Y77801D01*
X170096Y67709D01*
X170188Y67647D01*
X170297Y67625D01*
X170302Y67626D01*
X170325Y67611D01*
X170434Y67589D01*
X175696D01*
X179750Y63534D01*
Y61248D01*
X179690Y61223D01*
X179518Y61051D01*
X179426Y60827D01*
Y60585D01*
X179500Y60404D01*
X179413Y60204D01*
X149986D01*
X149857Y60179D01*
X149748Y60106D01*
X149748Y60106D01*
X143608Y53965D01*
X143599Y53969D01*
X143356D01*
X143132Y53876D01*
X142961Y53705D01*
X142868Y53481D01*
Y53238D01*
X142961Y53014D01*
X143132Y52843D01*
X143356Y52750D01*
X143599D01*
X143823Y52843D01*
X143994Y53014D01*
X144087Y53238D01*
Y53481D01*
X144084Y53489D01*
X150125Y59531D01*
X152751D01*
X152834Y59331D01*
X147397Y53894D01*
X147388Y53897D01*
X147146D01*
X146921Y53805D01*
X146750Y53633D01*
X146657Y53409D01*
Y53167D01*
X146750Y52942D01*
X146921Y52771D01*
X147146Y52678D01*
X147388D01*
X147612Y52771D01*
X147784Y52942D01*
X147876Y53167D01*
Y53409D01*
X147873Y53418D01*
X153274Y58819D01*
X178551D01*
X186897Y50473D01*
X186893Y50464D01*
Y50222D01*
X186986Y49998D01*
X187158Y49826D01*
X187382Y49733D01*
X187624D01*
X187848Y49826D01*
X188020Y49998D01*
X188112Y50222D01*
Y50464D01*
X188020Y50688D01*
X187848Y50860D01*
X187624Y50952D01*
X187382D01*
X187373Y50949D01*
X178991Y59331D01*
X179073Y59531D01*
X183807D01*
X186770Y56569D01*
X186766Y56560D01*
Y56318D01*
X186859Y56094D01*
X187031Y55922D01*
X187255Y55829D01*
X187497D01*
X187721Y55922D01*
X187893Y56094D01*
X187985Y56318D01*
Y56560D01*
X187893Y56784D01*
X187721Y56956D01*
X187497Y57048D01*
X187255D01*
X187246Y57045D01*
X184185Y60106D01*
X184076Y60179D01*
X183947Y60204D01*
X180657D01*
X180570Y60404D01*
X180645Y60585D01*
Y60827D01*
X180552Y61051D01*
X180380Y61223D01*
X180320Y61248D01*
Y63652D01*
X180298Y63761D01*
X180237Y63854D01*
X180237Y63854D01*
X176015Y68075D01*
X175923Y68137D01*
X175814Y68159D01*
X175814Y68159D01*
X170452D01*
X160490Y78120D01*
Y90789D01*
X160571Y90871D01*
X160637Y91029D01*
Y91201D01*
X160571Y91360D01*
X160450Y91481D01*
X160291Y91547D01*
D02*
G37*
G36*
X244124Y57163D02*
X243860D01*
X243605Y57094D01*
X243376Y56962D01*
X243190Y56775D01*
X243058Y56547D01*
X242989Y56292D01*
Y56027D01*
X243058Y55772D01*
X243190Y55543D01*
X243376Y55357D01*
X243605Y55225D01*
X243860Y55156D01*
X244124D01*
X244380Y55225D01*
X244608Y55357D01*
X244795Y55543D01*
X244927Y55772D01*
X244996Y56027D01*
Y56292D01*
X244927Y56547D01*
X244795Y56775D01*
X244608Y56962D01*
X244380Y57094D01*
X244124Y57163D01*
D02*
G37*
G36*
X47889Y57480D02*
X47717D01*
X47558Y57414D01*
X47437Y57293D01*
X47371Y57134D01*
Y56983D01*
X45257Y54869D01*
X45178D01*
X45019Y54803D01*
X44898Y54682D01*
X44832Y54523D01*
Y54351D01*
X44898Y54193D01*
X45019Y54071D01*
X45178Y54005D01*
X45350D01*
X45509Y54071D01*
X45630Y54193D01*
X45696Y54351D01*
Y54502D01*
X47810Y56617D01*
X47889D01*
X48047Y56682D01*
X48169Y56804D01*
X48235Y56963D01*
Y57134D01*
X48169Y57293D01*
X48047Y57414D01*
X47889Y57480D01*
D02*
G37*
G36*
X68337Y54336D02*
X68165D01*
X68006Y54270D01*
X67885Y54148D01*
X67819Y53990D01*
Y53818D01*
X67885Y53659D01*
X68006Y53538D01*
X68165Y53472D01*
X68337D01*
X68496Y53538D01*
X68617Y53659D01*
X68683Y53818D01*
Y53990D01*
X68617Y54148D01*
X68496Y54270D01*
X68337Y54336D01*
D02*
G37*
G36*
X187868Y54102D02*
X187696D01*
X187538Y54036D01*
X187416Y53915D01*
X187350Y53756D01*
Y53584D01*
X187416Y53426D01*
X187538Y53304D01*
X187696Y53238D01*
X187868D01*
X188027Y53304D01*
X188148Y53426D01*
X188214Y53584D01*
Y53756D01*
X188148Y53915D01*
X188027Y54036D01*
X187868Y54102D01*
D02*
G37*
G36*
X202012Y54348D02*
X201769D01*
X201545Y54255D01*
X201374Y54084D01*
X201281Y53860D01*
Y53617D01*
X201374Y53393D01*
X201545Y53222D01*
X201769Y53129D01*
X202012D01*
X202236Y53222D01*
X202407Y53393D01*
X202500Y53617D01*
Y53860D01*
X202407Y54084D01*
X202236Y54255D01*
X202012Y54348D01*
D02*
G37*
G36*
X15971Y53645D02*
X15728D01*
X15504Y53552D01*
X15333Y53381D01*
X15240Y53156D01*
Y52914D01*
X15333Y52690D01*
X15504Y52518D01*
X15728Y52426D01*
X15971D01*
X16195Y52518D01*
X16366Y52690D01*
X16459Y52914D01*
Y53156D01*
X16366Y53381D01*
X16195Y53552D01*
X15971Y53645D01*
D02*
G37*
G36*
X63652Y52476D02*
X63450D01*
X63263Y52399D01*
X63231Y52367D01*
X63100Y52271D01*
X62969Y52367D01*
X62937Y52399D01*
X62750Y52476D01*
X62548D01*
X62361Y52399D01*
X62219Y52256D01*
X62141Y52069D01*
Y51867D01*
X62219Y51681D01*
X62361Y51538D01*
X62548Y51460D01*
X62750D01*
X62937Y51538D01*
X62969Y51570D01*
X63100Y51666D01*
X63231Y51570D01*
X63263Y51538D01*
X63450Y51460D01*
X63652D01*
X63839Y51538D01*
X63981Y51681D01*
X64059Y51867D01*
Y52069D01*
X63981Y52256D01*
X63839Y52399D01*
X63652Y52476D01*
D02*
G37*
G36*
X138313Y53035D02*
X138141D01*
X137982Y52969D01*
X137861Y52848D01*
X137795Y52689D01*
Y52518D01*
X137861Y52359D01*
X137982Y52237D01*
X138141Y52172D01*
X138313D01*
X138471Y52237D01*
X138593Y52359D01*
X138659Y52518D01*
Y52689D01*
X138593Y52848D01*
X138471Y52969D01*
X138313Y53035D01*
D02*
G37*
G36*
X102321Y52756D02*
X102149D01*
X101990Y52690D01*
X101869Y52569D01*
X101803Y52410D01*
Y52238D01*
X101869Y52079D01*
X101990Y51958D01*
X102149Y51892D01*
X102321D01*
X102480Y51958D01*
X102601Y52079D01*
X102667Y52238D01*
Y52410D01*
X102601Y52569D01*
X102480Y52690D01*
X102321Y52756D01*
D02*
G37*
G36*
X234448Y53027D02*
X234205D01*
X233981Y52934D01*
X233810Y52763D01*
X233717Y52539D01*
Y52296D01*
X233810Y52072D01*
X233981Y51901D01*
X234205Y51808D01*
X234448D01*
X234672Y51901D01*
X234843Y52072D01*
X234936Y52296D01*
Y52539D01*
X234843Y52763D01*
X234672Y52934D01*
X234448Y53027D01*
D02*
G37*
G36*
X219387Y54413D02*
X219017D01*
X218660Y54317D01*
X218340Y54133D01*
X218079Y53871D01*
X217894Y53551D01*
X217799Y53195D01*
Y52825D01*
X217894Y52468D01*
X218079Y52148D01*
X218340Y51887D01*
X218660Y51702D01*
X219017Y51607D01*
X219387D01*
X219744Y51702D01*
X220064Y51887D01*
X220325Y52148D01*
X220510Y52468D01*
X220605Y52825D01*
Y53195D01*
X220510Y53551D01*
X220325Y53871D01*
X220064Y54133D01*
X219744Y54317D01*
X219387Y54413D01*
D02*
G37*
G36*
X188986Y52299D02*
X188814D01*
X188655Y52233D01*
X188534Y52111D01*
X188468Y51953D01*
Y51781D01*
X188534Y51622D01*
X188655Y51501D01*
X188814Y51435D01*
X188986D01*
X189144Y51501D01*
X189266Y51622D01*
X189332Y51781D01*
Y51953D01*
X189266Y52111D01*
X189144Y52233D01*
X188986Y52299D01*
D02*
G37*
G36*
X158183Y52653D02*
X157941D01*
X157716Y52560D01*
X157545Y52389D01*
X157452Y52164D01*
Y51922D01*
X157545Y51698D01*
X157716Y51526D01*
X157941Y51434D01*
X158183D01*
X158407Y51526D01*
X158579Y51698D01*
X158671Y51922D01*
Y52164D01*
X158579Y52389D01*
X158407Y52560D01*
X158183Y52653D01*
D02*
G37*
G36*
X152341Y52577D02*
X152099D01*
X151874Y52484D01*
X151703Y52312D01*
X151610Y52088D01*
Y51846D01*
X151703Y51622D01*
X151874Y51450D01*
X152099Y51357D01*
X152341D01*
X152565Y51450D01*
X152737Y51622D01*
X152829Y51846D01*
Y52088D01*
X152737Y52312D01*
X152565Y52484D01*
X152341Y52577D01*
D02*
G37*
G36*
X145991Y52475D02*
X145749D01*
X145524Y52382D01*
X145353Y52211D01*
X145260Y51987D01*
Y51744D01*
X145353Y51520D01*
X145524Y51349D01*
X145749Y51256D01*
X145991D01*
X146215Y51349D01*
X146387Y51520D01*
X146479Y51744D01*
Y51987D01*
X146387Y52211D01*
X146215Y52382D01*
X145991Y52475D01*
D02*
G37*
G36*
X63789Y51029D02*
X63617D01*
X63459Y50963D01*
X63337Y50841D01*
X63271Y50683D01*
Y50511D01*
X63337Y50352D01*
X63459Y50231D01*
X63617Y50165D01*
X63789D01*
X63948Y50231D01*
X64069Y50352D01*
X64135Y50511D01*
Y50683D01*
X64069Y50841D01*
X63948Y50963D01*
X63789Y51029D01*
D02*
G37*
G36*
X62646D02*
X62474D01*
X62316Y50963D01*
X62194Y50841D01*
X62128Y50683D01*
Y50511D01*
X62194Y50352D01*
X62316Y50231D01*
X62474Y50165D01*
X62646D01*
X62805Y50231D01*
X62926Y50352D01*
X62992Y50511D01*
Y50683D01*
X62926Y50841D01*
X62805Y50963D01*
X62646Y51029D01*
D02*
G37*
G36*
X195057Y51294D02*
X194814D01*
X194590Y51201D01*
X194418Y51029D01*
X194326Y50805D01*
Y50563D01*
X194418Y50339D01*
X194590Y50167D01*
X194814Y50074D01*
X195057D01*
X195281Y50167D01*
X195452Y50339D01*
X195545Y50563D01*
Y50805D01*
X195452Y51029D01*
X195281Y51201D01*
X195057Y51294D01*
D02*
G37*
G36*
X165313Y50775D02*
X165141D01*
X164982Y50709D01*
X164861Y50587D01*
X164795Y50429D01*
Y50257D01*
X164861Y50098D01*
X164982Y49977D01*
X165141Y49911D01*
X165313D01*
X165472Y49977D01*
X165593Y50098D01*
X165659Y50257D01*
Y50429D01*
X165593Y50587D01*
X165472Y50709D01*
X165313Y50775D01*
D02*
G37*
G36*
X170291Y50775D02*
X170120D01*
X169961Y50709D01*
X169839Y50587D01*
X169774Y50429D01*
Y50257D01*
X169839Y50098D01*
X169961Y49977D01*
X170120Y49911D01*
X170291D01*
X170450Y49977D01*
X170571Y50098D01*
X170637Y50257D01*
Y50429D01*
X170571Y50587D01*
X170450Y50709D01*
X170291Y50775D01*
D02*
G37*
G36*
X27671Y50729D02*
X27500D01*
X27341Y50663D01*
X27220Y50542D01*
X27154Y50383D01*
Y50211D01*
X27220Y50052D01*
X27341Y49931D01*
X27500Y49865D01*
X27671D01*
X27830Y49931D01*
X27952Y50052D01*
X28017Y50211D01*
Y50383D01*
X27952Y50542D01*
X27830Y50663D01*
X27671Y50729D01*
D02*
G37*
G36*
X166608Y49987D02*
X166437D01*
X166278Y49921D01*
X166156Y49800D01*
X166091Y49641D01*
Y49470D01*
X166156Y49311D01*
X166278Y49189D01*
X166437Y49124D01*
X166608D01*
X166767Y49189D01*
X166888Y49311D01*
X166954Y49470D01*
Y49641D01*
X166888Y49800D01*
X166767Y49921D01*
X166608Y49987D01*
D02*
G37*
G36*
X22514Y49860D02*
X22342D01*
X22184Y49794D01*
X22154Y49765D01*
X12370D01*
X12241Y49739D01*
X12132Y49666D01*
X9643Y47177D01*
X9570Y47068D01*
X9544Y46939D01*
Y45156D01*
X9515Y45126D01*
X9449Y44968D01*
Y44796D01*
X9515Y44637D01*
X9636Y44516D01*
X9795Y44450D01*
X9967D01*
X10125Y44516D01*
X10247Y44637D01*
X10312Y44796D01*
Y44968D01*
X10247Y45126D01*
X10217Y45156D01*
Y46800D01*
X12509Y49092D01*
X19012D01*
X19114Y48892D01*
X19050Y48737D01*
Y48494D01*
X19143Y48270D01*
X19314Y48099D01*
X19538Y48006D01*
X19781D01*
X20005Y48099D01*
X20176Y48270D01*
X20269Y48494D01*
Y48737D01*
X20205Y48892D01*
X20307Y49092D01*
X22154D01*
X22184Y49062D01*
X22342Y48997D01*
X22514D01*
X22673Y49062D01*
X22794Y49184D01*
X22860Y49342D01*
Y49514D01*
X22794Y49673D01*
X22673Y49794D01*
X22514Y49860D01*
D02*
G37*
G36*
X188986Y49632D02*
X188814D01*
X188655Y49566D01*
X188534Y49444D01*
X188468Y49286D01*
Y49114D01*
X188534Y48955D01*
X188655Y48834D01*
X188814Y48768D01*
X188986D01*
X189144Y48834D01*
X189266Y48955D01*
X189332Y49114D01*
Y49286D01*
X189266Y49444D01*
X189144Y49566D01*
X188986Y49632D01*
D02*
G37*
G36*
X170850Y49581D02*
X170678D01*
X170520Y49515D01*
X170398Y49394D01*
X170332Y49235D01*
Y49063D01*
X170398Y48904D01*
X170520Y48783D01*
X170678Y48717D01*
X170850D01*
X171009Y48783D01*
X171130Y48904D01*
X171196Y49063D01*
Y49235D01*
X171130Y49394D01*
X171009Y49515D01*
X170850Y49581D01*
D02*
G37*
G36*
X163052Y49555D02*
X162881D01*
X162722Y49490D01*
X162600Y49368D01*
X162535Y49210D01*
Y49038D01*
X162600Y48879D01*
X162722Y48758D01*
X162881Y48692D01*
X163052D01*
X163211Y48758D01*
X163332Y48879D01*
X163398Y49038D01*
Y49210D01*
X163332Y49368D01*
X163211Y49490D01*
X163052Y49555D01*
D02*
G37*
G36*
X167853Y49098D02*
X167681D01*
X167522Y49032D01*
X167401Y48911D01*
X167335Y48752D01*
Y48581D01*
X167401Y48422D01*
X167522Y48300D01*
X167681Y48235D01*
X167853D01*
X168012Y48300D01*
X168133Y48422D01*
X168199Y48581D01*
Y48752D01*
X168133Y48911D01*
X168012Y49032D01*
X167853Y49098D01*
D02*
G37*
G36*
X132904Y48798D02*
X132732D01*
X132573Y48733D01*
X132452Y48611D01*
X132386Y48452D01*
Y48281D01*
X132452Y48122D01*
X132573Y48001D01*
X132732Y47935D01*
X132904D01*
X133062Y48001D01*
X133184Y48122D01*
X133250Y48281D01*
Y48452D01*
X133184Y48611D01*
X133062Y48733D01*
X132904Y48798D01*
D02*
G37*
G36*
X51724Y48336D02*
X51552D01*
X51394Y48270D01*
X51272Y48149D01*
X51206Y47990D01*
Y47819D01*
X51272Y47660D01*
X51394Y47538D01*
X51552Y47473D01*
X51724D01*
X51883Y47538D01*
X52004Y47660D01*
X52070Y47819D01*
Y47990D01*
X52004Y48149D01*
X51883Y48270D01*
X51724Y48336D01*
D02*
G37*
G36*
X54899Y48266D02*
X54727D01*
X54568Y48201D01*
X54447Y48079D01*
X54381Y47921D01*
Y47749D01*
X54447Y47590D01*
X54568Y47469D01*
X54727Y47403D01*
X54899D01*
X55058Y47469D01*
X55179Y47590D01*
X55245Y47749D01*
Y47921D01*
X55179Y48079D01*
X55058Y48201D01*
X54899Y48266D01*
D02*
G37*
G36*
X7410Y48798D02*
X6410D01*
X6213Y48773D01*
X6030Y48697D01*
X5873Y48576D01*
X5752Y48419D01*
X5676Y48235D01*
X5650Y48039D01*
X5676Y47842D01*
X5752Y47659D01*
X5873Y47502D01*
X6030Y47381D01*
X6213Y47305D01*
X6410Y47279D01*
X7410D01*
X7606Y47305D01*
X7790Y47381D01*
X7947Y47502D01*
X8068Y47659D01*
X8144Y47842D01*
X8170Y48039D01*
X8144Y48235D01*
X8068Y48419D01*
X7947Y48576D01*
X7790Y48697D01*
X7606Y48773D01*
X7410Y48798D01*
D02*
G37*
G36*
X40218Y47955D02*
X40046D01*
X39887Y47889D01*
X39766Y47768D01*
X39700Y47609D01*
Y47438D01*
X39766Y47279D01*
X39887Y47157D01*
X40046Y47092D01*
X40218D01*
X40377Y47157D01*
X40498Y47279D01*
X40564Y47438D01*
Y47609D01*
X40498Y47768D01*
X40377Y47889D01*
X40218Y47955D01*
D02*
G37*
G36*
X53173Y47808D02*
X53001D01*
X52843Y47742D01*
X52721Y47621D01*
X52655Y47462D01*
Y47290D01*
X52721Y47131D01*
X52843Y47010D01*
X53001Y46944D01*
X53173D01*
X53332Y47010D01*
X53453Y47131D01*
X53519Y47290D01*
Y47462D01*
X53453Y47621D01*
X53332Y47742D01*
X53173Y47808D01*
D02*
G37*
G36*
X81785Y47136D02*
X81613D01*
X81454Y47070D01*
X81333Y46949D01*
X81267Y46790D01*
Y46618D01*
X81333Y46460D01*
X81454Y46338D01*
X81613Y46272D01*
X81785D01*
X81944Y46338D01*
X82065Y46460D01*
X82131Y46618D01*
Y46790D01*
X82065Y46949D01*
X81944Y47070D01*
X81785Y47136D01*
D02*
G37*
G36*
X44968Y47092D02*
X44796D01*
X44637Y47026D01*
X44516Y46904D01*
X44450Y46746D01*
Y46574D01*
X44516Y46415D01*
X44637Y46294D01*
X44796Y46228D01*
X44968D01*
X45126Y46294D01*
X45248Y46415D01*
X45314Y46574D01*
Y46746D01*
X45248Y46904D01*
X45126Y47026D01*
X44968Y47092D01*
D02*
G37*
G36*
X133818Y46462D02*
X133646D01*
X133488Y46396D01*
X133366Y46274D01*
X133300Y46116D01*
Y45944D01*
X133366Y45785D01*
X133488Y45664D01*
X133646Y45598D01*
X133818D01*
X133977Y45664D01*
X134098Y45785D01*
X134164Y45944D01*
Y46116D01*
X134098Y46274D01*
X133977Y46396D01*
X133818Y46462D01*
D02*
G37*
G36*
X12964Y48235D02*
X12792D01*
X12633Y48169D01*
X12512Y48047D01*
X12446Y47889D01*
Y47717D01*
X12512Y47558D01*
X12543Y47527D01*
X12612Y47396D01*
X12543Y47266D01*
X12512Y47235D01*
X12446Y47076D01*
Y46904D01*
X12512Y46745D01*
X12543Y46714D01*
X12612Y46584D01*
X12543Y46453D01*
X12512Y46422D01*
X12446Y46263D01*
Y46091D01*
X12512Y45933D01*
X12543Y45901D01*
X12612Y45771D01*
X12543Y45640D01*
X12512Y45609D01*
X12446Y45450D01*
Y45278D01*
X12512Y45120D01*
X12633Y44998D01*
X12792Y44933D01*
X12964D01*
X13122Y44998D01*
X13244Y45120D01*
X13310Y45278D01*
Y45450D01*
X13244Y45609D01*
X13213Y45640D01*
X13144Y45771D01*
X13213Y45901D01*
X13244Y45933D01*
X13310Y46091D01*
Y46263D01*
X13244Y46422D01*
X13213Y46453D01*
X13144Y46584D01*
X13213Y46714D01*
X13244Y46745D01*
X13310Y46904D01*
Y47076D01*
X13244Y47235D01*
X13213Y47266D01*
X13144Y47396D01*
X13213Y47527D01*
X13244Y47558D01*
X13310Y47717D01*
Y47889D01*
X13244Y48047D01*
X13122Y48169D01*
X12964Y48235D01*
D02*
G37*
G36*
X15961Y45695D02*
X15789D01*
X15630Y45629D01*
X15509Y45507D01*
X15443Y45349D01*
Y45177D01*
X15509Y45018D01*
X15630Y44897D01*
X15789Y44831D01*
X15961D01*
X16120Y44897D01*
X16241Y45018D01*
X16307Y45177D01*
Y45349D01*
X16241Y45507D01*
X16120Y45629D01*
X15961Y45695D01*
D02*
G37*
G36*
X245626Y46141D02*
X243804D01*
Y44318D01*
X245626D01*
Y46141D01*
D02*
G37*
G36*
X79131Y44094D02*
X78959D01*
X78800Y44029D01*
X78679Y43907D01*
X78670Y43887D01*
X78454D01*
X78446Y43907D01*
X78324Y44029D01*
X78165Y44094D01*
X77994D01*
X77835Y44029D01*
X77714Y43907D01*
X77648Y43748D01*
Y43577D01*
X77714Y43418D01*
X77835Y43297D01*
X77994Y43231D01*
X78165D01*
X78324Y43297D01*
X78446Y43418D01*
X78454Y43438D01*
X78670D01*
X78679Y43418D01*
X78800Y43297D01*
X78959Y43231D01*
X79131D01*
X79289Y43297D01*
X79411Y43418D01*
X79477Y43577D01*
Y43748D01*
X79411Y43907D01*
X79289Y44029D01*
X79131Y44094D01*
D02*
G37*
G36*
X77022Y43993D02*
X76851D01*
X76692Y43927D01*
X76645Y43880D01*
X76534Y43820D01*
X76384Y43879D01*
X76353Y43910D01*
X76195Y43976D01*
X76023D01*
X75864Y43910D01*
X75743Y43789D01*
X75677Y43630D01*
Y43458D01*
X75743Y43299D01*
X75864Y43178D01*
X76023Y43112D01*
X76195D01*
X76353Y43178D01*
X76401Y43225D01*
X76512Y43285D01*
X76661Y43226D01*
X76692Y43195D01*
X76851Y43129D01*
X77022D01*
X77181Y43195D01*
X77303Y43316D01*
X77368Y43475D01*
Y43647D01*
X77303Y43806D01*
X77181Y43927D01*
X77022Y43993D01*
D02*
G37*
G36*
X4379Y44272D02*
X4207D01*
X4048Y44206D01*
X3927Y44085D01*
X3861Y43926D01*
Y43754D01*
X3927Y43596D01*
X4048Y43474D01*
X4207Y43409D01*
X4379D01*
X4537Y43474D01*
X4659Y43596D01*
X4724Y43754D01*
Y43926D01*
X4659Y44085D01*
X4537Y44206D01*
X4379Y44272D01*
D02*
G37*
G36*
X159371Y44564D02*
X159129D01*
X158905Y44471D01*
X158733Y44300D01*
X158640Y44076D01*
Y43833D01*
X158733Y43609D01*
X158905Y43438D01*
X159129Y43345D01*
X159371D01*
X159595Y43438D01*
X159767Y43609D01*
X159860Y43833D01*
Y44076D01*
X159767Y44300D01*
X159595Y44471D01*
X159371Y44564D01*
D02*
G37*
G36*
X83677Y44196D02*
X83506D01*
X83347Y44130D01*
X83225Y44009D01*
X83160Y43850D01*
Y43678D01*
X83225Y43520D01*
X83347Y43398D01*
X83506Y43332D01*
X83677D01*
X83836Y43398D01*
X83957Y43520D01*
X84023Y43678D01*
Y43850D01*
X83957Y44009D01*
X83836Y44130D01*
X83677Y44196D01*
D02*
G37*
G36*
X186341Y46056D02*
X185972D01*
X185615Y45961D01*
X185295Y45776D01*
X185034Y45515D01*
X184849Y45195D01*
X184753Y44838D01*
Y44468D01*
X184849Y44112D01*
X185034Y43792D01*
X185295Y43530D01*
X185615Y43346D01*
X185972Y43250D01*
X186341D01*
X186698Y43346D01*
X187018Y43530D01*
X187279Y43792D01*
X187464Y44112D01*
X187560Y44468D01*
Y44838D01*
X187464Y45195D01*
X187279Y45515D01*
X187018Y45776D01*
X186698Y45961D01*
X186341Y46056D01*
D02*
G37*
G36*
X183323Y44462D02*
X183081D01*
X182857Y44370D01*
X182685Y44198D01*
X182593Y43974D01*
Y43732D01*
X182685Y43508D01*
X182857Y43336D01*
X183081Y43243D01*
X183323D01*
X183548Y43336D01*
X183719Y43508D01*
X183812Y43732D01*
Y43974D01*
X183719Y44198D01*
X183548Y44370D01*
X183323Y44462D01*
D02*
G37*
G36*
X8951Y44501D02*
X8779D01*
X8620Y44435D01*
X8499Y44314D01*
X8433Y44155D01*
Y43983D01*
X8499Y43824D01*
X8600Y43723D01*
X8595Y43698D01*
X8473Y43577D01*
X8407Y43418D01*
Y43246D01*
X8473Y43088D01*
X8595Y42966D01*
X8753Y42901D01*
X8925D01*
X9084Y42966D01*
X9205Y43088D01*
X9271Y43246D01*
Y43418D01*
X9205Y43577D01*
X9104Y43678D01*
X9109Y43703D01*
X9231Y43824D01*
X9296Y43983D01*
Y44155D01*
X9231Y44314D01*
X9109Y44435D01*
X8951Y44501D01*
D02*
G37*
G36*
X244842Y43651D02*
Y42816D01*
X245677D01*
X245611Y43061D01*
X245485Y43280D01*
X245306Y43459D01*
X245086Y43586D01*
X244842Y43651D01*
D02*
G37*
G36*
X244588Y43651D02*
X244344Y43586D01*
X244124Y43459D01*
X243945Y43280D01*
X243819Y43061D01*
X243753Y42816D01*
X244588D01*
Y43651D01*
D02*
G37*
G36*
X34782Y43104D02*
X34610D01*
X34452Y43038D01*
X34330Y42917D01*
X34265Y42758D01*
Y42586D01*
X34330Y42427D01*
X34452Y42306D01*
X34610Y42240D01*
X34782D01*
X34941Y42306D01*
X35062Y42427D01*
X35128Y42586D01*
Y42758D01*
X35062Y42917D01*
X34941Y43038D01*
X34782Y43104D01*
D02*
G37*
G36*
X27737Y42859D02*
X27566D01*
X27407Y42793D01*
X27285Y42672D01*
X27220Y42513D01*
Y42341D01*
X27285Y42183D01*
X27407Y42061D01*
X27566Y41995D01*
X27737D01*
X27896Y42061D01*
X28017Y42183D01*
X28083Y42341D01*
Y42513D01*
X28017Y42672D01*
X27896Y42793D01*
X27737Y42859D01*
D02*
G37*
G36*
X155061Y43053D02*
X154819D01*
X154595Y42960D01*
X154423Y42789D01*
X154330Y42565D01*
Y42322D01*
X154423Y42098D01*
X154595Y41927D01*
X154819Y41834D01*
X155061D01*
X155285Y41927D01*
X155457Y42098D01*
X155550Y42322D01*
Y42565D01*
X155457Y42789D01*
X155285Y42960D01*
X155061Y43053D01*
D02*
G37*
G36*
X244588Y42562D02*
X243753D01*
X243819Y42318D01*
X243945Y42099D01*
X244124Y41920D01*
X244344Y41793D01*
X244588Y41728D01*
Y42562D01*
D02*
G37*
G36*
X245677D02*
X244842D01*
Y41727D01*
X245086Y41793D01*
X245306Y41920D01*
X245485Y42099D01*
X245611Y42318D01*
X245677Y42562D01*
D02*
G37*
G36*
X221265Y46830D02*
X221023D01*
X220798Y46737D01*
X220627Y46565D01*
X220534Y46341D01*
Y46099D01*
X220627Y45875D01*
X220790Y45712D01*
X220627Y45549D01*
X220534Y45325D01*
Y45083D01*
X220627Y44859D01*
X220790Y44696D01*
X220627Y44533D01*
X220534Y44309D01*
Y44067D01*
X220627Y43843D01*
X220790Y43680D01*
X220627Y43517D01*
X220534Y43293D01*
Y43051D01*
X220627Y42827D01*
X220790Y42664D01*
X220627Y42501D01*
X220534Y42277D01*
Y42035D01*
X220627Y41811D01*
X220798Y41639D01*
X221023Y41546D01*
X221265D01*
X221489Y41639D01*
X221661Y41811D01*
X221753Y42035D01*
Y42277D01*
X221661Y42501D01*
X221498Y42664D01*
X221661Y42827D01*
X221753Y43051D01*
Y43293D01*
X221661Y43517D01*
X221498Y43680D01*
X221661Y43843D01*
X221753Y44067D01*
Y44309D01*
X221661Y44533D01*
X221498Y44696D01*
X221661Y44859D01*
X221753Y45083D01*
Y45325D01*
X221661Y45549D01*
X221498Y45712D01*
X221661Y45875D01*
X221753Y46099D01*
Y46341D01*
X221661Y46565D01*
X221489Y46737D01*
X221265Y46830D01*
D02*
G37*
G36*
X9662Y42291D02*
X9490D01*
X9331Y42225D01*
X9210Y42104D01*
X9144Y41945D01*
Y41773D01*
X9210Y41615D01*
X9331Y41493D01*
X9490Y41427D01*
X9662D01*
X9820Y41493D01*
X9942Y41615D01*
X10008Y41773D01*
Y41945D01*
X9942Y42104D01*
X9820Y42225D01*
X9662Y42291D01*
D02*
G37*
G36*
X233300Y41362D02*
X233300Y41362D01*
X228144D01*
X228144Y41362D01*
X228035Y41340D01*
X227943Y41278D01*
X227943Y41278D01*
X227409Y40745D01*
X227347Y40652D01*
X227326Y40543D01*
X227326Y40543D01*
Y27659D01*
X227066Y27399D01*
X226951D01*
X226792Y27333D01*
X226671Y27211D01*
X226605Y27053D01*
Y26881D01*
X226671Y26722D01*
X226792Y26601D01*
X226951Y26535D01*
X227122D01*
X227281Y26601D01*
X227403Y26722D01*
X227468Y26881D01*
Y26996D01*
X227812Y27339D01*
X227874Y27432D01*
X227895Y27541D01*
X227895Y27541D01*
Y40425D01*
X228262Y40792D01*
X232471D01*
X232595Y40592D01*
X232574Y40540D01*
Y40425D01*
X229009Y36861D01*
X228948Y36768D01*
X228926Y36659D01*
X228926Y36659D01*
Y22837D01*
X228926Y22837D01*
X228948Y22728D01*
X229009Y22635D01*
X230085Y21560D01*
Y21445D01*
X230150Y21287D01*
X230272Y21165D01*
X230431Y21099D01*
X230602D01*
X230761Y21165D01*
X230882Y21287D01*
X230948Y21445D01*
Y21617D01*
X230882Y21776D01*
X230761Y21897D01*
X230602Y21963D01*
X230487D01*
X229496Y22955D01*
Y36541D01*
X232977Y40022D01*
X233092D01*
X233120Y40034D01*
X233320Y39901D01*
Y39292D01*
X233035Y39006D01*
X232920D01*
X232761Y38941D01*
X232640Y38819D01*
X232574Y38660D01*
Y38489D01*
X232640Y38330D01*
X232761Y38209D01*
X232920Y38143D01*
X233092D01*
X233250Y38209D01*
X233372Y38330D01*
X233437Y38489D01*
Y38604D01*
X233806Y38973D01*
X233806Y38973D01*
X233868Y39065D01*
X233890Y39174D01*
X233890Y39174D01*
Y40772D01*
X233890Y40772D01*
X233868Y40881D01*
X233806Y40973D01*
X233806Y40973D01*
X233502Y41278D01*
X233409Y41340D01*
X233300Y41362D01*
D02*
G37*
G36*
X187284Y42164D02*
X187112D01*
X186953Y42098D01*
X186832Y41977D01*
X186766Y41818D01*
Y41646D01*
X186832Y41488D01*
X186953Y41366D01*
X187112Y41300D01*
X187284D01*
X187443Y41366D01*
X187564Y41488D01*
X187630Y41646D01*
Y41818D01*
X187564Y41977D01*
X187443Y42098D01*
X187284Y42164D01*
D02*
G37*
G36*
X172415Y57944D02*
X160697D01*
X160568Y57918D01*
X160458Y57845D01*
X156339Y53726D01*
X150175D01*
X150171Y53735D01*
X150000Y53906D01*
X149776Y53999D01*
X149533D01*
X149309Y53906D01*
X149138Y53735D01*
X149045Y53511D01*
Y53268D01*
X149138Y53044D01*
X149309Y52873D01*
X149533Y52780D01*
X149776D01*
X150000Y52873D01*
X150171Y53044D01*
X150175Y53053D01*
X154978D01*
X155109Y52853D01*
X155092Y52812D01*
Y52641D01*
X155158Y52482D01*
X155280Y52361D01*
X155438Y52295D01*
X155610D01*
X155769Y52361D01*
X155890Y52482D01*
X155956Y52641D01*
Y52812D01*
X155939Y52853D01*
X156070Y53053D01*
X156479D01*
X156608Y53078D01*
X156717Y53151D01*
X160836Y57271D01*
X166383D01*
X166423Y57071D01*
X166329Y57032D01*
X166158Y56860D01*
X166065Y56636D01*
Y56394D01*
X166158Y56170D01*
X166329Y55998D01*
X166554Y55905D01*
X166796D01*
X167020Y55998D01*
X167192Y56170D01*
X167284Y56394D01*
Y56636D01*
X167192Y56860D01*
X167020Y57032D01*
X166927Y57071D01*
X166966Y57271D01*
X170959D01*
X171042Y57071D01*
X170984Y57013D01*
X170891Y56789D01*
Y56546D01*
X170984Y56322D01*
X171156Y56151D01*
X171380Y56058D01*
X171622D01*
X171846Y56151D01*
X172018Y56322D01*
X172110Y56546D01*
Y56789D01*
X172018Y57013D01*
X171960Y57071D01*
X172043Y57271D01*
X172276D01*
X176989Y52557D01*
Y46321D01*
X177015Y46192D01*
X177088Y46083D01*
X183048Y40123D01*
X183158Y40050D01*
X183286Y40024D01*
X187948D01*
X187951Y40015D01*
X188123Y39844D01*
X188347Y39751D01*
X188589D01*
X188813Y39844D01*
X188985Y40015D01*
X189078Y40239D01*
Y40482D01*
X188985Y40706D01*
X188813Y40877D01*
X188589Y40970D01*
X188347D01*
X188123Y40877D01*
X187951Y40706D01*
X187948Y40697D01*
X183426D01*
X177663Y46460D01*
Y52696D01*
X177637Y52825D01*
X177564Y52934D01*
X172653Y57845D01*
X172544Y57918D01*
X172415Y57944D01*
D02*
G37*
G36*
X28341Y40538D02*
X28098D01*
X27874Y40446D01*
X27703Y40274D01*
X27610Y40050D01*
Y39808D01*
X27703Y39583D01*
X27874Y39412D01*
X28098Y39319D01*
X28341D01*
X28565Y39412D01*
X28736Y39583D01*
X28829Y39808D01*
Y40050D01*
X28736Y40274D01*
X28565Y40446D01*
X28341Y40538D01*
D02*
G37*
G36*
X238541Y39853D02*
X238369D01*
X238211Y39787D01*
X238089Y39665D01*
X238023Y39507D01*
Y39335D01*
X238089Y39176D01*
X238211Y39055D01*
X238369Y38989D01*
X238541D01*
X238700Y39055D01*
X238821Y39176D01*
X238887Y39335D01*
Y39507D01*
X238821Y39665D01*
X238700Y39787D01*
X238541Y39853D01*
D02*
G37*
G36*
X68945Y39802D02*
X68774D01*
X68615Y39736D01*
X68493Y39615D01*
X68428Y39456D01*
Y39284D01*
X68493Y39125D01*
X68615Y39004D01*
X68774Y38938D01*
X68945D01*
X69104Y39004D01*
X69225Y39125D01*
X69291Y39284D01*
Y39456D01*
X69225Y39615D01*
X69104Y39736D01*
X68945Y39802D01*
D02*
G37*
G36*
X7410Y40159D02*
X6410D01*
X6213Y40133D01*
X6030Y40057D01*
X5873Y39936D01*
X5752Y39779D01*
X5676Y39595D01*
X5650Y39399D01*
X5676Y39202D01*
X5752Y39019D01*
X5873Y38862D01*
X6030Y38741D01*
X6213Y38665D01*
X6410Y38639D01*
X7410D01*
X7606Y38665D01*
X7790Y38741D01*
X7947Y38862D01*
X8068Y39019D01*
X8144Y39202D01*
X8170Y39399D01*
X8144Y39595D01*
X8068Y39779D01*
X7947Y39936D01*
X7790Y40057D01*
X7606Y40133D01*
X7410Y40159D01*
D02*
G37*
G36*
X88894Y39732D02*
X88652D01*
X88428Y39639D01*
X88256Y39468D01*
X88163Y39243D01*
Y39001D01*
X88256Y38777D01*
X88428Y38605D01*
X88652Y38513D01*
X88894D01*
X89118Y38605D01*
X89290Y38777D01*
X89383Y39001D01*
Y39243D01*
X89290Y39468D01*
X89118Y39639D01*
X88894Y39732D01*
D02*
G37*
G36*
X172105Y39675D02*
X171862D01*
X171638Y39582D01*
X171467Y39411D01*
X171374Y39186D01*
Y38944D01*
X171467Y38720D01*
X171638Y38548D01*
X171862Y38456D01*
X172105D01*
X172329Y38548D01*
X172500Y38720D01*
X172593Y38944D01*
Y39186D01*
X172500Y39411D01*
X172329Y39582D01*
X172105Y39675D01*
D02*
G37*
G36*
X100213Y39141D02*
X100041D01*
X99882Y39076D01*
X99761Y38954D01*
X99695Y38796D01*
Y38624D01*
X99761Y38465D01*
X99882Y38344D01*
X100041Y38278D01*
X100213D01*
X100371Y38344D01*
X100493Y38465D01*
X100559Y38624D01*
Y38796D01*
X100493Y38954D01*
X100371Y39076D01*
X100213Y39141D01*
D02*
G37*
G36*
X68944Y38379D02*
X68772D01*
X68614Y38314D01*
X68492Y38192D01*
X68427Y38033D01*
Y37862D01*
X68492Y37703D01*
X68614Y37582D01*
X68772Y37516D01*
X68944D01*
X69103Y37582D01*
X69224Y37703D01*
X69290Y37862D01*
Y38033D01*
X69224Y38192D01*
X69103Y38314D01*
X68944Y38379D01*
D02*
G37*
G36*
X166923Y38557D02*
X166681D01*
X166457Y38464D01*
X166285Y38293D01*
X166192Y38069D01*
Y37826D01*
X166285Y37602D01*
X166457Y37431D01*
X166681Y37338D01*
X166923D01*
X167147Y37431D01*
X167319Y37602D01*
X167411Y37826D01*
Y38069D01*
X167319Y38293D01*
X167147Y38464D01*
X166923Y38557D01*
D02*
G37*
G36*
X187513Y38100D02*
X187341D01*
X187182Y38034D01*
X187061Y37913D01*
X186995Y37754D01*
Y37582D01*
X187061Y37424D01*
X187182Y37302D01*
X187341Y37236D01*
X187513D01*
X187671Y37302D01*
X187793Y37424D01*
X187858Y37582D01*
Y37754D01*
X187793Y37913D01*
X187671Y38034D01*
X187513Y38100D01*
D02*
G37*
G36*
X242835Y37912D02*
X242610D01*
X242393Y37854D01*
X242199Y37741D01*
X242040Y37582D01*
X241927Y37388D01*
X241869Y37171D01*
Y36946D01*
X241927Y36729D01*
X242040Y36535D01*
X242199Y36376D01*
X242393Y36264D01*
X242610Y36205D01*
X242835D01*
X243052Y36264D01*
X243246Y36376D01*
X243405Y36535D01*
X243517Y36729D01*
X243576Y36946D01*
Y37171D01*
X243517Y37388D01*
X243405Y37582D01*
X243246Y37741D01*
X243052Y37854D01*
X242835Y37912D01*
D02*
G37*
G36*
X135652Y37369D02*
X135409D01*
X135185Y37276D01*
X135014Y37104D01*
X134921Y36880D01*
Y36638D01*
X135014Y36414D01*
X135185Y36242D01*
X135409Y36149D01*
X135652D01*
X135876Y36242D01*
X136047Y36414D01*
X136140Y36638D01*
Y36880D01*
X136047Y37104D01*
X135876Y37276D01*
X135652Y37369D01*
D02*
G37*
G36*
X6970Y44613D02*
X6798D01*
X6639Y44547D01*
X6518Y44425D01*
X6452Y44267D01*
Y44095D01*
X6518Y43936D01*
X6491Y43715D01*
X6425Y43556D01*
Y43384D01*
X6491Y43226D01*
X6609Y43107D01*
X6505Y43004D01*
X6439Y42845D01*
Y42673D01*
X6505Y42514D01*
X6627Y42393D01*
X6785Y42327D01*
X6957D01*
X7063Y42371D01*
X7165D01*
X10027Y39510D01*
Y37567D01*
X10052Y37438D01*
X10125Y37329D01*
X11395Y36059D01*
X11504Y35986D01*
X11633Y35960D01*
X20345D01*
X20474Y35986D01*
X20583Y36059D01*
X21584Y37059D01*
X21625D01*
X21784Y37124D01*
X21905Y37246D01*
X21971Y37404D01*
Y37576D01*
X21905Y37735D01*
X21784Y37856D01*
X21625Y37922D01*
X21453D01*
X21295Y37856D01*
X21173Y37735D01*
X21107Y37576D01*
Y37535D01*
X20206Y36633D01*
X11773D01*
X10700Y37706D01*
Y39649D01*
X10674Y39778D01*
X10601Y39887D01*
X7543Y42946D01*
X7434Y43019D01*
X7321Y43041D01*
X7281Y43104D01*
X7230Y43244D01*
X7288Y43384D01*
Y43556D01*
X7223Y43715D01*
X7250Y43936D01*
X7316Y44095D01*
Y44267D01*
X7250Y44425D01*
X7128Y44547D01*
X6970Y44613D01*
D02*
G37*
G36*
X68944Y36703D02*
X68772D01*
X68614Y36637D01*
X68492Y36516D01*
X68427Y36357D01*
Y36185D01*
X68492Y36027D01*
X68614Y35905D01*
X68772Y35839D01*
X68944D01*
X69103Y35905D01*
X69224Y36027D01*
X69290Y36185D01*
Y36357D01*
X69224Y36516D01*
X69103Y36637D01*
X68944Y36703D01*
D02*
G37*
G36*
X187563Y36093D02*
X187392D01*
X187233Y36028D01*
X187111Y35906D01*
X187046Y35748D01*
Y35576D01*
X187111Y35417D01*
X187233Y35296D01*
X187392Y35230D01*
X187563D01*
X187722Y35296D01*
X187843Y35417D01*
X187909Y35576D01*
Y35748D01*
X187843Y35906D01*
X187722Y36028D01*
X187563Y36093D01*
D02*
G37*
G36*
X242849Y35960D02*
Y35186D01*
X243624D01*
X243565Y35408D01*
X243446Y35614D01*
X243277Y35782D01*
X243071Y35901D01*
X242849Y35960D01*
D02*
G37*
G36*
X242595Y35960D02*
X242373Y35901D01*
X242167Y35782D01*
X241999Y35614D01*
X241880Y35408D01*
X241821Y35186D01*
X242595D01*
Y35960D01*
D02*
G37*
G36*
X130135Y35387D02*
X129963D01*
X129805Y35321D01*
X129683Y35200D01*
X129617Y35041D01*
Y34870D01*
X129683Y34711D01*
X129805Y34589D01*
X129963Y34524D01*
X130135D01*
X130294Y34589D01*
X130415Y34711D01*
X130481Y34870D01*
Y35041D01*
X130415Y35200D01*
X130294Y35321D01*
X130135Y35387D01*
D02*
G37*
G36*
X68996Y35255D02*
X68824D01*
X68666Y35189D01*
X68544Y35068D01*
X68478Y34909D01*
Y34738D01*
X68544Y34579D01*
X68666Y34457D01*
X68824Y34392D01*
X68996D01*
X69155Y34457D01*
X69276Y34579D01*
X69342Y34738D01*
Y34909D01*
X69276Y35068D01*
X69155Y35189D01*
X68996Y35255D01*
D02*
G37*
G36*
X126432Y35464D02*
X126189D01*
X125965Y35371D01*
X125794Y35199D01*
X125701Y34975D01*
Y34733D01*
X125794Y34509D01*
X125965Y34337D01*
X126189Y34244D01*
X126432D01*
X126656Y34337D01*
X126827Y34509D01*
X126920Y34733D01*
Y34975D01*
X126827Y35199D01*
X126656Y35371D01*
X126432Y35464D01*
D02*
G37*
G36*
X242595Y34932D02*
X241821D01*
X241880Y34710D01*
X241999Y34504D01*
X242167Y34335D01*
X242373Y34216D01*
X242595Y34157D01*
Y34932D01*
D02*
G37*
G36*
X243624D02*
X242849D01*
Y34157D01*
X243071Y34216D01*
X243277Y34335D01*
X243446Y34504D01*
X243565Y34710D01*
X243624Y34932D01*
D02*
G37*
G36*
X160088Y54253D02*
X159846D01*
X159621Y54160D01*
X159450Y53989D01*
X159357Y53765D01*
Y53522D01*
X159450Y53298D01*
X159621Y53127D01*
X159846Y53034D01*
X160088D01*
X160097Y53037D01*
X164334Y48800D01*
X164334Y48800D01*
X164236Y48616D01*
X164125D01*
X163966Y48550D01*
X163845Y48428D01*
X163779Y48270D01*
Y48098D01*
X163845Y47939D01*
X163966Y47818D01*
X164125Y47752D01*
X164297D01*
X164456Y47818D01*
X164577Y47939D01*
X164643Y48098D01*
Y48208D01*
X164828Y48306D01*
X164828Y48306D01*
X165152Y47982D01*
X165105Y47746D01*
X165084Y47737D01*
X164963Y47616D01*
X164897Y47457D01*
Y47285D01*
X164963Y47126D01*
X165084Y47005D01*
X165243Y46939D01*
X165415D01*
X165573Y47005D01*
X165695Y47126D01*
X165704Y47148D01*
X165939Y47195D01*
X178955Y34179D01*
X179064Y34106D01*
X179193Y34080D01*
X188100D01*
X188104Y34072D01*
X188275Y33900D01*
X188499Y33807D01*
X188742D01*
X188966Y33900D01*
X189137Y34072D01*
X189230Y34296D01*
Y34538D01*
X189137Y34762D01*
X188966Y34934D01*
X188742Y35027D01*
X188499D01*
X188275Y34934D01*
X188104Y34762D01*
X188100Y34754D01*
X179333D01*
X160573Y53514D01*
X160576Y53522D01*
Y53765D01*
X160484Y53989D01*
X160312Y54160D01*
X160088Y54253D01*
D02*
G37*
G36*
X220833Y34942D02*
X220591D01*
X220367Y34850D01*
X220195Y34678D01*
X220102Y34454D01*
Y34212D01*
X220195Y33987D01*
X220367Y33816D01*
X220591Y33723D01*
X220833D01*
X221057Y33816D01*
X221229Y33987D01*
X221322Y34212D01*
Y34454D01*
X221229Y34678D01*
X221057Y34850D01*
X220833Y34942D01*
D02*
G37*
G36*
X187868Y32868D02*
X187696D01*
X187538Y32802D01*
X187416Y32680D01*
X187350Y32522D01*
Y32350D01*
X187416Y32191D01*
X187538Y32070D01*
X187696Y32004D01*
X187868D01*
X188027Y32070D01*
X188148Y32191D01*
X188214Y32350D01*
Y32522D01*
X188148Y32680D01*
X188027Y32802D01*
X187868Y32868D01*
D02*
G37*
G36*
X2575Y32766D02*
X2403D01*
X2245Y32700D01*
X2123Y32579D01*
X2057Y32420D01*
Y32248D01*
X2123Y32090D01*
X2245Y31968D01*
X2403Y31902D01*
X2575D01*
X2734Y31968D01*
X2855Y32090D01*
X2921Y32248D01*
Y32420D01*
X2855Y32579D01*
X2734Y32700D01*
X2575Y32766D01*
D02*
G37*
G36*
X207371Y32123D02*
X207129D01*
X206905Y32030D01*
X206733Y31859D01*
X206640Y31635D01*
Y31392D01*
X206733Y31168D01*
X206905Y30997D01*
X207129Y30904D01*
X207371D01*
X207595Y30997D01*
X207767Y31168D01*
X207860Y31392D01*
Y31635D01*
X207767Y31859D01*
X207595Y32030D01*
X207371Y32123D01*
D02*
G37*
G36*
X10434Y31953D02*
X10191D01*
X9967Y31860D01*
X9796Y31689D01*
X9703Y31465D01*
Y31222D01*
X9796Y30998D01*
X9967Y30827D01*
X10191Y30734D01*
X10434D01*
X10658Y30827D01*
X10829Y30998D01*
X10922Y31222D01*
Y31465D01*
X10829Y31689D01*
X10658Y31860D01*
X10434Y31953D01*
D02*
G37*
G36*
X220304Y30455D02*
X220132D01*
X219973Y30389D01*
X219852Y30267D01*
X219786Y30109D01*
Y29937D01*
X219852Y29778D01*
X219973Y29657D01*
X220132Y29591D01*
X220304D01*
X220463Y29657D01*
X220584Y29778D01*
X220650Y29937D01*
Y30109D01*
X220584Y30267D01*
X220463Y30389D01*
X220304Y30455D01*
D02*
G37*
G36*
X100350Y30785D02*
X100107D01*
X99883Y30692D01*
X99712Y30521D01*
X99619Y30296D01*
Y30054D01*
X99712Y29830D01*
X99883Y29658D01*
X100107Y29566D01*
X100350D01*
X100574Y29658D01*
X100745Y29830D01*
X100838Y30054D01*
Y30296D01*
X100745Y30521D01*
X100574Y30692D01*
X100350Y30785D01*
D02*
G37*
G36*
X68945Y29673D02*
X68773D01*
X68615Y29608D01*
X68493Y29486D01*
X68428Y29328D01*
Y29156D01*
X68493Y28997D01*
X68615Y28876D01*
X68773Y28810D01*
X68945D01*
X69104Y28876D01*
X69225Y28997D01*
X69291Y29156D01*
Y29328D01*
X69225Y29486D01*
X69104Y29608D01*
X68945Y29673D01*
D02*
G37*
G36*
X59405Y29921D02*
X59162D01*
X58938Y29828D01*
X58767Y29657D01*
X58674Y29433D01*
Y29190D01*
X58767Y28966D01*
X58938Y28795D01*
X59162Y28702D01*
X59405D01*
X59629Y28795D01*
X59800Y28966D01*
X59893Y29190D01*
Y29433D01*
X59800Y29657D01*
X59629Y29828D01*
X59405Y29921D01*
D02*
G37*
G36*
X149232Y30867D02*
X148862D01*
X148506Y30772D01*
X148186Y30587D01*
X147924Y30326D01*
X147740Y30006D01*
X147644Y29649D01*
Y29279D01*
X147740Y28922D01*
X147924Y28602D01*
X148186Y28341D01*
X148506Y28156D01*
X148862Y28061D01*
X149232D01*
X149589Y28156D01*
X149909Y28341D01*
X150170Y28602D01*
X150355Y28922D01*
X150450Y29279D01*
Y29649D01*
X150355Y30006D01*
X150170Y30326D01*
X149909Y30587D01*
X149589Y30772D01*
X149232Y30867D01*
D02*
G37*
G36*
X100451Y29159D02*
X100209D01*
X99985Y29066D01*
X99813Y28895D01*
X99720Y28671D01*
Y28428D01*
X99813Y28204D01*
X99985Y28033D01*
X100209Y27940D01*
X100451D01*
X100675Y28033D01*
X100847Y28204D01*
X100940Y28428D01*
Y28671D01*
X100847Y28895D01*
X100675Y29066D01*
X100451Y29159D01*
D02*
G37*
G36*
X13314Y27847D02*
X12950D01*
X12599Y27753D01*
X12284Y27572D01*
X12129Y27416D01*
X12073Y27415D01*
X11891Y27462D01*
X11881Y27477D01*
X11814Y27522D01*
X11735Y27538D01*
X10490D01*
X10411Y27522D01*
X10344Y27477D01*
X10299Y27410D01*
X10283Y27330D01*
Y26153D01*
X10083Y26070D01*
X10031Y26122D01*
X9768Y26274D01*
X9474Y26352D01*
X9170D01*
X8876Y26274D01*
X8612Y26122D01*
X8397Y25906D01*
X8245Y25643D01*
X8166Y25349D01*
Y25045D01*
X8245Y24751D01*
X8397Y24487D01*
X8612Y24272D01*
X8876Y24120D01*
X9170Y24041D01*
X9474D01*
X9768Y24120D01*
X10031Y24272D01*
X10173Y24413D01*
X10288Y24483D01*
X10411Y24472D01*
X10490Y24456D01*
X11735D01*
X11814Y24472D01*
X11881Y24517D01*
X11926Y24584D01*
X11942Y24663D01*
Y25421D01*
X12142Y25504D01*
X12284Y25362D01*
X12599Y25180D01*
X12950Y25086D01*
X13314D01*
X13665Y25180D01*
X13980Y25362D01*
X14237Y25619D01*
X14249Y25640D01*
X14449Y25586D01*
Y24917D01*
X14464Y24838D01*
X14509Y24771D01*
X14577Y24726D01*
X14656Y24710D01*
X21572D01*
X21598Y24672D01*
X21642Y24510D01*
X21501Y24369D01*
X21374Y24148D01*
X21308Y23902D01*
Y23647D01*
X21374Y23401D01*
X21501Y23180D01*
X21681Y23000D01*
X21902Y22872D01*
X21940Y22862D01*
Y22655D01*
X21902Y22645D01*
X21681Y22517D01*
X21501Y22337D01*
X21374Y22116D01*
X21308Y21870D01*
Y21615D01*
X21374Y21369D01*
X21501Y21148D01*
X21681Y20968D01*
X21902Y20840D01*
X21940Y20830D01*
Y20623D01*
X21902Y20613D01*
X21681Y20485D01*
X21501Y20305D01*
X21374Y20084D01*
X21308Y19838D01*
Y19583D01*
X21374Y19337D01*
X21501Y19116D01*
X21681Y18936D01*
X21902Y18808D01*
X22148Y18742D01*
X22403D01*
X22650Y18808D01*
X22870Y18936D01*
X23051Y19116D01*
X23178Y19337D01*
X23244Y19583D01*
Y19838D01*
X23178Y20084D01*
X23051Y20305D01*
X22870Y20485D01*
X22650Y20613D01*
X22611Y20623D01*
Y20830D01*
X22650Y20840D01*
X22870Y20968D01*
X23051Y21148D01*
X23178Y21369D01*
X23244Y21615D01*
Y21870D01*
X23178Y22116D01*
X23051Y22337D01*
X22870Y22517D01*
X22650Y22645D01*
X22611Y22655D01*
Y22862D01*
X22650Y22872D01*
X22870Y23000D01*
X23051Y23180D01*
X23178Y23401D01*
X23244Y23647D01*
Y23902D01*
X23178Y24148D01*
X23051Y24369D01*
X22909Y24510D01*
X22954Y24672D01*
X22980Y24710D01*
X24308D01*
X24387Y24726D01*
X24454Y24771D01*
X24499Y24838D01*
X24515Y24917D01*
Y27330D01*
X24499Y27410D01*
X24454Y27477D01*
X24387Y27522D01*
X24308Y27538D01*
X14656D01*
X14577Y27522D01*
X14509Y27477D01*
X14464Y27410D01*
X14451Y27343D01*
X14420Y27325D01*
X14249Y27294D01*
X14237Y27315D01*
X13980Y27572D01*
X13665Y27753D01*
X13314Y27847D01*
D02*
G37*
G36*
X68945Y28107D02*
X68773D01*
X68615Y28041D01*
X68493Y27920D01*
X68428Y27761D01*
Y27589D01*
X68493Y27431D01*
X68615Y27309D01*
X68773Y27243D01*
X68945D01*
X69104Y27309D01*
X69225Y27431D01*
X69291Y27589D01*
Y27761D01*
X69225Y27920D01*
X69104Y28041D01*
X68945Y28107D01*
D02*
G37*
G36*
X220859Y28288D02*
X220616D01*
X220392Y28195D01*
X220221Y28023D01*
X220128Y27799D01*
Y27557D01*
X220221Y27333D01*
X220392Y27161D01*
X220616Y27068D01*
X220859D01*
X221083Y27161D01*
X221254Y27333D01*
X221347Y27557D01*
Y27799D01*
X221254Y28023D01*
X221083Y28195D01*
X220859Y28288D01*
D02*
G37*
G36*
X68945Y26541D02*
X68773D01*
X68615Y26475D01*
X68493Y26354D01*
X68428Y26195D01*
Y26023D01*
X68493Y25864D01*
X68615Y25743D01*
X68773Y25677D01*
X68945D01*
X69104Y25743D01*
X69225Y25864D01*
X69291Y26023D01*
Y26195D01*
X69225Y26354D01*
X69104Y26475D01*
X68945Y26541D01*
D02*
G37*
G36*
X145612Y26162D02*
X145370D01*
X145146Y26069D01*
X144974Y25898D01*
X144882Y25674D01*
Y25431D01*
X144955Y25255D01*
X144865Y25055D01*
X125366D01*
X125285Y25136D01*
X125126Y25202D01*
X124955D01*
X124796Y25136D01*
X124674Y25015D01*
X124609Y24856D01*
Y24684D01*
X124674Y24526D01*
X124796Y24404D01*
X124955Y24338D01*
X125126D01*
X125285Y24404D01*
X125366Y24485D01*
X149108D01*
X153622Y19971D01*
X153622Y19971D01*
X153715Y19909D01*
X153824Y19888D01*
X153824Y19888D01*
X181298D01*
X181323Y19827D01*
X181494Y19656D01*
X181719Y19563D01*
X181961D01*
X182185Y19656D01*
X182357Y19827D01*
X182449Y20051D01*
Y20294D01*
X182357Y20518D01*
X182185Y20689D01*
X181961Y20782D01*
X181719D01*
X181494Y20689D01*
X181323Y20518D01*
X181298Y20457D01*
X166080D01*
X166023Y20553D01*
X165984Y20657D01*
X166040Y20793D01*
Y20965D01*
X165974Y21123D01*
X165853Y21245D01*
X165694Y21311D01*
X165522D01*
X165363Y21245D01*
X165242Y21123D01*
X165176Y20965D01*
Y20793D01*
X165232Y20657D01*
X165193Y20553D01*
X165136Y20457D01*
X153942D01*
X149427Y24972D01*
X149335Y25033D01*
X149226Y25055D01*
X149226Y25055D01*
X146117D01*
X146028Y25255D01*
X146101Y25431D01*
Y25674D01*
X146008Y25898D01*
X145836Y26069D01*
X145612Y26162D01*
D02*
G37*
G36*
X239223Y25570D02*
X238980D01*
X238756Y25477D01*
X238585Y25306D01*
X238492Y25081D01*
Y24839D01*
X238585Y24615D01*
X238756Y24443D01*
X238980Y24351D01*
X239223D01*
X239447Y24443D01*
X239618Y24615D01*
X239711Y24839D01*
Y25081D01*
X239618Y25306D01*
X239447Y25477D01*
X239223Y25570D01*
D02*
G37*
G36*
X68945Y24974D02*
X68773D01*
X68615Y24909D01*
X68493Y24787D01*
X68428Y24629D01*
Y24457D01*
X68493Y24298D01*
X68615Y24177D01*
X68773Y24111D01*
X68945D01*
X69104Y24177D01*
X69225Y24298D01*
X69291Y24457D01*
Y24629D01*
X69225Y24787D01*
X69104Y24909D01*
X68945Y24974D01*
D02*
G37*
G36*
X6934Y26352D02*
X6630D01*
X6336Y26274D01*
X6072Y26122D01*
X5857Y25906D01*
X5705Y25643D01*
X5626Y25349D01*
Y25045D01*
X5705Y24751D01*
X5857Y24487D01*
X6072Y24272D01*
X6336Y24120D01*
X6630Y24041D01*
X6934D01*
X7228Y24120D01*
X7491Y24272D01*
X7707Y24487D01*
X7859Y24751D01*
X7938Y25045D01*
Y25349D01*
X7859Y25643D01*
X7707Y25906D01*
X7491Y26122D01*
X7228Y26274D01*
X6934Y26352D01*
D02*
G37*
G36*
X167828Y24257D02*
X167656D01*
X167497Y24191D01*
X167376Y24070D01*
X167310Y23911D01*
Y23739D01*
X167376Y23581D01*
X167497Y23459D01*
X167656Y23393D01*
X167828D01*
X167986Y23459D01*
X168108Y23581D01*
X168173Y23739D01*
Y23911D01*
X168108Y24070D01*
X167986Y24191D01*
X167828Y24257D01*
D02*
G37*
G36*
X84195Y24587D02*
X83953D01*
X83729Y24494D01*
X83557Y24323D01*
X83464Y24099D01*
Y23856D01*
X83557Y23632D01*
X83729Y23461D01*
X83953Y23368D01*
X84195D01*
X84419Y23461D01*
X84591Y23632D01*
X84684Y23856D01*
Y24099D01*
X84591Y24323D01*
X84419Y24494D01*
X84195Y24587D01*
D02*
G37*
G36*
X158643Y38506D02*
X158400D01*
X158176Y38414D01*
X158005Y38242D01*
X157912Y38018D01*
Y37776D01*
X158005Y37552D01*
X158176Y37380D01*
X158185Y37376D01*
Y32309D01*
X158210Y32180D01*
X158283Y32071D01*
X165348Y25007D01*
Y24015D01*
X165339Y24012D01*
X165167Y23840D01*
X165075Y23616D01*
Y23374D01*
X165167Y23150D01*
X165339Y22978D01*
X165563Y22885D01*
X165805D01*
X166030Y22978D01*
X166201Y23150D01*
X166294Y23374D01*
Y23616D01*
X166201Y23840D01*
X166030Y24012D01*
X166021Y24015D01*
Y25146D01*
X165995Y25275D01*
X165922Y25384D01*
X158858Y32448D01*
Y37376D01*
X158867Y37380D01*
X159038Y37552D01*
X159131Y37776D01*
Y38018D01*
X159038Y38242D01*
X158867Y38414D01*
X158643Y38506D01*
D02*
G37*
G36*
X69081Y23692D02*
X68841D01*
X68619Y23600D01*
X68450Y23430D01*
X68358Y23209D01*
Y22969D01*
X68450Y22747D01*
X68619Y22577D01*
X68841Y22485D01*
X69081D01*
X69303Y22577D01*
X69472Y22747D01*
X69564Y22969D01*
Y23209D01*
X69472Y23430D01*
X69303Y23600D01*
X69081Y23692D01*
D02*
G37*
G36*
X226792Y23233D02*
X226621D01*
X226462Y23167D01*
X226340Y23046D01*
X226275Y22887D01*
Y22715D01*
X226340Y22557D01*
X226462Y22435D01*
X226621Y22369D01*
X226792D01*
X226951Y22435D01*
X227072Y22557D01*
X227138Y22715D01*
Y22887D01*
X227072Y23046D01*
X226951Y23167D01*
X226792Y23233D01*
D02*
G37*
G36*
X89097Y23527D02*
X88855D01*
X88631Y23434D01*
X88459Y23262D01*
X88367Y23038D01*
Y22796D01*
X88459Y22572D01*
X88631Y22400D01*
X88855Y22307D01*
X89097D01*
X89321Y22400D01*
X89493Y22572D01*
X89586Y22796D01*
Y23038D01*
X89493Y23262D01*
X89321Y23434D01*
X89097Y23527D01*
D02*
G37*
G36*
X96641Y23095D02*
X96399D01*
X96175Y23002D01*
X96003Y22831D01*
X95910Y22606D01*
Y22364D01*
X96003Y22140D01*
X96175Y21968D01*
X96399Y21876D01*
X96641D01*
X96865Y21968D01*
X97037Y22140D01*
X97130Y22364D01*
Y22606D01*
X97037Y22831D01*
X96865Y23002D01*
X96641Y23095D01*
D02*
G37*
G36*
X239223Y22852D02*
X238980D01*
X238756Y22759D01*
X238585Y22588D01*
X238492Y22364D01*
Y22121D01*
X238585Y21897D01*
X238756Y21726D01*
X238980Y21633D01*
X239223D01*
X239447Y21726D01*
X239618Y21897D01*
X239711Y22121D01*
Y22364D01*
X239618Y22588D01*
X239447Y22759D01*
X239223Y22852D01*
D02*
G37*
G36*
X13312Y24333D02*
X12952D01*
X12599Y24262D01*
X12266Y24125D01*
X11966Y23924D01*
X11712Y23670D01*
X11512Y23370D01*
X11374Y23038D01*
X11304Y22684D01*
Y22324D01*
X11374Y21971D01*
X11512Y21638D01*
X11712Y21339D01*
X11966Y21084D01*
X12266Y20884D01*
X12599Y20746D01*
X12952Y20676D01*
X13312D01*
X13665Y20746D01*
X13998Y20884D01*
X14297Y21084D01*
X14552Y21339D01*
X14752Y21638D01*
X14890Y21971D01*
X14960Y22324D01*
Y22684D01*
X14890Y23038D01*
X14752Y23370D01*
X14552Y23670D01*
X14297Y23924D01*
X13998Y24125D01*
X13665Y24262D01*
X13312Y24333D01*
D02*
G37*
G36*
X134540Y21944D02*
X130065D01*
X129986Y21929D01*
X129919Y21884D01*
X129874Y21816D01*
X129858Y21737D01*
Y20437D01*
X129874Y20358D01*
X129919Y20291D01*
X129986Y20246D01*
X130065Y20230D01*
X134540D01*
X134620Y20246D01*
X134687Y20291D01*
X134732Y20358D01*
X134748Y20437D01*
Y21737D01*
X134732Y21816D01*
X134687Y21884D01*
X134620Y21929D01*
X134540Y21944D01*
D02*
G37*
G36*
X109890Y20193D02*
X109718D01*
X109560Y20127D01*
X109438Y20006D01*
X109372Y19847D01*
Y19675D01*
X109438Y19517D01*
X109560Y19395D01*
X109718Y19329D01*
X109890D01*
X110049Y19395D01*
X110170Y19517D01*
X110236Y19675D01*
Y19847D01*
X110170Y20006D01*
X110049Y20127D01*
X109890Y20193D01*
D02*
G37*
G36*
X108087Y20168D02*
X107915D01*
X107756Y20102D01*
X107635Y19980D01*
X107569Y19822D01*
Y19650D01*
X107635Y19491D01*
X107756Y19370D01*
X107915Y19304D01*
X108087D01*
X108245Y19370D01*
X108367Y19491D01*
X108433Y19650D01*
Y19822D01*
X108367Y19980D01*
X108245Y20102D01*
X108087Y20168D01*
D02*
G37*
G36*
X61630Y26746D02*
X61458D01*
X61300Y26680D01*
X61178Y26559D01*
X61112Y26400D01*
Y26229D01*
X61178Y26070D01*
X61259Y25989D01*
Y16343D01*
X56875Y11959D01*
X56761D01*
X56602Y11893D01*
X56480Y11771D01*
X56415Y11613D01*
Y11441D01*
X56480Y11282D01*
X56602Y11161D01*
X56761Y11095D01*
X56932D01*
X57091Y11161D01*
X57212Y11282D01*
X57278Y11441D01*
Y11556D01*
X61746Y16023D01*
X61746Y16023D01*
X61807Y16116D01*
X61829Y16225D01*
X61829Y16225D01*
Y16754D01*
X61939Y16815D01*
X62029Y16848D01*
X62170Y16789D01*
X62341D01*
X62500Y16855D01*
X62518Y16874D01*
X62624Y16975D01*
X62773Y16881D01*
X62932Y16815D01*
X63103D01*
X63262Y16881D01*
X63383Y17002D01*
X63449Y17161D01*
Y17332D01*
X63383Y17491D01*
X63262Y17613D01*
X63103Y17678D01*
X62932D01*
X62773Y17613D01*
X62754Y17594D01*
X62649Y17493D01*
X62500Y17587D01*
X62341Y17653D01*
X62170D01*
X62029Y17595D01*
X61939Y17627D01*
X61829Y17688D01*
Y25989D01*
X61910Y26070D01*
X61976Y26229D01*
Y26400D01*
X61910Y26559D01*
X61789Y26680D01*
X61630Y26746D01*
D02*
G37*
G36*
X153365Y17485D02*
X152263D01*
Y16383D01*
X153365D01*
Y17485D01*
D02*
G37*
G36*
X237318Y17061D02*
X237075D01*
X236851Y16968D01*
X236680Y16797D01*
X236587Y16572D01*
Y16330D01*
X236680Y16106D01*
X236851Y15934D01*
X237075Y15842D01*
X237318D01*
X237542Y15934D01*
X237713Y16106D01*
X237806Y16330D01*
Y16572D01*
X237713Y16797D01*
X237542Y16968D01*
X237318Y17061D01*
D02*
G37*
G36*
X228707D02*
X228465D01*
X228241Y16968D01*
X228069Y16797D01*
X227976Y16572D01*
Y16330D01*
X228069Y16106D01*
X228241Y15934D01*
X228465Y15842D01*
X228707D01*
X228931Y15934D01*
X229103Y16106D01*
X229196Y16330D01*
Y16572D01*
X229103Y16797D01*
X228931Y16968D01*
X228707Y17061D01*
D02*
G37*
G36*
X220503D02*
X220261D01*
X220036Y16968D01*
X219865Y16797D01*
X219772Y16572D01*
Y16330D01*
X219865Y16106D01*
X220036Y15934D01*
X220261Y15842D01*
X220503D01*
X220727Y15934D01*
X220899Y16106D01*
X220991Y16330D01*
Y16572D01*
X220899Y16797D01*
X220727Y16968D01*
X220503Y17061D01*
D02*
G37*
G36*
X154721Y17485D02*
X153619D01*
Y16256D01*
Y15027D01*
X154721D01*
Y15824D01*
X154921Y15850D01*
X154934Y15801D01*
X155089Y15533D01*
X155309Y15313D01*
X155577Y15158D01*
X155877Y15078D01*
X156187D01*
X156487Y15158D01*
X156756Y15313D01*
X156975Y15533D01*
X157130Y15801D01*
X157210Y16101D01*
Y16411D01*
X157130Y16711D01*
X156975Y16979D01*
X156756Y17199D01*
X156487Y17354D01*
X156187Y17434D01*
X155877D01*
X155577Y17354D01*
X155309Y17199D01*
X155089Y16979D01*
X154934Y16711D01*
X154921Y16662D01*
X154721Y16688D01*
Y17485D01*
D02*
G37*
G36*
X153365Y16129D02*
X152263D01*
Y15027D01*
X153365D01*
Y16129D01*
D02*
G37*
G36*
X245243Y15715D02*
X245000D01*
X244776Y15622D01*
X244605Y15450D01*
X244512Y15226D01*
Y14984D01*
X244605Y14760D01*
X244776Y14588D01*
X245000Y14495D01*
X245243D01*
X245467Y14588D01*
X245638Y14760D01*
X245731Y14984D01*
Y15226D01*
X245638Y15450D01*
X245467Y15622D01*
X245243Y15715D01*
D02*
G37*
G36*
X212426Y15689D02*
X212183D01*
X211959Y15596D01*
X211788Y15425D01*
X211695Y15201D01*
Y14958D01*
X211788Y14734D01*
X211959Y14563D01*
X212183Y14470D01*
X212426D01*
X212650Y14563D01*
X212821Y14734D01*
X212914Y14958D01*
Y15201D01*
X212821Y15425D01*
X212650Y15596D01*
X212426Y15689D01*
D02*
G37*
G36*
X128413Y15321D02*
X128170D01*
X127946Y15229D01*
X127775Y15057D01*
X127682Y14833D01*
Y14591D01*
X127775Y14366D01*
X127946Y14195D01*
X128170Y14102D01*
X128413D01*
X128637Y14195D01*
X128808Y14366D01*
X128901Y14591D01*
Y14833D01*
X128808Y15057D01*
X128637Y15229D01*
X128413Y15321D01*
D02*
G37*
G36*
X122397Y14376D02*
X122154D01*
X121930Y14284D01*
X121759Y14112D01*
X121666Y13888D01*
Y13646D01*
X121759Y13422D01*
X121930Y13250D01*
X122154Y13157D01*
X122397D01*
X122621Y13250D01*
X122792Y13422D01*
X122885Y13646D01*
Y13888D01*
X122792Y14112D01*
X122621Y14284D01*
X122397Y14376D01*
D02*
G37*
G36*
X120588D02*
X120346D01*
X120122Y14284D01*
X119950Y14112D01*
X119857Y13888D01*
Y13646D01*
X119950Y13422D01*
X120122Y13250D01*
X120346Y13157D01*
X120588D01*
X120812Y13250D01*
X120984Y13422D01*
X121077Y13646D01*
Y13888D01*
X120984Y14112D01*
X120812Y14284D01*
X120588Y14376D01*
D02*
G37*
G36*
X118780D02*
X118537D01*
X118313Y14284D01*
X118142Y14112D01*
X118049Y13888D01*
Y13646D01*
X118142Y13422D01*
X118313Y13250D01*
X118537Y13157D01*
X118780D01*
X119004Y13250D01*
X119175Y13422D01*
X119268Y13646D01*
Y13888D01*
X119175Y14112D01*
X119004Y14284D01*
X118780Y14376D01*
D02*
G37*
G36*
X104884Y14249D02*
X104641D01*
X104417Y14157D01*
X104245Y13985D01*
X104153Y13761D01*
Y13519D01*
X104245Y13295D01*
X104417Y13123D01*
X104641Y13030D01*
X104884D01*
X105108Y13123D01*
X105279Y13295D01*
X105372Y13519D01*
Y13761D01*
X105279Y13985D01*
X105108Y14157D01*
X104884Y14249D01*
D02*
G37*
G36*
X67015Y12751D02*
X66843D01*
X66684Y12685D01*
X66666Y12667D01*
X66561Y12565D01*
X66412Y12660D01*
X66253Y12725D01*
X66081D01*
X65922Y12660D01*
X65801Y12538D01*
X65735Y12379D01*
Y12208D01*
X65801Y12049D01*
X65922Y11928D01*
X66081Y11862D01*
X66253D01*
X66412Y11928D01*
X66430Y11946D01*
X66535Y12048D01*
X66684Y11953D01*
X66843Y11887D01*
X67015D01*
X67174Y11953D01*
X67295Y12074D01*
X67361Y12233D01*
Y12405D01*
X67295Y12564D01*
X67174Y12685D01*
X67015Y12751D01*
D02*
G37*
G36*
X19863Y23727D02*
X19608D01*
X19362Y23661D01*
X19141Y23533D01*
X18961Y23353D01*
X18834Y23132D01*
X18768Y22886D01*
Y22631D01*
X18834Y22385D01*
X18961Y22164D01*
X19141Y21984D01*
X19362Y21856D01*
X19400Y21846D01*
Y21639D01*
X19362Y21629D01*
X19141Y21501D01*
X18961Y21321D01*
X18834Y21100D01*
X18768Y20854D01*
Y20599D01*
X18834Y20353D01*
X18961Y20132D01*
X19141Y19952D01*
X19362Y19824D01*
X19400Y19814D01*
Y19607D01*
X19362Y19597D01*
X19141Y19469D01*
X18961Y19289D01*
X18834Y19068D01*
X18768Y18822D01*
Y18567D01*
X18834Y18321D01*
X18961Y18100D01*
X19141Y17920D01*
X19362Y17792D01*
X19400Y17782D01*
Y17575D01*
X19362Y17565D01*
X19141Y17437D01*
X18961Y17257D01*
X18834Y17036D01*
X18768Y16790D01*
Y16535D01*
X18834Y16289D01*
X18961Y16068D01*
X19141Y15888D01*
X19362Y15760D01*
X19400Y15750D01*
Y15543D01*
X19362Y15533D01*
X19141Y15405D01*
X18961Y15225D01*
X18834Y15004D01*
X18768Y14758D01*
Y14503D01*
X18834Y14257D01*
X18961Y14036D01*
X19141Y13856D01*
X19296Y13767D01*
X19242Y13567D01*
X18768D01*
Y11630D01*
X20704D01*
Y13567D01*
X20230D01*
X20176Y13767D01*
X20330Y13856D01*
X20511Y14036D01*
X20638Y14257D01*
X20704Y14503D01*
Y14758D01*
X20638Y15004D01*
X20511Y15225D01*
X20330Y15405D01*
X20110Y15533D01*
X20071Y15543D01*
Y15750D01*
X20110Y15760D01*
X20330Y15888D01*
X20511Y16068D01*
X20638Y16289D01*
X20704Y16535D01*
Y16790D01*
X20638Y17036D01*
X20511Y17257D01*
X20330Y17437D01*
X20110Y17565D01*
X20071Y17575D01*
Y17782D01*
X20110Y17792D01*
X20330Y17920D01*
X20511Y18100D01*
X20638Y18321D01*
X20704Y18567D01*
Y18822D01*
X20638Y19068D01*
X20511Y19289D01*
X20330Y19469D01*
X20110Y19597D01*
X20071Y19607D01*
Y19814D01*
X20110Y19824D01*
X20330Y19952D01*
X20511Y20132D01*
X20638Y20353D01*
X20704Y20599D01*
Y20854D01*
X20638Y21100D01*
X20511Y21321D01*
X20330Y21501D01*
X20110Y21629D01*
X20071Y21639D01*
Y21846D01*
X20110Y21856D01*
X20330Y21984D01*
X20511Y22164D01*
X20638Y22385D01*
X20704Y22631D01*
Y22886D01*
X20638Y23132D01*
X20511Y23353D01*
X20330Y23533D01*
X20110Y23661D01*
X19863Y23727D01*
D02*
G37*
G36*
X13312Y14681D02*
X12952D01*
X12599Y14610D01*
X12266Y14473D01*
X11966Y14272D01*
X11712Y14018D01*
X11512Y13718D01*
X11374Y13386D01*
X11304Y13032D01*
Y12672D01*
X11374Y12319D01*
X11512Y11986D01*
X11712Y11687D01*
X11966Y11432D01*
X12266Y11232D01*
X12599Y11094D01*
X12952Y11024D01*
X13312D01*
X13665Y11094D01*
X13998Y11232D01*
X14297Y11432D01*
X14552Y11687D01*
X14752Y11986D01*
X14890Y12319D01*
X14960Y12672D01*
Y13032D01*
X14890Y13386D01*
X14752Y13718D01*
X14552Y14018D01*
X14297Y14272D01*
X13998Y14473D01*
X13665Y14610D01*
X13312Y14681D01*
D02*
G37*
G36*
X35570Y41478D02*
X35398D01*
X35239Y41412D01*
X35118Y41291D01*
X35052Y41132D01*
Y41017D01*
X26824Y32790D01*
X26762Y32697D01*
X26741Y32588D01*
X26741Y32588D01*
Y11019D01*
X26660Y10938D01*
X26594Y10779D01*
Y10608D01*
X26660Y10449D01*
X26781Y10327D01*
X26940Y10262D01*
X27111D01*
X27270Y10327D01*
X27392Y10449D01*
X27457Y10608D01*
Y10779D01*
X27392Y10938D01*
X27310Y11019D01*
Y32470D01*
X35455Y40615D01*
X35570D01*
X35728Y40680D01*
X35850Y40802D01*
X35916Y40961D01*
Y41132D01*
X35850Y41291D01*
X35728Y41412D01*
X35570Y41478D01*
D02*
G37*
G36*
X161462Y10947D02*
X161220D01*
X160995Y10855D01*
X160824Y10683D01*
X160731Y10459D01*
Y10217D01*
X160824Y9993D01*
X160995Y9821D01*
X161220Y9728D01*
X161462D01*
X161686Y9821D01*
X161858Y9993D01*
X161950Y10217D01*
Y10459D01*
X161858Y10683D01*
X161686Y10855D01*
X161462Y10947D01*
D02*
G37*
G36*
X22403Y16615D02*
X22148D01*
X21902Y16549D01*
X21681Y16421D01*
X21501Y16241D01*
X21374Y16020D01*
X21308Y15774D01*
Y15519D01*
X21374Y15273D01*
X21501Y15052D01*
X21681Y14872D01*
X21902Y14744D01*
X21940Y14734D01*
Y14527D01*
X21902Y14517D01*
X21681Y14389D01*
X21501Y14209D01*
X21374Y13988D01*
X21308Y13742D01*
Y13487D01*
X21374Y13241D01*
X21501Y13020D01*
X21681Y12840D01*
X21902Y12712D01*
X21940Y12702D01*
Y12495D01*
X21902Y12485D01*
X21681Y12357D01*
X21501Y12177D01*
X21374Y11956D01*
X21308Y11710D01*
Y11455D01*
X21374Y11209D01*
X21501Y10988D01*
X21515Y10974D01*
X21433Y10774D01*
X14656D01*
X14577Y10758D01*
X14509Y10713D01*
X14464Y10646D01*
X14449Y10566D01*
Y9771D01*
X14249Y9717D01*
X14237Y9738D01*
X13980Y9995D01*
X13665Y10177D01*
X13314Y10271D01*
X12950D01*
X12599Y10177D01*
X12284Y9995D01*
X12117Y9827D01*
X11917Y9910D01*
Y10566D01*
X11901Y10646D01*
X11856Y10713D01*
X11789Y10758D01*
X11709Y10774D01*
X7950D01*
X7871Y10758D01*
X7707Y10870D01*
X7491Y11085D01*
X7228Y11237D01*
X6934Y11316D01*
X6630D01*
X6336Y11237D01*
X6072Y11085D01*
X5857Y10870D01*
X5705Y10606D01*
X5626Y10312D01*
Y10008D01*
X5705Y9714D01*
X5857Y9450D01*
X6072Y9235D01*
X6336Y9083D01*
X6630Y9004D01*
X6934D01*
X7228Y9083D01*
X7491Y9235D01*
X7543Y9287D01*
X7743Y9204D01*
Y8153D01*
X7759Y8074D01*
X7804Y8007D01*
X7871Y7962D01*
X7950Y7946D01*
X11709D01*
X11789Y7962D01*
X11827Y7988D01*
X11891Y8005D01*
X12074Y7996D01*
X12284Y7785D01*
X12599Y7603D01*
X12950Y7509D01*
X13314D01*
X13665Y7603D01*
X13980Y7785D01*
X14237Y8042D01*
X14249Y8063D01*
X14420Y8032D01*
X14451Y8014D01*
X14464Y7947D01*
X14509Y7880D01*
X14577Y7835D01*
X14656Y7819D01*
X24308D01*
X24387Y7835D01*
X24454Y7880D01*
X24499Y7947D01*
X24515Y8026D01*
Y10566D01*
X24499Y10646D01*
X24454Y10713D01*
X24387Y10758D01*
X24308Y10774D01*
X23119D01*
X23036Y10974D01*
X23051Y10988D01*
X23178Y11209D01*
X23244Y11455D01*
Y11710D01*
X23178Y11956D01*
X23051Y12177D01*
X22870Y12357D01*
X22650Y12485D01*
X22611Y12495D01*
Y12702D01*
X22650Y12712D01*
X22870Y12840D01*
X23051Y13020D01*
X23178Y13241D01*
X23244Y13487D01*
Y13742D01*
X23178Y13988D01*
X23051Y14209D01*
X22870Y14389D01*
X22650Y14517D01*
X22611Y14527D01*
Y14734D01*
X22650Y14744D01*
X22870Y14872D01*
X23051Y15052D01*
X23178Y15273D01*
X23244Y15519D01*
Y15774D01*
X23178Y16020D01*
X23051Y16241D01*
X22870Y16421D01*
X22650Y16549D01*
X22403Y16615D01*
D02*
G37*
G36*
X174848Y10871D02*
X174605D01*
X174381Y10778D01*
X174210Y10607D01*
X174117Y10383D01*
Y10140D01*
X174210Y9916D01*
X174381Y9745D01*
X174605Y9652D01*
X174848D01*
X175072Y9745D01*
X175243Y9916D01*
X175336Y10140D01*
Y10383D01*
X175243Y10607D01*
X175072Y10778D01*
X174848Y10871D01*
D02*
G37*
G36*
X115097Y10211D02*
X114925D01*
X114767Y10145D01*
X114645Y10024D01*
X114579Y9865D01*
Y9693D01*
X114645Y9534D01*
X114767Y9413D01*
X114925Y9347D01*
X115097D01*
X115256Y9413D01*
X115377Y9534D01*
X115443Y9693D01*
Y9865D01*
X115377Y10024D01*
X115256Y10145D01*
X115097Y10211D01*
D02*
G37*
G36*
X123354Y10422D02*
X123149D01*
X122951Y10369D01*
X122774Y10267D01*
X122629Y10122D01*
X122527Y9944D01*
X122474Y9746D01*
Y9541D01*
X122527Y9343D01*
X122629Y9166D01*
X122774Y9021D01*
X122951Y8919D01*
X123149Y8866D01*
X123354D01*
X123552Y8919D01*
X123730Y9021D01*
X123875Y9166D01*
X123977Y9343D01*
X124030Y9541D01*
Y9746D01*
X123977Y9944D01*
X123875Y10122D01*
X123730Y10267D01*
X123552Y10369D01*
X123354Y10422D01*
D02*
G37*
G36*
X103387Y10672D02*
X103116D01*
X102855Y10602D01*
X102620Y10467D01*
X102429Y10275D01*
X102294Y10041D01*
X102224Y9779D01*
Y9508D01*
X102294Y9247D01*
X102429Y9012D01*
X102620Y8821D01*
X102855Y8686D01*
X103116Y8616D01*
X103387D01*
X103649Y8686D01*
X103883Y8821D01*
X104075Y9012D01*
X104210Y9247D01*
X104280Y9508D01*
Y9779D01*
X104210Y10041D01*
X104075Y10275D01*
X103883Y10467D01*
X103649Y10602D01*
X103387Y10672D01*
D02*
G37*
G36*
X117197Y7394D02*
X117025D01*
X116867Y7328D01*
X116745Y7206D01*
X116709Y7119D01*
X116633Y7092D01*
X116501Y7078D01*
X116493Y7079D01*
X116399Y7173D01*
X116240Y7239D01*
X116068D01*
X115910Y7173D01*
X115788Y7052D01*
X115722Y6893D01*
Y6721D01*
X115788Y6563D01*
X115910Y6441D01*
X116068Y6375D01*
X116240D01*
X116399Y6441D01*
X116520Y6563D01*
X116557Y6650D01*
X116633Y6677D01*
X116764Y6691D01*
X116773Y6690D01*
X116867Y6596D01*
X117025Y6530D01*
X117197D01*
X117290Y6569D01*
X117319Y6560D01*
X117461Y6463D01*
X117475Y6445D01*
Y6340D01*
X117541Y6182D01*
X117662Y6060D01*
X117821Y5994D01*
X117993D01*
X118151Y6060D01*
X118273Y6182D01*
X118281Y6202D01*
X118498D01*
X118506Y6182D01*
X118627Y6060D01*
X118786Y5994D01*
X118958D01*
X119117Y6060D01*
X119238Y6182D01*
X119304Y6340D01*
Y6512D01*
X119238Y6671D01*
X119117Y6792D01*
X118958Y6858D01*
X118786D01*
X118627Y6792D01*
X118506Y6671D01*
X118498Y6651D01*
X118281D01*
X118273Y6671D01*
X118151Y6792D01*
X117993Y6858D01*
X117821D01*
X117728Y6819D01*
X117699Y6828D01*
X117558Y6925D01*
X117543Y6943D01*
Y7048D01*
X117477Y7206D01*
X117356Y7328D01*
X117197Y7394D01*
D02*
G37*
G36*
X96795Y12722D02*
X96555D01*
X96333Y12630D01*
X96164Y12460D01*
X96072Y12238D01*
Y12084D01*
X95917D01*
X95696Y11992D01*
X95526Y11822D01*
X95434Y11601D01*
Y11361D01*
X95526Y11139D01*
X95696Y10969D01*
X95917Y10878D01*
X96157D01*
X96379Y10969D01*
X96549Y11139D01*
X96563Y11172D01*
X115990D01*
X119064Y8099D01*
X119017Y7863D01*
X119008Y7859D01*
X118887Y7738D01*
X118821Y7579D01*
Y7407D01*
X118887Y7248D01*
X119008Y7127D01*
X119167Y7061D01*
X119339D01*
X119498Y7127D01*
X119619Y7248D01*
X119652Y7329D01*
X119864Y7317D01*
X119903Y7223D01*
X120024Y7102D01*
X120183Y7036D01*
X120355D01*
X120514Y7102D01*
X120635Y7223D01*
X120701Y7382D01*
Y7553D01*
X120635Y7712D01*
X120514Y7834D01*
X120355Y7899D01*
X120298D01*
X120280Y7917D01*
Y8223D01*
X120257Y8341D01*
X120190Y8441D01*
X116511Y12121D01*
X116410Y12187D01*
X116292Y12211D01*
X97278D01*
Y12238D01*
X97186Y12460D01*
X97017Y12630D01*
X96795Y12722D01*
D02*
G37*
G36*
X60335Y7874D02*
X60163D01*
X60004Y7808D01*
X59883Y7687D01*
X59817Y7528D01*
Y7356D01*
X59883Y7198D01*
X60004Y7076D01*
X60163Y7010D01*
X60335D01*
X60493Y7076D01*
X60615Y7198D01*
X60681Y7356D01*
Y7528D01*
X60615Y7687D01*
X60493Y7808D01*
X60335Y7874D01*
D02*
G37*
G36*
X143089Y7371D02*
X142917D01*
X142759Y7305D01*
X142637Y7184D01*
X142571Y7025D01*
Y6853D01*
X142637Y6695D01*
X142759Y6573D01*
X142917Y6507D01*
X143089D01*
X143248Y6573D01*
X143369Y6695D01*
X143435Y6853D01*
Y7025D01*
X143369Y7184D01*
X143248Y7305D01*
X143089Y7371D01*
D02*
G37*
G36*
X237431Y6480D02*
X237261Y6434D01*
X237169Y6432D01*
X237061Y6435D01*
X237061Y6435D01*
X237061Y6435D01*
X235554D01*
Y4928D01*
X237061D01*
X237061Y4928D01*
Y4928D01*
X237169Y4931D01*
X237261Y4929D01*
X237431Y4883D01*
Y5682D01*
Y6480D01*
D02*
G37*
G36*
X120837Y6934D02*
X120666D01*
X120507Y6868D01*
X120386Y6747D01*
X120320Y6588D01*
Y6417D01*
X120386Y6258D01*
X120507Y6136D01*
X120666Y6071D01*
X120837D01*
X120996Y6136D01*
X121118Y6258D01*
X121128Y6283D01*
X121345D01*
X121376Y6207D01*
X121498Y6086D01*
X121656Y6020D01*
X121828D01*
X121987Y6086D01*
X122108Y6207D01*
X122174Y6366D01*
Y6537D01*
X122108Y6696D01*
X121987Y6818D01*
X121828Y6883D01*
X121656D01*
X121498Y6818D01*
X121376Y6696D01*
X121366Y6671D01*
X121149D01*
X121118Y6747D01*
X120996Y6868D01*
X120837Y6934D01*
D02*
G37*
G36*
X237685Y6480D02*
Y5809D01*
X238356D01*
X238307Y5992D01*
X238201Y6175D01*
X238051Y6325D01*
X237868Y6431D01*
X237685Y6480D01*
D02*
G37*
G36*
X110601Y7114D02*
X110430D01*
X110271Y7048D01*
X110149Y6927D01*
X110084Y6768D01*
Y6696D01*
X109990Y6562D01*
X109899Y6528D01*
X109795D01*
X109636Y6462D01*
X109514Y6341D01*
X109449Y6182D01*
Y6010D01*
X109514Y5851D01*
X109636Y5730D01*
X109795Y5664D01*
X109966D01*
X110125Y5730D01*
X110246Y5851D01*
X110312Y6010D01*
Y6082D01*
X110406Y6217D01*
X110497Y6250D01*
X110601D01*
X110760Y6316D01*
X110881Y6438D01*
X110947Y6596D01*
Y6768D01*
X110881Y6927D01*
X110760Y7048D01*
X110601Y7114D01*
D02*
G37*
G36*
X112278Y7112D02*
X112106D01*
X111947Y7046D01*
X111826Y6925D01*
X111760Y6766D01*
Y6647D01*
X111632Y6526D01*
X111587Y6503D01*
X111415D01*
X111256Y6437D01*
X111135Y6315D01*
X111069Y6157D01*
Y5985D01*
X111135Y5826D01*
X111256Y5705D01*
X111415Y5639D01*
X111587D01*
X111745Y5705D01*
X111867Y5826D01*
X111933Y5985D01*
Y6104D01*
X112061Y6225D01*
X112106Y6248D01*
X112278D01*
X112436Y6314D01*
X112558Y6436D01*
X112624Y6594D01*
Y6766D01*
X112558Y6925D01*
X112436Y7046D01*
X112278Y7112D01*
D02*
G37*
G36*
X113446Y7188D02*
X113274D01*
X113116Y7122D01*
X112994Y7001D01*
X112928Y6842D01*
Y6671D01*
X112994Y6512D01*
X113116Y6390D01*
X113274Y6325D01*
X113446D01*
X113605Y6390D01*
X113754Y6485D01*
X113859Y6383D01*
X113878Y6365D01*
X114036Y6299D01*
X114067D01*
X114163Y6112D01*
X114097Y5953D01*
Y5782D01*
X114163Y5623D01*
X114284Y5501D01*
X114443Y5436D01*
X114614D01*
X114773Y5501D01*
X114895Y5623D01*
X114911Y5627D01*
X115116Y5635D01*
X115198Y5552D01*
X115357Y5486D01*
X115529D01*
X115688Y5552D01*
X115809Y5674D01*
X115875Y5832D01*
Y6004D01*
X115809Y6163D01*
X115688Y6284D01*
X115529Y6350D01*
X115357D01*
X115198Y6284D01*
X115077Y6163D01*
X115061Y6158D01*
X114856Y6151D01*
X114773Y6233D01*
X114614Y6299D01*
X114584D01*
X114488Y6486D01*
X114554Y6645D01*
Y6817D01*
X114488Y6976D01*
X114367Y7097D01*
X114208Y7163D01*
X114036D01*
X113878Y7097D01*
X113728Y7002D01*
X113623Y7104D01*
X113605Y7122D01*
X113446Y7188D01*
D02*
G37*
G36*
X21574Y6198D02*
X21403D01*
X21244Y6132D01*
X21122Y6010D01*
X21057Y5852D01*
Y5680D01*
X21122Y5521D01*
X21244Y5400D01*
X21403Y5334D01*
X21574D01*
X21733Y5400D01*
X21854Y5521D01*
X21920Y5680D01*
Y5852D01*
X21854Y6010D01*
X21733Y6132D01*
X21574Y6198D01*
D02*
G37*
G36*
X60335Y6147D02*
X60163D01*
X60004Y6081D01*
X59883Y5960D01*
X59817Y5801D01*
Y5629D01*
X59883Y5470D01*
X60004Y5349D01*
X60163Y5283D01*
X60335D01*
X60493Y5349D01*
X60615Y5470D01*
X60681Y5629D01*
Y5801D01*
X60615Y5960D01*
X60493Y6081D01*
X60335Y6147D01*
D02*
G37*
G36*
X10738Y6248D02*
X10496D01*
X10272Y6156D01*
X10100Y5984D01*
X10008Y5760D01*
Y5518D01*
X10100Y5293D01*
X10272Y5122D01*
X10496Y5029D01*
X10738D01*
X10963Y5122D01*
X11134Y5293D01*
X11227Y5518D01*
Y5760D01*
X11134Y5984D01*
X10963Y6156D01*
X10738Y6248D01*
D02*
G37*
G36*
X228546Y6435D02*
Y6435D01*
X227040D01*
Y4928D01*
X228546D01*
Y4928D01*
X228746Y4983D01*
X228752Y4980D01*
X228944Y4928D01*
X229142D01*
X229334Y4980D01*
X229506Y5079D01*
X229646Y5219D01*
X229745Y5391D01*
X229796Y5582D01*
Y5781D01*
X229745Y5972D01*
X229646Y6144D01*
X229506Y6284D01*
X229334Y6383D01*
X229142Y6435D01*
X228944D01*
X228752Y6383D01*
X228746Y6380D01*
X228546Y6435D01*
D02*
G37*
G36*
X220119D02*
Y6435D01*
X218613D01*
Y4928D01*
X220119D01*
Y4928D01*
X220319Y4983D01*
X220325Y4980D01*
X220517Y4928D01*
X220715D01*
X220907Y4980D01*
X221078Y5079D01*
X221219Y5219D01*
X221318Y5391D01*
X221369Y5582D01*
Y5781D01*
X221318Y5972D01*
X221219Y6144D01*
X221078Y6284D01*
X220907Y6383D01*
X220715Y6435D01*
X220517D01*
X220325Y6383D01*
X220319Y6380D01*
X220119Y6435D01*
D02*
G37*
G36*
X212524D02*
Y6435D01*
X211018D01*
Y4928D01*
X212524D01*
Y4928D01*
X212724Y4983D01*
X212730Y4980D01*
X212922Y4928D01*
X213120D01*
X213312Y4980D01*
X213484Y5079D01*
X213624Y5219D01*
X213723Y5391D01*
X213774Y5582D01*
Y5781D01*
X213723Y5972D01*
X213624Y6144D01*
X213484Y6284D01*
X213312Y6383D01*
X213120Y6435D01*
X212922D01*
X212730Y6383D01*
X212724Y6380D01*
X212524Y6435D01*
D02*
G37*
G36*
X238356Y5555D02*
X237685D01*
Y4883D01*
X237868Y4932D01*
X238051Y5038D01*
X238201Y5188D01*
X238307Y5371D01*
X238356Y5555D01*
D02*
G37*
G36*
X64661Y4997D02*
X64421D01*
X64200Y4906D01*
X64091Y4796D01*
X63981Y4906D01*
X63760Y4997D01*
X63520D01*
X63298Y4906D01*
X63128Y4736D01*
X63037Y4514D01*
Y4274D01*
X63128Y4053D01*
X63298Y3883D01*
X63520Y3791D01*
X63760D01*
X63981Y3883D01*
X64091Y3992D01*
X64200Y3883D01*
X64421Y3791D01*
X64661D01*
X64883Y3883D01*
X65053Y4053D01*
X65145Y4274D01*
Y4514D01*
X65053Y4736D01*
X64883Y4906D01*
X64661Y4997D01*
D02*
G37*
G36*
X246130Y5838D02*
X246050D01*
Y3861D01*
X248027D01*
Y3941D01*
X247946Y4348D01*
X247787Y4730D01*
X247557Y5075D01*
X247264Y5368D01*
X246919Y5598D01*
X246537Y5757D01*
X246130Y5838D01*
D02*
G37*
G36*
X245796D02*
X245716D01*
X245309Y5757D01*
X244926Y5598D01*
X244582Y5368D01*
X244289Y5075D01*
X244058Y4730D01*
X243900Y4348D01*
X243819Y3941D01*
Y3861D01*
X245796D01*
Y5838D01*
D02*
G37*
G36*
X3941Y5558D02*
X3861D01*
Y3581D01*
X5838D01*
Y3662D01*
X5757Y4068D01*
X5598Y4451D01*
X5368Y4796D01*
X5075Y5089D01*
X4730Y5319D01*
X4348Y5478D01*
X3941Y5558D01*
D02*
G37*
G36*
X3607D02*
X3527D01*
X3120Y5478D01*
X2737Y5319D01*
X2393Y5089D01*
X2100Y4796D01*
X1869Y4451D01*
X1711Y4068D01*
X1630Y3662D01*
Y3581D01*
X3607D01*
Y5558D01*
D02*
G37*
G36*
X33325Y4229D02*
Y3454D01*
X34100D01*
X34040Y3676D01*
X33921Y3882D01*
X33753Y4051D01*
X33547Y4170D01*
X33325Y4229D01*
D02*
G37*
G36*
X33071D02*
X32849Y4170D01*
X32643Y4051D01*
X32474Y3882D01*
X32355Y3676D01*
X32296Y3454D01*
X33071D01*
Y4229D01*
D02*
G37*
G36*
X143318Y4145D02*
X143146D01*
X142987Y4079D01*
X142866Y3958D01*
X142800Y3799D01*
Y3628D01*
X142866Y3469D01*
X142987Y3347D01*
X143146Y3282D01*
X143318D01*
X143476Y3347D01*
X143598Y3469D01*
X143664Y3628D01*
Y3799D01*
X143598Y3958D01*
X143476Y4079D01*
X143318Y4145D01*
D02*
G37*
G36*
X30770Y4181D02*
X30545D01*
X30328Y4122D01*
X30134Y4010D01*
X29975Y3851D01*
X29863Y3657D01*
X29805Y3440D01*
Y3215D01*
X29863Y2998D01*
X29975Y2804D01*
X30134Y2645D01*
X30328Y2532D01*
X30545Y2474D01*
X30770D01*
X30987Y2532D01*
X31182Y2645D01*
X31341Y2804D01*
X31453Y2998D01*
X31511Y3215D01*
Y3440D01*
X31453Y3657D01*
X31341Y3851D01*
X31182Y4010D01*
X30987Y4122D01*
X30770Y4181D01*
D02*
G37*
G36*
X28971D02*
X27265D01*
Y2474D01*
X28971D01*
Y4181D01*
D02*
G37*
G36*
X34100Y3200D02*
X33325D01*
Y2426D01*
X33547Y2485D01*
X33753Y2604D01*
X33921Y2772D01*
X34040Y2978D01*
X34100Y3200D01*
D02*
G37*
G36*
X33071D02*
X32296D01*
X32355Y2978D01*
X32474Y2772D01*
X32643Y2604D01*
X32849Y2485D01*
X33071Y2426D01*
Y3200D01*
D02*
G37*
G36*
X248027Y3607D02*
X246050D01*
Y1630D01*
X246130D01*
X246537Y1711D01*
X246919Y1869D01*
X247264Y2100D01*
X247557Y2393D01*
X247787Y2737D01*
X247946Y3120D01*
X248027Y3527D01*
Y3607D01*
D02*
G37*
G36*
X245796D02*
X243819D01*
Y3527D01*
X243900Y3120D01*
X244058Y2737D01*
X244289Y2393D01*
X244582Y2100D01*
X244926Y1869D01*
X245309Y1711D01*
X245716Y1630D01*
X245796D01*
Y3607D01*
D02*
G37*
G36*
X72577Y48184D02*
X72406D01*
X72247Y48118D01*
X72126Y47997D01*
X72060Y47838D01*
Y47666D01*
X72126Y47507D01*
X72247Y47386D01*
X72406Y47320D01*
X72577D01*
X72736Y47386D01*
X72858Y47507D01*
X72923Y47666D01*
Y47838D01*
X72858Y47997D01*
X72736Y48118D01*
X72577Y48184D01*
D02*
G37*
G36*
X47889Y27000D02*
X47717D01*
X47558Y26934D01*
X47437Y26813D01*
X47371Y26654D01*
Y26483D01*
X47437Y26324D01*
X47558Y26202D01*
X47717Y26137D01*
X47889D01*
X48047Y26202D01*
X48169Y26324D01*
X48235Y26483D01*
Y26654D01*
X48169Y26813D01*
X48047Y26934D01*
X47889Y27000D01*
D02*
G37*
G36*
X51228Y23555D02*
X50957D01*
X50696Y23485D01*
X50461Y23350D01*
X50270Y23158D01*
X50135Y22924D01*
X50065Y22662D01*
Y22391D01*
X50135Y22130D01*
X50270Y21896D01*
X50461Y21704D01*
X50696Y21569D01*
X50957Y21499D01*
X51228D01*
X51490Y21569D01*
X51724Y21704D01*
X51916Y21896D01*
X52051Y22130D01*
X52121Y22391D01*
Y22662D01*
X52051Y22924D01*
X51916Y23158D01*
X51724Y23350D01*
X51490Y23485D01*
X51228Y23555D01*
D02*
G37*
G36*
X51038Y14503D02*
X50867D01*
X50708Y14438D01*
X50586Y14316D01*
X50521Y14157D01*
Y13986D01*
X50586Y13827D01*
X50708Y13706D01*
X50867Y13640D01*
X51038D01*
X51197Y13706D01*
X51318Y13827D01*
X51384Y13986D01*
Y14157D01*
X51318Y14316D01*
X51197Y14438D01*
X51038Y14503D01*
D02*
G37*
G36*
X32354Y11100D02*
X32111D01*
X31887Y11007D01*
X31716Y10836D01*
X31623Y10611D01*
Y10369D01*
X31716Y10145D01*
X31887Y9973D01*
X32111Y9881D01*
X32354D01*
X32578Y9973D01*
X32749Y10145D01*
X32842Y10369D01*
Y10611D01*
X32749Y10836D01*
X32578Y11007D01*
X32354Y11100D01*
D02*
G37*
G36*
X42351Y7696D02*
X42180D01*
X42021Y7630D01*
X41900Y7509D01*
X41834Y7350D01*
Y7179D01*
X41900Y7020D01*
X42021Y6898D01*
X42180Y6833D01*
X42351D01*
X42510Y6898D01*
X42632Y7020D01*
X42697Y7179D01*
Y7350D01*
X42632Y7509D01*
X42510Y7630D01*
X42351Y7696D01*
D02*
G37*
G36*
X44129Y6934D02*
X43958D01*
X43799Y6868D01*
X43678Y6747D01*
X43612Y6588D01*
Y6417D01*
X43678Y6258D01*
X43799Y6136D01*
X43958Y6071D01*
X44129D01*
X44288Y6136D01*
X44410Y6258D01*
X44475Y6417D01*
Y6588D01*
X44410Y6747D01*
X44288Y6868D01*
X44129Y6934D01*
D02*
G37*
G36*
X51826Y6655D02*
X51654D01*
X51495Y6589D01*
X51374Y6468D01*
X51308Y6309D01*
Y6137D01*
X51374Y5978D01*
X51495Y5857D01*
X51654Y5791D01*
X51826D01*
X51984Y5857D01*
X52106Y5978D01*
X52172Y6137D01*
Y6309D01*
X52106Y6468D01*
X51984Y6589D01*
X51826Y6655D01*
D02*
G37*
G36*
X50987Y5563D02*
X50816D01*
X50657Y5497D01*
X50536Y5375D01*
X50470Y5217D01*
Y5045D01*
X50536Y4886D01*
X50657Y4765D01*
X50816Y4699D01*
X50987D01*
X51146Y4765D01*
X51268Y4886D01*
X51333Y5045D01*
Y5217D01*
X51268Y5375D01*
X51146Y5497D01*
X50987Y5563D01*
D02*
G37*
G36*
X38780Y37338D02*
X38538D01*
X38313Y37245D01*
X38142Y37074D01*
X38049Y36850D01*
Y36607D01*
X38142Y36383D01*
X38313Y36212D01*
X38538Y36119D01*
X38780D01*
X39004Y36212D01*
X39176Y36383D01*
X39268Y36607D01*
Y36850D01*
X39176Y37074D01*
X39004Y37245D01*
X38780Y37338D01*
D02*
G37*
G36*
X38289Y33558D02*
X38117D01*
X37958Y33493D01*
X37837Y33371D01*
X37771Y33212D01*
Y33041D01*
X37837Y32882D01*
X37958Y32761D01*
X38117Y32695D01*
X38289D01*
X38447Y32761D01*
X38569Y32882D01*
X38635Y33041D01*
Y33212D01*
X38569Y33371D01*
X38447Y33493D01*
X38289Y33558D01*
D02*
G37*
%LPD*%
D10*
X12818Y41275D02*
X13478Y40615D01*
X12861Y41986D02*
X13547Y41300D01*
X12827Y41986D02*
X12861D01*
X13478Y40615D02*
X23520D01*
X20828Y41300D02*
X64541Y85014D01*
X13547Y41300D02*
X20828D01*
X159967Y53643D02*
X179193Y34417D01*
X198069Y83591D02*
Y99593D01*
X64541Y85014D02*
Y92939D01*
X23520Y40615D02*
X65380Y82474D01*
Y92939D01*
X3937Y64897D02*
Y67818D01*
X7248Y61586D02*
X21650D01*
X3937Y64897D02*
X7248Y61586D01*
X156479Y53389D02*
X160697Y57607D01*
X172415D01*
X177326Y52696D01*
Y46321D02*
Y52696D01*
X183286Y40361D02*
X188468D01*
X177326Y46321D02*
X183286Y40361D01*
X183947Y59868D02*
X187376Y56439D01*
X143478Y53359D02*
X149986Y59868D01*
X183947D01*
X58547Y103048D02*
X73685D01*
X47981Y112725D02*
X48870D01*
X58547Y103048D01*
X191008Y76530D02*
X198069Y83591D01*
X73685Y103048D02*
X82764Y93970D01*
Y93589D02*
Y93970D01*
Y93589D02*
X82804Y93548D01*
X82245Y51968D02*
X90576Y60300D01*
X79172Y51968D02*
X82245D01*
X90576Y60300D02*
Y113081D01*
X6871Y42759D02*
X6923Y42708D01*
X7305D02*
X10363Y39649D01*
X6923Y42708D02*
X7305D01*
X11252Y71069D02*
Y72542D01*
X12866Y74156D02*
X22400D01*
X12370Y49428D02*
X22428D01*
X20345Y36297D02*
X21539Y37490D01*
X11633Y36297D02*
X20345D01*
X158521Y32309D02*
Y37897D01*
Y32309D02*
X165684Y25146D01*
Y23495D02*
Y25146D01*
X10363Y37567D02*
X11633Y36297D01*
X10363Y37567D02*
Y39649D01*
X9906Y69723D02*
X11252Y71069D01*
Y72542D02*
X12866Y74156D01*
X9881Y44882D02*
Y46939D01*
X12370Y49428D01*
X147267Y53288D02*
X153134Y59155D01*
X178690D02*
X187503Y50343D01*
X153134Y59155D02*
X178690D01*
X149654Y53389D02*
X156479D01*
X179193Y34417D02*
X188620D01*
D17*
X46128Y1758D02*
X51919D01*
X30670Y8376D02*
X39510D01*
X46128Y1758D01*
X67158Y18360D02*
Y41326D01*
X57325Y8527D02*
X67158Y18360D01*
X111506Y19761D02*
Y42119D01*
X102444Y51181D02*
X111506Y42119D01*
X60472Y51313D02*
X61037Y50748D01*
Y38588D02*
Y50748D01*
X49831Y27381D02*
X61037Y38588D01*
X76454Y48260D02*
X77038D01*
X74574Y46380D02*
X76454Y48260D01*
X70445Y46380D02*
X74574D01*
X70298Y46233D02*
X70445Y46380D01*
X67090Y46233D02*
X70298D01*
X41300Y45491D02*
Y47777D01*
X29820Y8541D02*
Y34011D01*
X41300Y45491D01*
X41377Y10846D02*
Y18368D01*
X48997Y27381D02*
X49831D01*
X41377Y18368D02*
X64135Y41126D01*
Y45952D01*
X60220Y93853D02*
X65995D01*
X34935Y68568D02*
X60220Y93853D01*
X65995D02*
X67591Y92258D01*
X82297Y98170D02*
Y99725D01*
Y98170D02*
X84252Y96215D01*
Y92612D02*
Y96215D01*
X72010Y80371D02*
X84252Y92612D01*
X85319Y90653D02*
Y98386D01*
X74499Y79833D02*
X85319Y90653D01*
X74581Y109123D02*
X85319Y98386D01*
X29820Y8541D02*
X30562Y7798D01*
X64973Y44117D02*
X67090Y46233D01*
X64973Y39726D02*
Y44117D01*
X55677Y30429D02*
X64973Y39726D01*
X49353Y24619D02*
X64541Y39807D01*
Y44882D02*
X67513Y47854D01*
X64541Y39807D02*
Y44882D01*
X67158Y41326D02*
X69037Y43205D01*
X72651D01*
X75871Y46757D02*
Y46864D01*
X72934Y43820D02*
X75871Y46757D01*
Y46864D02*
X76556Y47549D01*
X77038Y48260D02*
X77775Y47523D01*
X77298Y49174D02*
X81280Y45193D01*
X73184Y49174D02*
X77298D01*
X72645Y49713D02*
X73184Y49174D01*
X66891Y48709D02*
X73979D01*
X74752Y47935D01*
X64135Y45952D02*
X66891Y48709D01*
X67513Y47854D02*
X71298D01*
X47266Y114554D02*
X90246D01*
X91213Y93071D02*
Y113588D01*
X90246Y114554D02*
X91213Y113588D01*
X32779Y68568D02*
X34935D01*
X40159Y43390D02*
X40589Y43820D01*
Y43822D01*
X40159Y43134D02*
Y43390D01*
X30278Y33254D02*
X40159Y43134D01*
X170434Y67874D02*
X175814D01*
X180035Y63652D01*
Y60782D02*
Y63652D01*
X26512Y61581D02*
Y67392D01*
X125040Y24770D02*
X149226D01*
X153824Y20173D01*
X181840D01*
X42012Y40849D02*
X45696Y37165D01*
X42012Y40849D02*
Y50088D01*
X42013Y50089D01*
X72651Y43205D02*
X72934Y43488D01*
Y43820D01*
X81280Y43688D02*
Y45193D01*
X76479Y51181D02*
X102444D01*
X38384Y105672D02*
X47266Y114554D01*
X27026Y10693D02*
Y32588D01*
X35484Y41046D01*
X55950Y3277D02*
X84019D01*
X105157Y24414D01*
X54764Y4463D02*
X55950Y3277D01*
X47803Y57012D02*
Y57048D01*
X45264Y54437D02*
Y54473D01*
X47803Y57012D01*
X32741Y68529D02*
X32779Y68568D01*
X74499Y64749D02*
Y79833D01*
X57456Y51313D02*
X60472D01*
X105157Y24414D02*
Y44049D01*
X55703Y8527D02*
X57325D01*
X53113Y2951D02*
X116562D01*
X51919Y1758D02*
X53113Y2951D01*
X116562D02*
X117857Y1656D01*
X49353Y10546D02*
Y24619D01*
X55677Y11092D02*
Y30429D01*
X56846Y11527D02*
X61544Y16225D01*
Y26314D01*
X54764Y4463D02*
Y12981D01*
X55194Y13411D01*
X55677Y11092D02*
X56007Y10762D01*
Y10668D02*
Y10762D01*
X229211Y22837D02*
X230516Y21531D01*
X229211Y22837D02*
Y36659D01*
X233006Y40454D01*
X55613Y46919D02*
X56897Y48203D01*
Y50754D01*
X57456Y51313D01*
X188971Y22332D02*
X200990Y10312D01*
X161952Y22332D02*
X188971D01*
X91213Y93071D02*
X161952Y22332D01*
X38384Y98836D02*
Y105672D01*
X30562Y7798D02*
X33503D01*
X73280Y50195D02*
X73687Y49789D01*
X73280Y50195D02*
Y53955D01*
X72010Y55225D02*
X73280Y53955D01*
X72010Y55225D02*
Y80371D01*
X75081Y106942D02*
X82297Y99725D01*
X30278Y8768D02*
Y33254D01*
Y8768D02*
X30670Y8376D01*
X117857Y1656D02*
X179422D01*
X188180Y10414D01*
X47626Y8819D02*
X49353Y10546D01*
X72645Y49713D02*
Y52050D01*
X67591Y57104D02*
X72645Y52050D01*
X67591Y57104D02*
Y92258D01*
X160205Y78002D02*
X170297Y67910D01*
X160205Y78002D02*
Y91115D01*
X30786Y60838D02*
X31878Y59746D01*
X27255Y60838D02*
X30786D01*
X26512Y61581D02*
X27255Y60838D01*
X233006Y38575D02*
X233605Y39174D01*
Y40772D01*
X233300Y41077D02*
X233605Y40772D01*
X228144Y41077D02*
X233300D01*
X227611Y40543D02*
X228144Y41077D01*
X227611Y27541D02*
Y40543D01*
X227037Y26967D02*
X227611Y27541D01*
X233707Y65109D02*
Y66502D01*
X228853Y60255D02*
X233707Y65109D01*
X239143Y95962D02*
Y96022D01*
Y95962D02*
X239593Y95512D01*
X239143Y95002D02*
Y95062D01*
X239593Y95512D01*
D139*
X9347Y112370D02*
D03*
X245923Y3734D02*
D03*
X246431Y112446D02*
D03*
X3734Y3454D02*
D03*
X58801Y71628D02*
D03*
X145339Y77165D02*
D03*
D141*
X171780Y96342D02*
D03*
D151*
X229196Y57193D02*
D03*
X243611Y69672D02*
D03*
X243789Y62586D02*
D03*
D153*
X244715Y42689D02*
D03*
D155*
X237558Y5682D02*
D03*
D157*
X242722Y35059D02*
D03*
X33198Y3327D02*
D03*
D161*
X153492Y16256D02*
D03*
D164*
X1702Y47066D02*
D03*
Y40742D02*
D03*
X2337Y71120D02*
D03*
X2235Y65888D02*
D03*
X82499Y114071D02*
D03*
X97257Y114122D02*
D03*
X104667D02*
D03*
X112078D02*
D03*
X126900D02*
D03*
X134311D02*
D03*
X141722D02*
D03*
X213360Y102794D02*
D03*
X214706Y91923D02*
D03*
X206451Y70587D02*
D03*
X247523Y37363D02*
D03*
Y42799D02*
D03*
X247599Y48539D02*
D03*
X247548Y52603D02*
D03*
X247599Y57607D02*
D03*
X247193Y7544D02*
D03*
X231800Y3023D02*
D03*
X232689Y11278D02*
D03*
X216687Y10947D02*
D03*
X224231Y10439D02*
D03*
X224790Y3023D02*
D03*
X218262Y3073D02*
D03*
X212776Y3124D02*
D03*
X205918Y2972D02*
D03*
X200584Y2896D02*
D03*
X194843Y2794D02*
D03*
X189027Y3073D02*
D03*
X181458Y2642D02*
D03*
X175133D02*
D03*
X154661Y2692D02*
D03*
X167996Y2794D02*
D03*
X160934Y2642D02*
D03*
X148438Y4648D02*
D03*
X162662Y4699D02*
D03*
X143586Y2184D02*
D03*
X49581Y2464D02*
D03*
X223241Y114122D02*
D03*
X215830D02*
D03*
X208419D02*
D03*
X201008D02*
D03*
X156543D02*
D03*
X163954D02*
D03*
X171365D02*
D03*
X178776D02*
D03*
X186186D02*
D03*
X193597D02*
D03*
X194564Y104292D02*
D03*
X194107Y99797D02*
D03*
X196291Y107696D02*
D03*
X192354Y104851D02*
D03*
X191745Y103632D02*
D03*
X190144Y106020D02*
D03*
X190246Y109144D02*
D03*
X62484Y48133D02*
D03*
X64110Y51333D02*
D03*
X76911Y49657D02*
D03*
X70866Y109830D02*
D03*
X190246Y101092D02*
D03*
X18534Y99088D02*
D03*
X41885Y54559D02*
D03*
X40361Y49657D02*
D03*
X48997Y27381D02*
D03*
X74752Y47935D02*
D03*
X20422Y96622D02*
D03*
X41300Y47777D02*
D03*
X40589Y43822D02*
D03*
X26512Y67392D02*
D03*
X137592Y2159D02*
D03*
X58268Y43180D02*
D03*
X81280Y43688D02*
D03*
X71298Y47854D02*
D03*
X76556Y47549D02*
D03*
X77775Y47523D02*
D03*
X79172Y51968D02*
D03*
X76479Y51181D02*
D03*
X196139Y102489D02*
D03*
X27026Y10693D02*
D03*
X25298Y17958D02*
D03*
X83972Y4369D02*
D03*
X83007Y3759D02*
D03*
X42013Y50089D02*
D03*
X47803Y57048D02*
D03*
X3937Y67818D02*
D03*
X21650Y61586D02*
D03*
X6871Y42759D02*
D03*
X67234Y110007D02*
D03*
X73101Y110236D02*
D03*
X119253Y7493D02*
D03*
X120269Y7468D02*
D03*
X70917Y10516D02*
D03*
X69799D02*
D03*
X61544Y26314D02*
D03*
X56846Y11527D02*
D03*
X55194Y13411D02*
D03*
X56007Y10668D02*
D03*
X49909Y43305D02*
D03*
X35484Y41046D02*
D03*
X41377Y10846D02*
D03*
X55613Y46919D02*
D03*
X105157Y44049D02*
D03*
X45264Y54437D02*
D03*
X38384Y98836D02*
D03*
X74499Y64749D02*
D03*
X74581Y109123D02*
D03*
X73687Y49789D02*
D03*
X75081Y106942D02*
D03*
X47626Y8819D02*
D03*
X55703Y8527D02*
D03*
X31878Y59746D02*
D03*
X233707Y66502D02*
D03*
X45696Y37165D02*
D03*
X228853Y60255D02*
D03*
X16688Y6325D02*
D03*
X198806Y111430D02*
D03*
X32564Y27564D02*
D03*
X17729Y54940D02*
D03*
X20989Y102713D02*
D03*
X43028Y50063D02*
D03*
X58014Y50394D02*
D03*
X60223Y42443D02*
D03*
X53543Y43307D02*
D03*
X51384Y43332D02*
D03*
X52297Y43235D02*
D03*
X227037Y26967D02*
D03*
X56388Y42850D02*
D03*
X57235Y43189D02*
D03*
X59322Y43072D02*
D03*
X233006Y40454D02*
D03*
X111506Y19761D02*
D03*
X239143Y95002D02*
D03*
Y96022D02*
D03*
X239593Y95512D02*
D03*
X160205Y91115D02*
D03*
X125040Y24770D02*
D03*
X200990Y10312D02*
D03*
X32741Y68529D02*
D03*
X33503Y7798D02*
D03*
X233006Y38575D02*
D03*
X54661Y43002D02*
D03*
X31140Y21946D02*
D03*
X31778Y21308D02*
D03*
X32261Y18946D02*
D03*
X32664Y16967D02*
D03*
X31121Y15389D02*
D03*
X32027Y17605D02*
D03*
X31750Y14180D02*
D03*
X31623Y19583D02*
D03*
X65380Y92939D02*
D03*
X64541D02*
D03*
X22400Y74156D02*
D03*
X56439Y92354D02*
D03*
X55448Y92583D02*
D03*
X16434Y70231D02*
D03*
X22428Y49428D02*
D03*
X21539Y37490D02*
D03*
X12818Y41986D02*
D03*
Y41275D02*
D03*
X15494Y70942D02*
D03*
X9906Y69723D02*
D03*
X9881Y44882D02*
D03*
X120348Y2159D02*
D03*
X126096D02*
D03*
X119591Y114021D02*
D03*
X131844Y2159D02*
D03*
X149234Y114021D02*
D03*
X47981Y112725D02*
D03*
X82804Y93548D02*
D03*
X90576Y113081D02*
D03*
X230516Y21531D02*
D03*
D165*
X1905Y58903D02*
D03*
X6858Y62941D02*
D03*
X6299Y60147D02*
D03*
D166*
X44120Y2184D02*
D03*
X65202Y25305D02*
D03*
X74168Y47066D02*
D03*
X14503Y41935D02*
D03*
X80594Y44679D02*
D03*
X79756Y49809D02*
D03*
X43256Y46660D02*
D03*
X50724Y46482D02*
D03*
X56794Y47117D02*
D03*
X168656Y43459D02*
D03*
X124253Y26091D02*
D03*
X126361Y14737D02*
D03*
X135277Y27488D02*
D03*
X138350Y33711D02*
D03*
X120345Y97942D02*
D03*
X198069Y99593D02*
D03*
X39607Y38984D02*
D03*
X9144Y64465D02*
D03*
X28981Y22454D02*
D03*
X28854Y12954D02*
D03*
X183177Y41948D02*
D03*
X241376Y61976D02*
D03*
X233553Y49505D02*
D03*
X137998Y27508D02*
D03*
X12649Y109449D02*
D03*
X4699Y109601D02*
D03*
X18999Y90297D02*
D03*
X13564Y90475D02*
D03*
X8280Y90551D02*
D03*
X3352Y90605D02*
D03*
X15518Y109477D02*
D03*
X22402Y92332D02*
D03*
X158356Y94437D02*
D03*
X187808Y95988D02*
D03*
X191008Y76530D02*
D03*
X171785Y74956D02*
D03*
X178285Y72456D02*
D03*
X191785Y62456D02*
D03*
X177535Y60706D02*
D03*
X180035D02*
D03*
X187376Y56439D02*
D03*
X181840Y20173D02*
D03*
X39878Y2159D02*
D03*
X57122D02*
D03*
X62869D02*
D03*
X68617D02*
D03*
X74365D02*
D03*
X80113D02*
D03*
X85861D02*
D03*
X204013Y8204D02*
D03*
X238277Y2591D02*
D03*
X241402Y7417D02*
D03*
X223469Y23978D02*
D03*
X227330Y21184D02*
D03*
X226238Y38125D02*
D03*
X220751Y38024D02*
D03*
X247498Y63398D02*
D03*
Y68301D02*
D03*
Y73203D02*
D03*
Y78105D02*
D03*
Y83007D02*
D03*
Y87909D02*
D03*
X247599Y107518D02*
D03*
X186715Y93015D02*
D03*
X180950Y107874D02*
D03*
X133883Y107772D02*
D03*
X129007D02*
D03*
X108636Y108179D02*
D03*
X104750Y108153D02*
D03*
X145237Y97866D02*
D03*
X158775Y105943D02*
D03*
X78363Y37103D02*
D03*
X85954Y46787D02*
D03*
X217932Y46812D02*
D03*
X73254Y106934D02*
D03*
X83515Y32410D02*
D03*
X123876Y22860D02*
D03*
X150520Y16002D02*
D03*
X5442Y36113D02*
D03*
X9119Y36378D02*
D03*
X24613D02*
D03*
X6477Y33350D02*
D03*
X3124Y46558D02*
D03*
X3505Y40843D02*
D03*
X16789Y43790D02*
D03*
X16358Y66294D02*
D03*
X66015Y31064D02*
D03*
X100514Y24324D02*
D03*
X65202Y36576D02*
D03*
Y35433D02*
D03*
Y29758D02*
D03*
X88265Y41230D02*
D03*
X90373Y36074D02*
D03*
X95098Y31147D02*
D03*
X88015Y31820D02*
D03*
X78308Y31070D02*
D03*
X90094Y28784D02*
D03*
X78059Y23946D02*
D03*
X55626Y7468D02*
D03*
X59436Y27381D02*
D03*
X43180Y41986D02*
D03*
X45110Y39573D02*
D03*
X58952Y97814D02*
D03*
X15113Y48362D02*
D03*
X27635Y55067D02*
D03*
X25324Y49352D02*
D03*
X17702Y62979D02*
D03*
X46126Y96164D02*
D03*
X28826Y62335D02*
D03*
X16516Y73177D02*
D03*
X17729Y37465D02*
D03*
X16078Y80874D02*
D03*
X17856Y39752D02*
D03*
X51486Y96469D02*
D03*
X20275Y76386D02*
D03*
X20905Y79171D02*
D03*
X26875Y81939D02*
D03*
X25293Y74083D02*
D03*
X40056Y96520D02*
D03*
X158521Y37897D02*
D03*
X165684Y23495D02*
D03*
X188180Y10414D02*
D03*
X143478Y53359D02*
D03*
X147267Y53288D02*
D03*
X187503Y50343D02*
D03*
X149654Y53389D02*
D03*
X188468Y40361D02*
D03*
X159967Y53643D02*
D03*
X188620Y34417D02*
D03*
X19456Y6401D02*
D03*
X15951Y22936D02*
D03*
X8839Y39472D02*
D03*
X8763Y47574D02*
D03*
X103105Y2159D02*
D03*
X91609D02*
D03*
X97357D02*
D03*
X108852D02*
D03*
X114600D02*
D03*
X124511Y19787D02*
D03*
X64389Y47092D02*
D03*
X3962Y57150D02*
D03*
X8357Y55880D02*
D03*
X10135Y60173D02*
D03*
X17363Y56402D02*
D03*
X22276Y51537D02*
D03*
X22250Y53706D02*
D03*
X2334Y82284D02*
D03*
X8735Y72302D02*
D03*
X8255Y80696D02*
D03*
X10287Y84887D02*
D03*
X25324Y61062D02*
D03*
X125171Y53899D02*
D03*
X125425Y58014D02*
D03*
X39675Y109220D02*
D03*
X51816Y111404D02*
D03*
X60757Y110211D02*
D03*
X57887Y110287D02*
D03*
X83058Y108737D02*
D03*
X101727Y100965D02*
D03*
X118085Y102972D02*
D03*
X80035Y110185D02*
D03*
X84684Y108839D02*
D03*
X84760Y110642D02*
D03*
X137947Y13386D02*
D03*
X156048Y6745D02*
D03*
X153382Y9411D02*
D03*
X137795Y19228D02*
D03*
X141681Y23520D02*
D03*
X156261Y29921D02*
D03*
X159868Y4851D02*
D03*
X173126Y4674D02*
D03*
X169366Y6745D02*
D03*
X166700Y9411D02*
D03*
X180018D02*
D03*
X176479Y17501D02*
D03*
X160884Y26772D02*
D03*
X161595Y32360D02*
D03*
X180721Y31852D02*
D03*
X149428Y39192D02*
D03*
X140843Y49174D02*
D03*
X158767Y46825D02*
D03*
X161765Y39865D02*
D03*
X136144Y53975D02*
D03*
X127813Y62687D02*
D03*
X144727Y57936D02*
D03*
X150848Y58063D02*
D03*
X156741Y58520D02*
D03*
X173126Y33426D02*
D03*
X180746Y36373D02*
D03*
X169012Y55956D02*
D03*
X180696Y48108D02*
D03*
Y52527D02*
D03*
X186563Y4674D02*
D03*
X182474Y6909D02*
D03*
X195707Y7061D02*
D03*
X193336Y9411D02*
D03*
X199974Y4674D02*
D03*
X207504Y4894D02*
D03*
X206513Y20845D02*
D03*
X212700Y20828D02*
D03*
X216789Y20980D02*
D03*
X204888Y31386D02*
D03*
X227011Y30218D02*
D03*
X230542Y24274D02*
D03*
X233909Y27788D02*
D03*
X242418Y10871D02*
D03*
X242265Y13005D02*
D03*
X248107Y31471D02*
D03*
X237197Y32987D02*
D03*
X197623Y38651D02*
D03*
X221677Y39794D02*
D03*
X198741Y47134D02*
D03*
X199568Y53340D02*
D03*
X210628Y55262D02*
D03*
X220560Y59860D02*
D03*
X239116Y35128D02*
D03*
X240995Y41910D02*
D03*
X246329Y40132D02*
D03*
X223342Y53264D02*
D03*
X240462Y45415D02*
D03*
X237617Y63348D02*
D03*
X154393Y64668D02*
D03*
X162205Y80365D02*
D03*
X168705Y77615D02*
D03*
X201384Y22720D02*
D03*
X194539Y22784D02*
D03*
X213956Y67912D02*
D03*
X213803Y75786D02*
D03*
X202209Y106045D02*
D03*
X200965Y108941D02*
D03*
X149455Y89865D02*
D03*
X141300Y94209D02*
D03*
X126289Y100711D02*
D03*
X162705Y91865D02*
D03*
X166746Y100254D02*
D03*
X143027Y102464D02*
D03*
X153080Y105055D02*
D03*
X164485Y105969D02*
D03*
X222606Y71044D02*
D03*
X223887Y64305D02*
D03*
X225298Y71374D02*
D03*
X184353Y99441D02*
D03*
X229235Y86385D02*
D03*
X235585Y75971D02*
D03*
X238187Y71823D02*
D03*
X241351Y68478D02*
D03*
X241148Y78715D02*
D03*
X241275Y93040D02*
D03*
X242073Y80993D02*
D03*
X247498Y92812D02*
D03*
Y97714D02*
D03*
X229591Y102845D02*
D03*
X228016Y107721D02*
D03*
X228146Y111915D02*
D03*
X233971Y107225D02*
D03*
X247523Y102616D02*
D03*
X241464Y104310D02*
D03*
X241681Y106959D02*
D03*
X78080Y96444D02*
D03*
X61951Y96209D02*
D03*
D167*
X237668Y95172D02*
D03*
Y95852D02*
D03*
Y96532D02*
D03*
X236968Y94492D02*
D03*
X237668D02*
D03*
X236968Y95852D02*
D03*
Y96532D02*
D03*
Y95172D02*
D03*
X236268D02*
D03*
Y96532D02*
D03*
Y95852D02*
D03*
X235568D02*
D03*
Y95172D02*
D03*
Y96532D02*
D03*
X236268Y94492D02*
D03*
X235568D02*
D03*
X239143Y96022D02*
D03*
Y95002D02*
D03*
X239593Y95512D02*
D03*
D168*
X58014Y50273D02*
Y50394D01*
X58268Y43180D02*
Y50019D01*
X58014Y50273D02*
X58268Y50019D01*
X43040Y50063D02*
X49798Y43305D01*
X49909D01*
X43028Y50063D02*
X43040D01*
D188*
X241974Y114224D02*
D03*
X232734D02*
D03*
D189*
X241674Y109364D02*
D03*
X233034D02*
D03*
D190*
X96037Y11481D02*
D03*
X96675Y12118D02*
D03*
D218*
X54033Y90315D02*
X55532Y91814D01*
X96037Y11481D02*
X116118D01*
X97054Y11902D02*
X116292D01*
X70569Y4900D02*
Y10168D01*
X70685Y4784D02*
X83125D01*
X16666Y71669D02*
X35387D01*
X16841Y71248D02*
X35562D01*
X70511Y4362D02*
X82951D01*
X70147Y4725D02*
Y10168D01*
X70569Y4900D02*
X70685Y4784D01*
X70147Y4725D02*
X70511Y4362D01*
X83961Y4380D02*
X83972Y4369D01*
X82951Y4362D02*
X83067Y4246D01*
X83007Y3759D02*
X83067Y3819D01*
X83125Y4784D02*
X83529Y4380D01*
X83961D01*
X83067Y3819D02*
Y4246D01*
X56125Y92033D02*
X56439Y92347D01*
Y92354D01*
X56125Y91811D02*
Y92033D01*
X55448Y92516D02*
Y92583D01*
X55703Y91985D02*
Y92261D01*
X55448Y92516D02*
X55703Y92261D01*
X55532Y91814D02*
X55703Y91985D01*
X35387Y71669D02*
X54033Y90315D01*
X35562Y71248D02*
X56125Y91811D01*
X16377Y70288D02*
Y70749D01*
X16841Y71248D02*
X16841Y71248D01*
X15551Y70999D02*
X15996D01*
X16366Y70773D02*
Y70773D01*
X16666Y71669D02*
X16666Y71669D01*
X16841Y71248D02*
X16841D01*
X16666Y71669D02*
X16666D01*
X15996Y70999D02*
X16666Y71669D01*
X16366Y70773D02*
X16841Y71248D01*
X15494Y70942D02*
X15551Y70999D01*
X116118Y11481D02*
X119550Y8048D01*
X119253Y7493D02*
Y7518D01*
X119550Y7815D01*
Y8048D01*
X96675Y12118D02*
X96838D01*
X119972Y7789D02*
X120269Y7492D01*
Y7468D02*
Y7492D01*
X116292Y11902D02*
X119972Y8223D01*
X96838Y12118D02*
X97054Y11902D01*
X119972Y7789D02*
Y8223D01*
X69799Y10516D02*
X70147Y10168D01*
X70569Y10168D02*
X70917Y10516D01*
D223*
X56996Y41657D02*
Y42776D01*
X56601Y41820D02*
Y42459D01*
X32709Y17371D02*
X56996Y41657D01*
X32430Y17650D02*
X56601Y41820D01*
X56388Y42672D02*
X56601Y42459D01*
X32664Y16967D02*
X32709Y17012D01*
X32072Y17650D02*
X32430D01*
X32709Y17012D02*
Y17371D01*
X53547Y35717D02*
X59484Y41653D01*
X53153Y35881D02*
X59089Y41817D01*
X53153Y35881D02*
Y35881D01*
X32466Y14635D02*
X53547Y35717D01*
X32302Y15030D02*
X53153Y35881D01*
X53547Y35717D02*
Y35717D01*
X59089Y41817D02*
Y42320D01*
X31753Y15030D02*
X32302D01*
X59484Y41653D02*
Y42156D01*
X31917Y14635D02*
X32466D01*
X31532Y15012D02*
X31735D01*
X31750Y14180D02*
X31833Y14262D01*
Y14551D01*
X31917Y14635D01*
X59089Y42320D02*
X59405Y42636D01*
X31735Y15012D02*
X31753Y15030D01*
X59322Y43072D02*
X59405Y42989D01*
X59484Y42156D02*
X59771Y42443D01*
X59405Y42636D02*
Y42989D01*
X31154Y15389D02*
X31532Y15012D01*
X59771Y42443D02*
X60223D01*
X54026Y40030D02*
Y42367D01*
X53543Y40009D02*
Y43307D01*
X32027Y17605D02*
X32072Y17650D01*
X32941Y18946D02*
X54026Y40030D01*
Y42367D02*
X54661Y43002D01*
X52297Y43081D02*
Y43235D01*
X31140Y21946D02*
X31253Y22058D01*
X51384Y43179D02*
X51643Y42920D01*
X52038Y41926D02*
Y42823D01*
X52297Y43081D01*
X31890Y21779D02*
X52038Y41926D01*
X51384Y43179D02*
Y43332D01*
X31890Y21420D02*
Y21779D01*
X31778Y21308D02*
X31890Y21420D01*
X31611Y22058D02*
X51643Y42090D01*
Y42920D01*
X31253Y22058D02*
X31611D01*
X32261Y18946D02*
X32941D01*
X33118Y19583D02*
X53543Y40009D01*
X31623Y19583D02*
X33118D01*
X56388Y42672D02*
Y42850D01*
X56996Y42776D02*
X57235Y43016D01*
Y43189D01*
X31121Y15389D02*
X31154D01*
M02*
