G04*
G04 #@! TF.GenerationSoftware,Altium Limited,Altium Designer,25.1.2 (22)*
G04*
G04 Layer_Color=8388736*
%FSLAX43Y43*%
%MOMM*%
G71*
G04*
G04 #@! TF.SameCoordinates,40D48374-329B-4D39-B51B-D84B34E4F720*
G04*
G04*
G04 #@! TF.FilePolarity,Positive*
G04*
G01*
G75*
%ADD11C,0.200*%
%ADD181C,0.508*%
G36*
X9115Y69371D02*
X9114D01*
X9113D01*
X9109D01*
X9103Y69371D01*
X9098Y69370D01*
X9091D01*
X9075Y69367D01*
X9058Y69364D01*
X9041Y69358D01*
X9026Y69353D01*
X9019Y69349D01*
X9014Y69344D01*
X9013Y69343D01*
X9010Y69340D01*
X9005Y69334D01*
X9001Y69326D01*
X8995Y69316D01*
X8991Y69305D01*
X8988Y69291D01*
X8987Y69276D01*
Y69270D01*
X8988Y69264D01*
X8988Y69256D01*
X8990Y69247D01*
X8992Y69238D01*
X8996Y69229D01*
X9001Y69219D01*
X9002Y69218D01*
X9004Y69215D01*
X9007Y69212D01*
X9011Y69206D01*
X9018Y69201D01*
X9024Y69196D01*
X9032Y69191D01*
X9041Y69187D01*
X9042D01*
X9046Y69185D01*
X9052Y69184D01*
X9061Y69183D01*
X9072Y69181D01*
X9086Y69180D01*
X9103Y69178D01*
X9123D01*
X9571D01*
Y69091D01*
X9128D01*
X9127D01*
X9124D01*
X9120D01*
X9114D01*
X9107Y69092D01*
X9099D01*
X9082Y69094D01*
X9061Y69096D01*
X9039Y69100D01*
X9019Y69106D01*
X9001Y69112D01*
X9000D01*
X8999Y69113D01*
X8993Y69116D01*
X8986Y69121D01*
X8975Y69127D01*
X8965Y69137D01*
X8954Y69147D01*
X8942Y69160D01*
X8933Y69175D01*
X8932Y69177D01*
X8929Y69183D01*
X8926Y69191D01*
X8922Y69203D01*
X8917Y69218D01*
X8913Y69235D01*
X8910Y69254D01*
X8910Y69275D01*
Y69283D01*
X8910Y69289D01*
X8911Y69296D01*
X8912Y69304D01*
X8916Y69324D01*
X8922Y69344D01*
X8930Y69366D01*
X8936Y69377D01*
X8942Y69387D01*
X8950Y69397D01*
X8958Y69406D01*
X8959Y69407D01*
X8960Y69408D01*
X8964Y69410D01*
X8968Y69413D01*
X8973Y69417D01*
X8979Y69420D01*
X8987Y69424D01*
X8995Y69429D01*
X9004Y69433D01*
X9016Y69436D01*
X9027Y69440D01*
X9040Y69444D01*
X9054Y69446D01*
X9070Y69449D01*
X9086Y69450D01*
X9104D01*
X9115Y69371D01*
D02*
G37*
G36*
X8939Y68994D02*
X8947Y68993D01*
X8957Y68991D01*
X8966Y68989D01*
X8976Y68985D01*
X8977D01*
X8978Y68984D01*
X8984Y68982D01*
X8992Y68979D01*
X9004Y68973D01*
X9017Y68966D01*
X9032Y68956D01*
X9047Y68946D01*
X9063Y68933D01*
X9064D01*
X9065Y68931D01*
X9070Y68926D01*
X9079Y68918D01*
X9091Y68905D01*
X9105Y68891D01*
X9122Y68873D01*
X9141Y68852D01*
X9160Y68828D01*
X9161Y68827D01*
X9164Y68824D01*
X9169Y68818D01*
X9175Y68811D01*
X9182Y68803D01*
X9191Y68793D01*
X9200Y68782D01*
X9210Y68770D01*
X9233Y68747D01*
X9255Y68723D01*
X9267Y68712D01*
X9278Y68701D01*
X9288Y68692D01*
X9299Y68685D01*
X9300D01*
X9300Y68683D01*
X9303Y68681D01*
X9307Y68679D01*
X9317Y68672D01*
X9330Y68665D01*
X9345Y68658D01*
X9361Y68652D01*
X9379Y68648D01*
X9395Y68646D01*
X9396D01*
X9397D01*
X9403Y68647D01*
X9412Y68648D01*
X9423Y68651D01*
X9436Y68654D01*
X9449Y68661D01*
X9462Y68669D01*
X9475Y68681D01*
X9477Y68683D01*
X9481Y68687D01*
X9486Y68694D01*
X9492Y68704D01*
X9498Y68717D01*
X9503Y68732D01*
X9507Y68750D01*
X9508Y68770D01*
Y68776D01*
X9507Y68779D01*
X9506Y68791D01*
X9503Y68804D01*
X9500Y68818D01*
X9493Y68834D01*
X9485Y68849D01*
X9473Y68863D01*
X9472Y68865D01*
X9467Y68869D01*
X9459Y68874D01*
X9448Y68880D01*
X9435Y68887D01*
X9418Y68892D01*
X9399Y68896D01*
X9378Y68898D01*
X9386Y68980D01*
X9387D01*
X9390Y68979D01*
X9394D01*
X9401Y68978D01*
X9409Y68976D01*
X9417Y68974D01*
X9427Y68971D01*
X9438Y68968D01*
X9460Y68961D01*
X9483Y68950D01*
X9494Y68943D01*
X9505Y68934D01*
X9516Y68926D01*
X9525Y68917D01*
X9526Y68916D01*
X9527Y68914D01*
X9530Y68911D01*
X9533Y68906D01*
X9536Y68901D01*
X9540Y68894D01*
X9545Y68887D01*
X9550Y68877D01*
X9554Y68867D01*
X9559Y68856D01*
X9563Y68843D01*
X9566Y68830D01*
X9569Y68816D01*
X9572Y68801D01*
X9573Y68785D01*
X9574Y68768D01*
Y68759D01*
X9573Y68752D01*
X9572Y68745D01*
X9571Y68735D01*
X9569Y68725D01*
X9567Y68715D01*
X9561Y68690D01*
X9551Y68666D01*
X9546Y68653D01*
X9539Y68641D01*
X9531Y68630D01*
X9521Y68620D01*
X9520Y68619D01*
X9519Y68617D01*
X9516Y68615D01*
X9512Y68611D01*
X9507Y68606D01*
X9501Y68602D01*
X9494Y68597D01*
X9486Y68591D01*
X9468Y68582D01*
X9445Y68573D01*
X9434Y68569D01*
X9421Y68567D01*
X9408Y68565D01*
X9394Y68564D01*
X9392D01*
X9387D01*
X9379Y68565D01*
X9369Y68566D01*
X9358Y68568D01*
X9345Y68572D01*
X9331Y68575D01*
X9316Y68581D01*
X9315Y68582D01*
X9310Y68584D01*
X9302Y68588D01*
X9292Y68593D01*
X9281Y68601D01*
X9267Y68610D01*
X9253Y68622D01*
X9237Y68635D01*
X9235Y68637D01*
X9229Y68641D01*
X9224Y68646D01*
X9220Y68651D01*
X9214Y68656D01*
X9207Y68664D01*
X9199Y68671D01*
X9191Y68681D01*
X9181Y68690D01*
X9171Y68701D01*
X9160Y68714D01*
X9148Y68727D01*
X9136Y68742D01*
X9123Y68757D01*
X9122Y68758D01*
X9120Y68760D01*
X9117Y68763D01*
X9113Y68768D01*
X9108Y68774D01*
X9102Y68780D01*
X9090Y68795D01*
X9076Y68811D01*
X9062Y68826D01*
X9050Y68840D01*
X9045Y68845D01*
X9040Y68850D01*
X9039Y68851D01*
X9036Y68854D01*
X9033Y68857D01*
X9027Y68862D01*
X9020Y68867D01*
X9014Y68872D01*
X8998Y68884D01*
Y68563D01*
X8921D01*
Y68995D01*
X8922D01*
X8926D01*
X8931D01*
X8939Y68994D01*
D02*
G37*
G36*
X9118Y44655D02*
X9117D01*
X9116D01*
X9112D01*
X9106Y44654D01*
X9101Y44653D01*
X9094D01*
X9078Y44650D01*
X9061Y44647D01*
X9044Y44642D01*
X9029Y44636D01*
X9023Y44632D01*
X9017Y44628D01*
X9016Y44627D01*
X9013Y44623D01*
X9008Y44617D01*
X9004Y44610D01*
X8998Y44599D01*
X8994Y44588D01*
X8991Y44574D01*
X8990Y44559D01*
Y44553D01*
X8991Y44548D01*
X8992Y44539D01*
X8993Y44531D01*
X8995Y44521D01*
X8999Y44512D01*
X9004Y44503D01*
X9005Y44502D01*
X9007Y44499D01*
X9010Y44495D01*
X9014Y44489D01*
X9021Y44485D01*
X9027Y44479D01*
X9035Y44474D01*
X9044Y44471D01*
X9045D01*
X9049Y44469D01*
X9055Y44468D01*
X9064Y44466D01*
X9075Y44464D01*
X9089Y44463D01*
X9106Y44461D01*
X9126D01*
X9574D01*
Y44375D01*
X9131D01*
X9130D01*
X9127D01*
X9123D01*
X9117D01*
X9110Y44376D01*
X9102D01*
X9085Y44378D01*
X9064Y44380D01*
X9042Y44383D01*
X9023Y44389D01*
X9004Y44395D01*
X9003D01*
X9002Y44396D01*
X8996Y44399D01*
X8989Y44404D01*
X8978Y44411D01*
X8968Y44420D01*
X8957Y44430D01*
X8945Y44443D01*
X8936Y44458D01*
X8935Y44460D01*
X8932Y44466D01*
X8929Y44474D01*
X8925Y44487D01*
X8920Y44502D01*
X8916Y44519D01*
X8914Y44537D01*
X8913Y44558D01*
Y44567D01*
X8914Y44572D01*
X8914Y44580D01*
X8915Y44587D01*
X8919Y44607D01*
X8925Y44628D01*
X8933Y44649D01*
X8939Y44661D01*
X8945Y44671D01*
X8953Y44680D01*
X8961Y44690D01*
X8962Y44691D01*
X8963Y44692D01*
X8967Y44693D01*
X8971Y44696D01*
X8976Y44700D01*
X8982Y44704D01*
X8990Y44708D01*
X8998Y44712D01*
X9007Y44716D01*
X9019Y44720D01*
X9030Y44723D01*
X9043Y44727D01*
X9057Y44729D01*
X9073Y44732D01*
X9089Y44733D01*
X9107D01*
X9118Y44655D01*
D02*
G37*
G36*
X9106Y44186D02*
X9105D01*
X9103Y44185D01*
X9100Y44184D01*
X9095Y44183D01*
X9089Y44182D01*
X9083Y44180D01*
X9069Y44176D01*
X9052Y44169D01*
X9036Y44161D01*
X9021Y44151D01*
X9007Y44140D01*
X9007Y44138D01*
X9003Y44134D01*
X8998Y44127D01*
X8993Y44117D01*
X8988Y44106D01*
X8983Y44092D01*
X8979Y44076D01*
X8978Y44059D01*
Y44053D01*
X8979Y44050D01*
X8980Y44039D01*
X8983Y44026D01*
X8988Y44011D01*
X8994Y43995D01*
X9004Y43979D01*
X9017Y43964D01*
X9019Y43962D01*
X9024Y43958D01*
X9033Y43952D01*
X9044Y43944D01*
X9058Y43937D01*
X9074Y43931D01*
X9093Y43927D01*
X9114Y43925D01*
X9115D01*
X9116D01*
X9119D01*
X9123Y43926D01*
X9133Y43927D01*
X9146Y43929D01*
X9161Y43933D01*
X9176Y43940D01*
X9191Y43949D01*
X9205Y43961D01*
X9207Y43963D01*
X9210Y43968D01*
X9216Y43975D01*
X9223Y43986D01*
X9229Y43999D01*
X9235Y44015D01*
X9239Y44033D01*
X9241Y44052D01*
Y44061D01*
X9240Y44068D01*
X9239Y44076D01*
X9237Y44085D01*
X9235Y44097D01*
X9232Y44109D01*
X9303Y44099D01*
Y44095D01*
X9302Y44091D01*
Y44079D01*
X9304Y44068D01*
X9305Y44056D01*
X9308Y44042D01*
X9313Y44026D01*
X9319Y44011D01*
X9328Y43995D01*
Y43994D01*
X9329Y43993D01*
X9333Y43989D01*
X9339Y43982D01*
X9348Y43974D01*
X9360Y43967D01*
X9374Y43960D01*
X9390Y43956D01*
X9399Y43954D01*
X9410D01*
X9411D01*
X9412D01*
X9417D01*
X9425Y43956D01*
X9435Y43958D01*
X9446Y43961D01*
X9459Y43966D01*
X9471Y43974D01*
X9482Y43984D01*
X9483Y43985D01*
X9487Y43989D01*
X9491Y43996D01*
X9497Y44005D01*
X9502Y44016D01*
X9507Y44029D01*
X9510Y44044D01*
X9511Y44061D01*
Y44068D01*
X9509Y44077D01*
X9507Y44088D01*
X9504Y44100D01*
X9499Y44113D01*
X9491Y44126D01*
X9482Y44138D01*
X9481Y44139D01*
X9476Y44143D01*
X9470Y44148D01*
X9460Y44155D01*
X9448Y44161D01*
X9433Y44168D01*
X9415Y44174D01*
X9395Y44177D01*
X9409Y44257D01*
X9410D01*
X9413Y44256D01*
X9416Y44255D01*
X9422Y44255D01*
X9429Y44253D01*
X9436Y44250D01*
X9454Y44244D01*
X9475Y44235D01*
X9495Y44223D01*
X9515Y44209D01*
X9533Y44192D01*
X9534Y44191D01*
X9535Y44189D01*
X9537Y44186D01*
X9539Y44182D01*
X9543Y44177D01*
X9547Y44171D01*
X9551Y44164D01*
X9555Y44156D01*
X9563Y44137D01*
X9570Y44115D01*
X9575Y44090D01*
X9577Y44077D01*
Y44053D01*
X9576Y44043D01*
X9574Y44031D01*
X9571Y44016D01*
X9567Y43999D01*
X9561Y43982D01*
X9554Y43965D01*
Y43964D01*
X9553Y43963D01*
X9550Y43958D01*
X9544Y43949D01*
X9538Y43940D01*
X9528Y43928D01*
X9518Y43917D01*
X9506Y43906D01*
X9491Y43896D01*
X9490Y43896D01*
X9485Y43893D01*
X9476Y43889D01*
X9466Y43884D01*
X9454Y43880D01*
X9440Y43876D01*
X9424Y43873D01*
X9408Y43872D01*
X9406D01*
X9400D01*
X9393Y43873D01*
X9382Y43875D01*
X9370Y43878D01*
X9357Y43882D01*
X9344Y43888D01*
X9331Y43896D01*
X9329Y43896D01*
X9325Y43899D01*
X9319Y43905D01*
X9311Y43912D01*
X9303Y43922D01*
X9293Y43933D01*
X9285Y43946D01*
X9276Y43962D01*
Y43961D01*
X9275Y43959D01*
X9274Y43957D01*
X9273Y43953D01*
X9270Y43943D01*
X9264Y43929D01*
X9257Y43914D01*
X9247Y43899D01*
X9235Y43885D01*
X9221Y43872D01*
X9219Y43871D01*
X9213Y43867D01*
X9204Y43862D01*
X9192Y43856D01*
X9177Y43850D01*
X9159Y43845D01*
X9138Y43841D01*
X9116Y43840D01*
X9115D01*
X9112D01*
X9107D01*
X9101Y43841D01*
X9094Y43842D01*
X9085Y43844D01*
X9076Y43846D01*
X9066Y43848D01*
X9043Y43855D01*
X9031Y43861D01*
X9020Y43866D01*
X9007Y43874D01*
X8995Y43882D01*
X8983Y43892D01*
X8972Y43903D01*
X8971Y43904D01*
X8969Y43906D01*
X8966Y43910D01*
X8962Y43914D01*
X8958Y43920D01*
X8953Y43927D01*
X8947Y43936D01*
X8943Y43946D01*
X8937Y43957D01*
X8931Y43969D01*
X8927Y43981D01*
X8922Y43995D01*
X8918Y44010D01*
X8915Y44026D01*
X8914Y44042D01*
X8913Y44060D01*
Y44068D01*
X8914Y44074D01*
X8914Y44082D01*
X8915Y44090D01*
X8917Y44099D01*
X8919Y44110D01*
X8925Y44132D01*
X8934Y44156D01*
X8940Y44168D01*
X8946Y44179D01*
X8955Y44191D01*
X8963Y44202D01*
X8964Y44203D01*
X8966Y44205D01*
X8969Y44208D01*
X8973Y44210D01*
X8977Y44215D01*
X8984Y44220D01*
X8991Y44225D01*
X8999Y44231D01*
X9008Y44237D01*
X9018Y44242D01*
X9040Y44253D01*
X9067Y44261D01*
X9081Y44264D01*
X9096Y44266D01*
X9106Y44186D01*
D02*
G37*
G36*
X238207Y107360D02*
X238215Y107359D01*
X238222Y107358D01*
X238242Y107354D01*
X238263Y107349D01*
X238284Y107340D01*
X238295Y107335D01*
X238306Y107328D01*
X238315Y107321D01*
X238325Y107312D01*
X238325Y107311D01*
X238326Y107310D01*
X238328Y107307D01*
X238331Y107303D01*
X238335Y107298D01*
X238339Y107292D01*
X238342Y107284D01*
X238347Y107276D01*
X238351Y107266D01*
X238355Y107255D01*
X238358Y107244D01*
X238362Y107230D01*
X238364Y107216D01*
X238367Y107200D01*
X238368Y107184D01*
Y107167D01*
X238290Y107155D01*
Y107156D01*
Y107158D01*
Y107162D01*
X238289Y107167D01*
X238288Y107173D01*
Y107180D01*
X238285Y107196D01*
X238282Y107213D01*
X238277Y107229D01*
X238271Y107245D01*
X238267Y107251D01*
X238263Y107257D01*
X238262Y107258D01*
X238258Y107261D01*
X238252Y107265D01*
X238245Y107270D01*
X238234Y107276D01*
X238223Y107279D01*
X238209Y107283D01*
X238194Y107284D01*
X238188D01*
X238183Y107283D01*
X238174Y107282D01*
X238166Y107280D01*
X238156Y107278D01*
X238147Y107275D01*
X238138Y107270D01*
X238137Y107269D01*
X238134Y107267D01*
X238130Y107263D01*
X238124Y107260D01*
X238120Y107253D01*
X238114Y107246D01*
X238109Y107239D01*
X238106Y107229D01*
Y107229D01*
X238104Y107225D01*
X238103Y107218D01*
X238101Y107210D01*
X238099Y107198D01*
X238098Y107184D01*
X238096Y107167D01*
Y107148D01*
Y106699D01*
X238010D01*
Y107143D01*
Y107144D01*
Y107147D01*
Y107151D01*
Y107156D01*
X238011Y107164D01*
Y107171D01*
X238013Y107189D01*
X238014Y107210D01*
X238018Y107231D01*
X238024Y107251D01*
X238030Y107270D01*
Y107271D01*
X238031Y107272D01*
X238034Y107277D01*
X238039Y107285D01*
X238045Y107295D01*
X238055Y107306D01*
X238065Y107317D01*
X238078Y107328D01*
X238093Y107338D01*
X238095Y107339D01*
X238101Y107341D01*
X238109Y107345D01*
X238122Y107349D01*
X238137Y107354D01*
X238153Y107357D01*
X238172Y107360D01*
X238193Y107361D01*
X238201D01*
X238207Y107360D01*
D02*
G37*
G36*
X237704D02*
X237713Y107359D01*
X237722Y107358D01*
X237732Y107356D01*
X237744Y107354D01*
X237769Y107347D01*
X237782Y107342D01*
X237794Y107338D01*
X237808Y107331D01*
X237821Y107323D01*
X237833Y107315D01*
X237844Y107305D01*
X237845Y107304D01*
X237847Y107302D01*
X237850Y107299D01*
X237854Y107294D01*
X237857Y107289D01*
X237863Y107282D01*
X237868Y107275D01*
X237873Y107265D01*
X237879Y107256D01*
X237884Y107245D01*
X237893Y107221D01*
X237897Y107207D01*
X237900Y107193D01*
X237902Y107178D01*
X237903Y107163D01*
Y107162D01*
Y107160D01*
Y107156D01*
X237902Y107152D01*
Y107147D01*
X237901Y107140D01*
X237899Y107125D01*
X237895Y107108D01*
X237889Y107091D01*
X237881Y107074D01*
X237871Y107057D01*
Y107056D01*
X237869Y107055D01*
X237865Y107050D01*
X237857Y107042D01*
X237847Y107033D01*
X237834Y107024D01*
X237818Y107013D01*
X237800Y107005D01*
X237779Y106998D01*
X237779D01*
X237780Y106997D01*
X237783Y106996D01*
X237787Y106995D01*
X237795Y106991D01*
X237807Y106985D01*
X237819Y106978D01*
X237831Y106968D01*
X237842Y106958D01*
X237853Y106947D01*
X237854Y106945D01*
X237857Y106941D01*
X237860Y106933D01*
X237864Y106924D01*
X237869Y106912D01*
X237872Y106898D01*
X237875Y106882D01*
X237876Y106865D01*
Y106864D01*
Y106862D01*
Y106858D01*
X237875Y106853D01*
X237874Y106847D01*
X237873Y106839D01*
X237870Y106824D01*
X237864Y106805D01*
X237855Y106785D01*
X237849Y106775D01*
X237842Y106764D01*
X237834Y106755D01*
X237826Y106746D01*
X237825Y106745D01*
X237823Y106744D01*
X237820Y106741D01*
X237816Y106738D01*
X237811Y106734D01*
X237805Y106730D01*
X237797Y106726D01*
X237790Y106721D01*
X237780Y106716D01*
X237770Y106712D01*
X237759Y106708D01*
X237747Y106704D01*
X237720Y106699D01*
X237705Y106698D01*
X237690Y106697D01*
X237682D01*
X237676Y106698D01*
X237669Y106699D01*
X237660Y106699D01*
X237651Y106700D01*
X237641Y106703D01*
X237619Y106709D01*
X237596Y106717D01*
X237585Y106723D01*
X237574Y106730D01*
X237563Y106738D01*
X237553Y106746D01*
X237552Y106747D01*
X237551Y106748D01*
X237548Y106751D01*
X237544Y106755D01*
X237541Y106761D01*
X237536Y106766D01*
X237527Y106780D01*
X237517Y106798D01*
X237509Y106819D01*
X237502Y106842D01*
X237501Y106855D01*
X237500Y106868D01*
Y106869D01*
Y106870D01*
Y106875D01*
X237501Y106884D01*
X237503Y106894D01*
X237506Y106907D01*
X237511Y106920D01*
X237516Y106933D01*
X237525Y106947D01*
X237526Y106949D01*
X237529Y106952D01*
X237535Y106958D01*
X237543Y106965D01*
X237553Y106974D01*
X237565Y106982D01*
X237579Y106991D01*
X237596Y106998D01*
X237595D01*
X237593Y106999D01*
X237591Y107000D01*
X237587Y107002D01*
X237576Y107007D01*
X237562Y107013D01*
X237548Y107023D01*
X237533Y107033D01*
X237519Y107046D01*
X237506Y107061D01*
Y107062D01*
X237505Y107063D01*
X237501Y107069D01*
X237496Y107078D01*
X237490Y107090D01*
X237484Y107105D01*
X237479Y107123D01*
X237475Y107143D01*
X237474Y107165D01*
Y107166D01*
Y107168D01*
Y107173D01*
X237475Y107179D01*
X237476Y107185D01*
X237477Y107194D01*
X237479Y107203D01*
X237482Y107214D01*
X237488Y107235D01*
X237493Y107247D01*
X237499Y107259D01*
X237506Y107271D01*
X237513Y107282D01*
X237523Y107293D01*
X237533Y107305D01*
X237534Y107306D01*
X237536Y107308D01*
X237539Y107310D01*
X237544Y107313D01*
X237550Y107318D01*
X237557Y107323D01*
X237565Y107327D01*
X237575Y107333D01*
X237585Y107339D01*
X237597Y107343D01*
X237610Y107348D01*
X237623Y107353D01*
X237638Y107355D01*
X237654Y107358D01*
X237670Y107360D01*
X237688Y107361D01*
X237698D01*
X237704Y107360D01*
D02*
G37*
%LPC*%
G36*
X237688Y107295D02*
X237683D01*
X237679Y107294D01*
X237668Y107293D01*
X237654Y107291D01*
X237639Y107286D01*
X237623Y107280D01*
X237608Y107271D01*
X237593Y107259D01*
X237591Y107257D01*
X237588Y107252D01*
X237581Y107244D01*
X237575Y107233D01*
X237568Y107220D01*
X237561Y107204D01*
X237558Y107185D01*
X237556Y107166D01*
Y107165D01*
Y107163D01*
Y107160D01*
X237557Y107156D01*
X237558Y107146D01*
X237560Y107132D01*
X237565Y107118D01*
X237572Y107102D01*
X237581Y107086D01*
X237594Y107071D01*
X237596Y107069D01*
X237601Y107065D01*
X237609Y107058D01*
X237621Y107051D01*
X237635Y107044D01*
X237652Y107038D01*
X237670Y107034D01*
X237691Y107032D01*
X237697D01*
X237701Y107033D01*
X237711Y107034D01*
X237724Y107037D01*
X237739Y107042D01*
X237754Y107048D01*
X237770Y107058D01*
X237784Y107070D01*
X237786Y107072D01*
X237790Y107076D01*
X237795Y107085D01*
X237802Y107095D01*
X237810Y107109D01*
X237815Y107125D01*
X237819Y107143D01*
X237821Y107163D01*
Y107165D01*
Y107168D01*
X237820Y107175D01*
X237819Y107183D01*
X237817Y107194D01*
X237814Y107205D01*
X237810Y107216D01*
X237806Y107229D01*
X237805Y107229D01*
X237803Y107234D01*
X237799Y107240D01*
X237794Y107246D01*
X237787Y107255D01*
X237779Y107263D01*
X237769Y107271D01*
X237758Y107278D01*
X237756Y107279D01*
X237752Y107281D01*
X237746Y107284D01*
X237737Y107287D01*
X237727Y107290D01*
X237715Y107292D01*
X237701Y107294D01*
X237688Y107295D01*
D02*
G37*
G36*
Y106967D02*
X237686D01*
X237681Y106966D01*
X237672Y106965D01*
X237661Y106964D01*
X237649Y106960D01*
X237637Y106955D01*
X237623Y106948D01*
X237612Y106938D01*
X237611Y106937D01*
X237607Y106933D01*
X237603Y106927D01*
X237597Y106918D01*
X237591Y106908D01*
X237587Y106896D01*
X237583Y106882D01*
X237582Y106867D01*
Y106866D01*
Y106865D01*
Y106859D01*
X237584Y106851D01*
X237586Y106840D01*
X237590Y106829D01*
X237595Y106817D01*
X237603Y106805D01*
X237613Y106793D01*
X237614Y106792D01*
X237619Y106788D01*
X237625Y106783D01*
X237634Y106777D01*
X237645Y106772D01*
X237657Y106767D01*
X237672Y106763D01*
X237688Y106762D01*
X237696D01*
X237704Y106764D01*
X237716Y106766D01*
X237728Y106770D01*
X237741Y106775D01*
X237753Y106782D01*
X237765Y106793D01*
X237766Y106793D01*
X237770Y106797D01*
X237775Y106804D01*
X237779Y106812D01*
X237785Y106823D01*
X237790Y106835D01*
X237794Y106848D01*
X237794Y106863D01*
Y106864D01*
Y106865D01*
X237794Y106870D01*
X237793Y106879D01*
X237791Y106889D01*
X237787Y106902D01*
X237782Y106914D01*
X237775Y106927D01*
X237765Y106938D01*
X237764Y106939D01*
X237760Y106943D01*
X237753Y106948D01*
X237745Y106952D01*
X237733Y106958D01*
X237720Y106963D01*
X237705Y106966D01*
X237688Y106967D01*
D02*
G37*
%LPD*%
D11*
X249809Y762D02*
Y7012D01*
Y19512D01*
D181*
X-0Y0D02*
Y116180D01*
X250114D01*
Y0D02*
Y116180D01*
X-0Y0D02*
X250114D01*
M02*
