M48
;Layer_Color=9474304
;FILE_FORMAT=4:3
METRIC,LZ
;TYPE=PLATED
T01F00S00C0.300
T02F00S00C0.305
T03F00S00C0.406
T04F00S00C0.457
T06F00S00C0.700
T07F00S00C0.800
T08F00S00C0.900
T09F00S00C0.910
T10F00S00C1.000
T11F00S00C1.100
T12F00S00C1.300
T13F00S00C1.600
T14F00S00C3.200
%
T01
X0247193Y0007544
X0247523Y0037363
X0233006Y0038575
X0227037Y0026967
X0226706Y0022801
X0230516Y0021531
X0232689Y0011278
X02318Y0003023
X022479
X0218262Y0003073
X0212776Y0003124
X0205918Y0002972
X0216687Y0010947
X0224231Y0010439
X0220218Y0030023
X0187782Y0032436
X0187477Y0035662
X0187427Y0037668
X0167742Y0023825
X0165608Y0020879
X0167996Y0002794
X0175133Y0002642
X0181458
X0189027Y0003073
X0194843Y0002794
X0200584Y0002896
X020099Y0010312
X0162662Y0004699
X0160934Y0002642
X0154661Y0002692
X0148438Y0004648
X0143232Y0003713
X0143586Y0002184
X0143003Y0006939
X012504Y002477
X0130049Y0034955
X0100127Y003871
X0108001Y0019736
X0109804Y0019761
X0111506
X0115011Y0009779
X0114122Y0006731
X011336Y0006756
X0112192Y000668
X0111501Y0006071
X0110515Y0006682
X010988Y0006096
X0114529Y0005867
X0115443Y0005918
X0116154Y0006807
X0117111Y0006962
X0117907Y0006426
X0118872
X0119253Y0007493
X0120269Y0007468
X0120752Y0006502
X0121742Y0006452
X0096037Y0011481
X0096675Y0012118
X0083972Y0004369
X0083007Y0003759
X0070917Y0010516
X0069799
X0066929Y0012319
X0066167Y0012294
X0063017Y0017247
X0062255Y0017221
X0061544Y0026314
X0068859Y0026109
Y0024543
X0068961Y0023089
X0068859Y0027675
Y0029242
X006891Y0034823
X0068858Y0036271
Y0037948
X0068859Y003937
X0045696Y0037165
X0047803Y0026568
X0048997Y0027381
X0048463Y0016967
X0047803Y0016295
X0047904Y0015467
X0048133Y0014681
X0050952Y0014072
X0055194Y0013411
X0056846Y0011527
X0056007Y0010668
X0055703Y0008527
X0060249Y0007442
Y0005715
X006364Y0004394
X0064541
X0050902Y0005131
X005174Y0006223
X0047626Y0008819
X0044044Y0006502
X0042266Y0007264
X0041377Y0010846
X0041885Y0012675
X0041986Y0013665
X0042136Y0014983
X0042774Y0015621
X0032664Y0016967
X0032027Y0017605
X0032261Y0018946
X0031623Y0019583
X0031778Y0021308
X003114Y0021946
X0031121Y0015389
X003175Y001418
X0033503Y0007798
X0027026Y0010693
X0025298Y0017958
X0021488Y0005766
X0016688Y0006325
X0012827Y0038049
X0012818Y003877
X0021539Y003749
X0032564Y0027564
X0038203Y0033127
X0002489Y0032334
X0004293Y004384
X0003937Y0067818
X0004265Y0068568
X0006833Y0068809
X0006858Y0068098
X0008811Y006806
X0008837Y0068797
X0009906Y0069723
X001285Y0070092
Y0070905
Y0071718
Y0072531
X0015494Y0070942
X0016434Y0070231
X0012936Y0066809
X0012899Y0066091
X0012878Y0065227
Y0064381
X001285Y0063624
Y0062777
X0009398Y0066802
X0022352Y0065989
X002165Y0061586
X0017729Y005494
X0022428Y0049428
X0027Y0048743
X0027586Y0050297
X0029667Y0045517
X0027651Y0042427
X0023299Y0041808
X0015875Y0042266
Y0045263
X0012878Y0045364
Y0046177
Y004699
Y0047803
X0012818Y0041986
Y0041275
Y0040513
Y0039666
X0009576Y0041859
X0008839Y0043332
X0008865Y0044069
X0009881Y0044882
X0006884Y0044181
X0006857Y004347
X0006871Y0042759
X0034696Y0042672
X0035484Y0041046
X0040589Y0043822
X0042672Y0044577
X0043612Y0044653
X00413Y0047777
X0040132Y0047523
X0040361Y0049657
X0042013Y0050089
X0043028Y0050063
X0041885Y0054559
X0035535Y0059792
X0034823Y0060477
X0031878Y0059746
X0032741Y0068529
X0026512Y0067392
X0027553Y0072676
X00224Y0074156
X0047803Y0057048
X0045264Y0054437
X0044882Y004666
X0047219Y0047117
X0051638Y0047904
X0053087Y0047376
X0054813Y0047835
X0055613Y0046919
X0056388Y004285
X0057235Y0043189
X0058268Y004318
X0059322Y0043072
X0060223Y0042443
X00635Y004257
X0065551Y0042113
X0066453Y0042107
X0066543Y0043552
X0067564Y0043637
X0068409Y0043695
X0069748Y0043713
X0070587
X007168Y0043752
X0072451Y0043688
X0073416Y004362
X0074244Y0043637
X0076109Y0043544
X0076937Y0043561
X007808Y0043663
X0079045
X0080239Y0043713
X008128Y0043688
X0083591Y0043764
X0081699Y0046704
X0079478Y004793
X0077775Y0047523
X0076556Y0047549
X0074752Y0047935
X0072492Y0047752
X0071298Y0047854
X006952Y0047015
X0068656Y0046965
X0065938Y0044374
X0062484Y0048133
X006256Y0050597
X0063703
X006411Y0051333
X0063551Y0051968
X0062649
X0058014Y0050394
X0054661Y0043002
X0053543Y0043307
X0052297Y0043235
X0051384Y0043332
X0049909Y0043305
X0068251Y0053904
X0071832Y0050449
X0073687Y0049789
X0076911Y0049657
X0076479Y0051181
X0078384Y0050597
X0079172Y0051968
X008095Y005047
X0073102Y0061346
X0074499Y0064749
X0102235Y0052324
X0105157Y0044049
X0133732Y004603
X0132818Y0048367
X0138227Y0052603
X0135739Y0056698
X0143508Y0063194
X0144938
X0146369
X01478
X0149231
X0150662
X0152093
X0159433Y0068274
X0155524Y0052727
X0162966Y0049124
X0164211Y0048184
X0165329Y0047371
X0165227Y0050343
X0166522Y0049555
X0167767Y0048666
X0170764Y0049149
X0170205Y0050343
X0170621Y0069198
X0184455Y0057836
X0187782Y005367
X01889Y0051867
Y00492
X0187198Y0041732
X0209815Y0060114
X0212879Y0061803
X0213041Y0065499
X0222033Y0067734
X0223013Y0059695
X0223912Y0060266
X022536
X0228853Y0060255
X0227494Y0063568
X0233707Y0066502
X0231126Y0073855
X0217207Y0073169
X0206451Y0070587
X0241337Y005892
X0238455Y0039421
X0233006Y0040454
X0247523Y0042799
X0247599Y0048539
X0247548Y0052603
X0247599Y0057607
X0240118Y009227
X0237832
X0237668Y0094492
Y0095172
Y0095852
Y0096532
X0236968
Y0095852
Y0095172
Y0094492
X0236268
Y0095172
Y0095852
Y0096532
X0235568
Y0095852
Y0095172
Y0094492
X0238693
X0239593
X0239143Y0095002
X0239593Y0095512
X0238693
X0239143Y0096022
X0238693Y0096532
X0239593
X0239254Y0099281
X0242658Y0099052
Y0097731
Y0096156
X0242734Y0101058
X0239254Y0105072
X0239508Y0106545
X0238162
X023726
X023664Y0112616
X0238087Y011259
X0234608Y0112793
X0223241Y0114122
X021583
X0208419
X021336Y0102794
X0214706Y0091923
X0225196Y0091999
X0230977Y0090635
X0234406Y0090533
X0194107Y0099797
X0196139Y0102489
X0194564Y0104292
X0192354Y0104851
X0191745Y0103632
X0190144Y010602
X0190246Y0109144
X0196291Y0107696
X0198806Y011143
X0201008Y0114122
X0193597
X0186186
X0178776
X0171365
X0163954
X0172772Y0084079
X0190246Y0101092
X0160205Y0091115
X0156543Y0114122
X0141722
X0134311
X01269
X0112078
X0104667
X0097257
X0091973Y0113055
X0090576Y0113081
X008923Y0113157
X0088723Y0113949
X0082499Y0114071
X0077597Y0110719
X0074581Y0109123
X0073101Y0110236
X0070866Y010983
X0067234Y0110007
X0065354Y0110465
X0064262
X0068403Y0114071
X0075081Y0106942
X0075033Y0099598
X0076074Y0097109
X0075312Y0095738
X0073635Y0096063
X0074115Y0094061
X0072261Y0094036
X0071604Y0093172
X0073315Y0092537
X0074915Y0091369
X0080115Y0087459
X0082804Y0093548
X0081154Y0097058
X0083109Y0098958
X0079731Y0100736
X0078513Y0099725
X0077243Y0101575
X0067202Y0100457
X0066167
X0066065Y0102514
X0064973
X0063881Y0100559
X0062789
X0063805Y0096368
X0064897
X0064541Y0092939
X006538
X00635Y0092913
X0062306Y0092837
X0058572Y0093294
X0057506Y0093218
X0056439Y0092354
X0055448Y0092583
X0054331Y0096114
X0053238
X0053086Y0099619
X0051994
X0051079Y0100889
X0050295Y0100155
X0049047Y0100711
X004826Y0099974
X0048412Y0096495
X0049505Y0096317
X0054966Y0100203
X0056058
X0059792Y0105105
X0060884
X0047981Y0112725
X0070105Y008098
X0025438Y0084878
X0028169Y0095047
X002738Y0097539
Y0099454
Y0101369
Y0103285
Y01052
X002197Y0108664
X0020989Y0102713
X0018534Y0099088
X0020422Y0096622
X0038384Y0098836
T02
X0126096Y0002159
X0131844
X0137592
X0120348
X0049581Y0002464
X0001702Y0040742
Y0047066
X0001905Y0058903
X0002235Y0065888
X0002337Y007112
X0006858Y0062941
X0006299Y0060147
X0149234Y0114021
X0119591
T03
X0245121Y0015105
X0248107Y0031471
X0237197Y0032987
X0239116Y0035128
X0239102Y002496
Y0022242
X0237197Y0016451
X0242265Y0013005
X0242418Y0010871
X0241402Y0007417
X0238277Y0002591
X0228586Y0016451
X022733Y0021184
X0230542Y0024274
X0233909Y0027788
X0227011Y0030218
X0226238Y0038125
X0220751Y0038024
X0220712Y0034333
X0220737Y0027678
X0223469Y0023978
X0216789Y002098
X02127Y0020828
X0212305Y001508
X0220382Y0016451
X0206513Y0020845
X020725Y0031513
X0204888Y0031386
X0204013Y0008204
X0207504Y0004894
X0199974Y0004674
X0195707Y0007061
X0193336Y0009411
X018818Y0010414
X0186563Y0004674
X0182474Y0006909
X0180018Y0009411
X0174727Y0010262
X0173126Y0004674
X0169366Y0006745
X01667Y0009411
X0165684Y0023495
X0166802Y0037948
X0171983Y0039065
X0173126Y0033426
X0180721Y0031852
X0180746Y0036373
X018862Y0034417
X0197623Y0038651
X0194539Y0022784
X0201384Y002272
X018184Y0020173
X0176479Y0017501
X0161341Y0010338
X0159868Y0004851
X0156048Y0006745
X0153382Y0009411
X015052Y0016002
X0145491Y0025552
X0141681Y002352
X0137998Y0027508
X0135277Y0027488
X013835Y0033711
X0135531Y0036759
X012631Y0034854
X0124253Y0026091
X0123876Y002286
X0124511Y0019787
X0126361Y0014737
X0128292Y0014712
X0137947Y0013386
X0137795Y0019228
X0156261Y0029921
X0160884Y0026772
X0161595Y003236
X0158521Y0037897
X0149428Y0039192
X0122276Y0013767
X0120467
X0118659
X0104762Y001364
X0103105Y0002159
X0097357
X0091609
X0085861
X0108852
X01146
X0100514Y0024324
X010033Y002855
X0100228Y0030175
X0095098Y0031147
X0090094Y0028784
X0088015Y003182
X0090373Y0036074
X0088773Y0039122
X0088976Y0022917
X0084074Y0023978
X009652Y0022485
X0078059Y0023946
X0078308Y003107
X0078363Y0037103
X0083515Y003241
X0066116Y0032995
X0066015Y0031064
X0065202Y0029758
Y0025305
X0059436Y0027381
X0059284Y0029312
X0056744Y0022784
X0055626Y0007468
X0056363Y0004293
X0057122Y0002159
X0062869
X0068617
X0074365
X0080113
X0065202Y0035433
Y0036576
X0038659Y0036728
X0039607Y0038984
X0037897Y0025781
X0028981Y0022454
X0028854Y0012954
X0032233Y001049
X0039878Y0002159
X004412Y0002184
X0019456Y0006401
X0010617Y0005639
X0015951Y0022936
X0010312Y0031344
X0006477Y003335
X0005442Y0036113
X0009119Y0036378
X0017729Y0037465
X0024613Y0036378
X0003505Y0040843
X0003124Y0046558
X0003962Y005715
X0008357Y005588
X0010135Y0060173
X0009144Y0064465
X0008735Y0072302
X0016516Y0073177
X0019603Y0072585
X0020275Y0076386
X0014072Y0076962
X0016358Y0066294
X0017702Y0062979
X0017475Y0059639
X0017363Y0056402
X001585Y0053035
X0015113Y0048362
X001966Y0048616
X0022276Y0051537
X002225Y0053706
X0027635Y0055067
X0027915Y0059639
X0028826Y0062335
X0025324Y0061062
X0027887Y0066297
X0029159Y0069113
X0025293Y0074083
X0037262Y0063449
X0037998Y0062687
X0039548Y005525
X0043256Y004666
X004318Y0041986
X0028219Y0039929
X0028473Y0047219
X0025324Y0049352
X0016789Y004379
X0014503Y0041935
X0017856Y0039752
X0008839Y0039472
X0008763Y0047574
X0050724Y0046482
X0056794Y0047117
X0056032Y0050292
X0064389Y0047092
X0074168Y0047066
X0079756Y0049809
X0080594Y0044679
X004511Y0039573
X0088265Y004123
X0085954Y0046787
X0125171Y0053899
X0125425Y0058014
X0127813Y0062687
X0136144Y0053975
X0143478Y0053359
X0147267Y0053288
X0149654Y0053389
X015222Y0051967
X0158062Y0052043
X0159967Y0053643
X0158767Y0046825
X015925Y0043954
X015494Y0042443
X0161765Y0039865
X0156741Y005852
X0150848Y0058063
X0144727Y0057936
X014587Y0051865
X0140843Y0049174
X0137617Y0045161
X0154393Y0064668
X0163374Y0063493
X0170285Y0062206
X0171501Y0056667
X0169012Y0055956
X0166675Y0056515
X0168656Y0043459
X0183202Y0043853
X0183177Y0041948
X0188468Y0040361
X0187503Y0050343
X0187376Y0056439
X0191785Y0062456
Y0064456
X0191008Y007653
X0178285Y0072456
X0171785Y0074956
X0168705Y0077615
X0168035Y0071956
X0177535Y0060706
X0180035
X0180696Y0052527
Y0048108
X0194935Y0050684
X0199568Y005334
X0201891Y0053738
X0198741Y0047134
X0217932Y0046812
X0221144Y004622
Y0045204
Y0044188
Y0043172
Y0042156
X0221677Y0039794
X0223342Y0053264
X022056Y005986
X0223887Y0064305
X0222606Y0071044
X0225298Y0071374
X0238187Y0071823
X0241351Y0068478
X0241021Y00651
X0241376Y0061976
X0237617Y0063348
X0234326Y0052418
X0233553Y0049505
X0240462Y0045415
X0240995Y004191
X0241148Y0078715
X0235585Y0075971
X0213803Y0075786
X0213956Y0067912
X0214337Y0064864
X0210628Y0055262
X0246329Y0040132
X0247498Y0078105
Y0083007
Y0087909
X0244221Y0086716
X0247498Y0092812
Y0097714
X0247523Y0102616
X0247599Y0107518
X0241681Y0106959
X0241464Y010431
X0233971Y0107225
X0228016Y0107721
X0228146Y0111915
X0229591Y0102845
X0228967Y0097706
X0233858Y0098933
X0236169Y0099009
X0241275Y009304
X0241591Y0087901
X0242073Y0080993
X0233565Y0086245
X0229235Y0086385
X0230657Y0088443
X0201727Y0101803
X0202209Y0106045
X0200965Y0108941
X0198069Y0099593
X0187808Y0095988
X0186715Y0093015
X0184353Y0099441
X018448Y0106832
X018095Y0107874
X0164485Y0105969
X0166746Y0100254
X0170205Y0089865
X0173455Y0080615
X0162205Y0080365
X0162705Y0091865
X0163113Y0095174
X0158356Y0094437
X015Y0094386
X0149455Y0089865
Y0087865
X0150744Y0100533
X015308Y0105055
X0158775Y0105943
X0143027Y0102464
X0145237Y0097866
X01413Y0094209
X0135153Y0094234
X0135331Y0099111
X0133883Y0107772
X0129007
X0126289Y0100711
X0120345Y0097942
X0118085Y0102972
X0110871Y0098552
X0110668Y0094539
X0101727Y0100965
X0092659Y0101321
X0084684Y0108839
X008476Y0110642
X010475Y0108153
X0108636Y0108179
X0083058Y0108737
X0080035Y0110185
X0073254Y0106934
X007808Y0096444
X0084049Y0101727
X0061951Y0096209
X0058952Y0097814
X0051486Y0096469
X0046126Y0096164
X0051418Y010839
X0051816Y0111404
X0057887Y0110287
X0060757Y0110211
X0039675Y010922
X0040056Y009652
X0022275Y0094262
X0022402Y0092332
X0018999Y0090297
X0017729Y0086131
X0016078Y0080874
X0020905Y0079171
X0026875Y0081939
X0010287Y0084887
X0008255Y0080696
X000828Y0090551
X0013564Y0090475
X0012649Y0109449
X0015518Y0109477
X0004699Y0109601
X0027407Y0107188
X0003352Y0090605
X0002334Y0082284
T04
X0247498Y0063398
Y0068301
Y0073203
T06
X0211771Y0005682
X0213021
X0219366
X0220616
X0227793
X0229043
X0236308
X0237558
T07
X0242722Y0035059
Y0037059
T08
X0028118Y0003327
X0030658
X0033198
T09
X0244715Y0042689
Y0045229
T10
X0019736Y0012598
Y001463
Y0016662
Y0018694
Y0020726
Y0022758
X0022276Y0021742
Y001971
Y0015646
Y0013614
Y0011582
Y0023774
X0127878Y010353
X0130378
X0132378
X0134878
X0110367Y0103581
X0107867
X0105867
X0103367
T11
X0224116Y0057193
X0226656
X0229196
X0243992Y0056159
Y0058699
X0243789Y0062586
Y0065126
X0243611Y0069672
Y0072212
T12
X0153492Y0016256
X0156032
X0006782Y001016
Y0025197
X0009322
X0004242
Y001016
T13
X0149047Y0029464
X0013132Y0026467
Y000889
X0186157Y0044653
X0219202Y005301
X0201727Y0093751
X0178105Y0086258
X017178Y0096342
X0146787Y010127
T14
X0245923Y0003734
X0003734Y0003454
X0058801Y0071628
X0145339Y0077165
X0246431Y0112446
X0137948Y010624
X0124808
X0113437Y0106291
X0100297
X0009347Y011237
M30
