M48
;Layer_Color=9474304
;FILE_FORMAT=4:3
METRIC,LZ
;TYPE=PLATED
T05F00S00C0.600
%
G90
G05
T05
G00X00008Y0039099
M15
G01X00023
M16
G00X00008Y0048339
M15
G01X00023
M16
G00X0000797Y0063815
M15
G01X0002297
M16
G00X0000797Y0073055
M15
G01X0002297
M16
G00X0006407Y0072755
M15
G01X0007407
M16
G00X0006407Y0064115
M15
G01X0007407
M16
G00X000641Y0048039
M15
G01X000741
M16
G00X000641Y0039399
M15
G01X000741
M16
G00X0233034Y0109864
M15
G01Y0108864
M16
G00X0232734Y0115474
M15
G01Y0113974
M16
G00X0241974Y0115474
M15
G01Y0113974
M16
G00X0241674Y0109864
M15
G01Y0108864
M16
M17
M30
